<svg width="19" height="22" viewBox="0 0 19 22" fill="none" xmlns="http://www.w3.org/2000/svg">
<path d="M12.0701 0.76001H6.07007V2.76001H12.0701V0.76001ZM8.07007 13.76H10.0701V7.76001H8.07007V13.76ZM16.1001 7.14001L17.5201 5.72001C17.0901 5.21001 16.6201 4.73001 16.1101 4.31001L14.6901 5.73001C13.1401 4.49001 11.1901 3.75001 9.07007 3.75001C4.10007 3.75001 0.0700684 7.78001 0.0700684 12.75C0.0700684 17.72 4.09007 21.75 9.07007 21.75C14.0501 21.75 18.0701 17.72 18.0701 12.75C18.0701 10.64 17.3301 8.69001 16.1001 7.14001ZM9.07007 19.76C5.20007 19.76 2.07007 16.63 2.07007 12.76C2.07007 8.89001 5.20007 5.76001 9.07007 5.76001C12.9401 5.76001 16.0701 8.89001 16.0701 12.76C16.0701 16.63 12.9401 19.76 9.07007 19.76Z" fill="#323232"/>
</svg>
