<svg width="240" height="326" viewBox="0 0 240 326" fill="none" xmlns="http://www.w3.org/2000/svg">
<path d="M64.792 129.672C63.292 129.574 53.5108 128.907 55.0056 129.011C54.5785 130.521 51.2608 142.297 51.6879 140.787C50.1931 141.089 31.4532 144.902 32.9478 144.6C32.8541 146.1 32.3541 154.063 32.4531 152.563L23 151.896V160.188C24.5 160.079 40.7547 158.923 39.2507 159.027C39.1309 157.527 38.3028 147.079 38.4226 148.579C39.9851 148.027 55.5732 142.558 54.0105 143.105C54.2449 141.605 56.2346 128.834 56.0002 130.339L64.792 129.672Z" fill="#D5454F"/>
<path d="M42.0896 105.498C40.5211 104.958 27.7358 100.552 29.3047 101.093C29.1636 99.0202 27.8192 79.246 27.9602 81.3185C26.4177 80.7101 17.1963 77.0623 18.7353 77.6745L20.3719 68.2001L12.2179 67.0835C12.1043 69.003 11.2211 84.0739 11.3312 82.1582C12.9724 82.603 24.6332 85.7743 22.9993 85.329C23.3742 87.2129 26.9915 105.462 26.6158 103.577C28.3082 103.942 42.547 106.979 40.8586 106.618L42.2501 117.939C42.2209 115.89 42.0638 103.453 42.0892 105.498L42.0896 105.498Z" fill="#D5454F"/>
<path d="M170.475 110.578C171.466 111.708 177.911 119.096 176.928 117.965C178.298 117.199 188.971 111.218 187.601 111.984C188.871 112.828 204.818 123.383 203.548 122.54C204.675 121.545 210.659 116.268 209.529 117.258L215.742 124.414L221.605 118.551C220.467 117.568 208.155 106.892 209.292 107.881C208.316 109.027 201.514 117 202.49 115.855C200.995 115.14 186.106 107.985 187.597 108.703C186.371 109.598 175.934 117.221 177.164 116.323L170.475 110.578Z" fill="#D5454F"/>
<path d="M68.3305 118.259V88.5231C63.8872 81.6874 61.4947 73.8262 61.4947 64.9397C61.4947 41.0146 80.9767 21.5327 104.902 21.5327C128.827 21.5327 148.309 41.0146 148.309 64.9397C148.309 73.8262 145.575 82.0292 141.131 88.8649V118.259C158.221 106.638 169.842 86.8142 169.842 64.598C169.842 29.052 140.79 0 105.244 0C69.6977 0 40.6457 29.052 40.6457 64.598C39.9621 87.156 51.2411 106.638 68.3305 118.259Z" fill="#D5454F"/>
<path d="M223.16 156.88C211.539 155.171 201.286 164.4 201.286 176.02V166.45C201.286 156.538 194.45 147.994 184.538 146.627C172.917 144.918 162.664 154.146 162.664 165.767V156.197C162.664 146.285 155.486 137.74 145.916 136.373C134.295 134.664 124.042 143.892 124.042 155.513V75.1929C124.042 64.5974 115.497 55.7109 104.56 55.7109C93.9642 55.7109 85.0777 64.2556 85.0777 75.1929V222.162C85.0777 224.212 82.0016 225.238 80.9762 223.187C73.7987 210.883 65.254 193.793 65.254 193.793C60.4689 184.223 49.1899 180.464 39.6199 185.249C30.0498 190.034 26.2901 201.313 31.0752 210.541C31.7587 211.566 48.5063 245.403 64.2286 267.62C84.3941 295.988 101.825 309.66 110.37 315.47C118.915 321.28 127.801 325.04 133.612 325.04C139.422 325.04 182.487 325.04 182.487 325.04C191.032 325.04 198.893 320.939 204.02 313.761L213.248 300.431C230.338 275.481 239.908 244.72 239.908 212.933V177.046C239.908 167.134 233.072 158.247 223.16 156.88Z" fill="#210809"/>
<path d="M194.433 76.3345C195.052 74.7951 200.094 62.2472 199.475 63.787C201.552 63.7501 221.369 63.4004 219.292 63.4372C219.977 61.9272 224.083 52.9006 223.395 54.4069L232.775 56.5171L234.3 48.4296C232.388 48.2196 217.381 46.5808 219.288 46.787C218.762 48.4037 215.009 59.8906 215.536 58.2811C213.635 58.561 195.228 61.2572 197.129 60.9766C196.68 62.6487 192.931 76.7169 193.376 75.0488L182 75.8701C184.048 75.9437 196.477 76.4114 194.433 76.334L194.433 76.3345Z" fill="#D5454F"/>
</svg>
