<svg width="471" height="716" viewBox="0 0 471 716" fill="none" xmlns="http://www.w3.org/2000/svg">
<path d="M306.253 445.907C302.373 449.938 302.821 454.271 301.175 459.198C293.389 483.756 249.716 469.928 235.32 492.948C269.831 499.854 268.482 488.833 323.424 528.193C349.086 546.594 352.455 543.313 361.206 554.474C363.841 546.047 362.45 550.032 365.685 536.704C376.294 536.704 378.268 536.204 381.065 537.001C385.096 517.886 387.19 495.339 388.534 473.235C388.685 467.86 388.982 462.334 389.133 456.959C363.487 449.204 322.002 429.074 306.253 445.907L306.253 445.907Z" fill="#D5454F"/>
<path d="M418.067 666.733C416.572 667.046 404.796 669.535 406.291 669.223C405.463 667.713 396.676 651.624 397.505 653.14C395.286 653.286 383.535 654.073 385.067 653.968L376.775 643.192C377.656 644.687 384.952 657.124 384.072 655.63C385.572 655.718 397.015 656.38 395.515 656.291C396.13 657.833 403.76 676.901 403.145 675.359C404.645 675.219 415.421 674.224 413.926 674.365C414.755 676.521 415.583 678.51 416.416 680.667L424.708 680.5C421.052 672.094 418.817 668.234 418.067 666.735L418.067 666.733Z" fill="#D5454F"/>
<path d="M421.881 555.293C420.365 555.965 399.469 565.252 400.985 564.58C401.563 566.132 404.714 574.59 404.136 573.038L387.552 581.497C389.109 580.924 408.51 573.793 406.953 574.366C406.573 572.84 404.583 564.882 404.964 566.408C406.464 565.944 430.01 558.647 428.51 559.111C428.37 557.616 427.375 547.168 427.515 548.663L434.151 546.173L431 538.543C429.5 539.283 418.057 544.918 419.557 544.179C419.87 545.679 422.193 556.788 421.88 555.293L421.881 555.293Z" fill="#D5454F"/>
<path d="M448.24 589.12C447.87 590.646 444.88 602.917 445.255 601.391H416.567C415.494 602.886 409.198 611.672 410.265 610.183L387.88 607.198C389.375 607.531 412.588 612.672 411.093 612.339C412.369 610.808 418.999 602.849 417.729 604.375C419.255 604.505 451.447 607.198 449.401 607.031C449.927 605.458 453.406 595.011 452.885 596.584L469.301 600.729L470.957 592.604C469.457 592.37 446.739 588.891 448.239 589.12H448.24Z" fill="#D5454F"/>
<path d="M443.76 626.76C443.099 628.281 437.625 640.885 438.286 639.364C436.776 638.687 414.223 628.572 415.734 629.25C415.297 630.76 411.651 643.364 412.088 641.854L395.339 633.562C396.834 634.479 414.412 645.26 412.918 644.343C413.543 642.812 418.022 631.864 417.397 633.401C418.892 634.255 442.105 647.521 440.61 646.666C441.438 645.156 447.407 634.208 446.579 635.723L460.011 643.849L463.99 636.552C462.49 635.817 442.255 626.031 443.761 626.76L443.76 626.76Z" fill="#D5454F"/>
<path d="M351.733 667.893C352.384 669.419 357.692 681.857 357.041 680.331C355.598 681.826 341.833 696.085 343.275 694.591C343.859 696.143 347.338 705.429 346.76 703.877L338.635 709.018L343.275 715.815C344.775 714.612 356.546 705.158 355.051 706.362C354.281 704.846 348.812 694.07 349.577 695.58C350.723 694.039 361.833 679.116 360.687 680.659C359.822 679.159 352.525 666.56 353.39 668.055L360.853 659.43C359.353 660.826 350.234 669.284 351.734 667.894L351.733 667.893Z" fill="#D5454F"/>
<path d="M348.587 643.347C347.087 643.248 337.306 642.581 338.8 642.685C338.373 644.196 335.056 655.972 335.483 654.461C333.988 654.763 315.248 658.576 316.743 658.274C316.649 659.774 316.149 667.737 316.248 666.237L306.795 665.571V673.862C308.295 673.753 324.55 672.597 323.046 672.701C322.926 671.201 322.098 660.753 322.217 662.253C323.78 661.701 339.368 656.232 337.805 656.779C338.04 655.279 340.029 642.508 339.795 644.013L348.587 643.347Z" fill="#D5454F"/>
<path d="M377.573 551.533C377.573 551.533 370.225 585.107 348.016 588.903C325.808 592.7 302.819 585.861 288.568 571.991C288.568 571.991 299.209 571.23 306.047 577.501C312.885 583.772 341.766 591.178 349.744 584.532C357.723 577.881 353.926 561.923 337.775 555.084C321.625 548.246 282.109 511.199 256.843 510.814C231.573 510.433 216.942 499.413 198.515 509.293C180.089 519.173 159.761 517.085 137.906 523.924C116.057 530.762 0.359375 560.163 0.359375 560.163V670.893C0.359375 670.893 130.573 600.862 162.759 608.696C194.947 616.524 235.691 638.565 247.577 648.42C282.181 677.117 294.17 640.331 354.754 626.769C362.952 624.936 373.295 620.04 375.718 607.124C379.869 584.984 393.942 551.536 377.562 551.536L377.573 551.533ZM330.943 565.221C330.943 565.221 333.552 559.107 339.438 561.492C345.328 563.878 350.469 567.831 350.615 570.737C351.771 593.264 330.812 578.654 330.937 575.284C331.016 573.274 329.453 570.737 330.943 565.221H330.943Z" fill="#210809"/>
<path d="M219.494 490.56C228.905 470.253 246.92 465.237 267.431 462.185C298.639 457.289 280.098 451.404 295.504 435.601C318.072 411.94 358.567 431.575 389.436 441.575C390.035 399.914 387.796 365.565 387.796 365.565C387.796 365.565 370.176 232.658 366.145 208.165C362.265 183.675 375.405 149.029 375.405 149.029C375.405 149.029 406.02 93.1793 406.613 69.7313C407.212 46.2886 386.452 40.0126 386.452 40.0126V39.2679C385.16 -7.23748 363.692 -8.08681 358.525 18.3612C358.077 20.0019 357.926 21.0487 357.926 21.1997C319.858 2.16906 323.609 18.1528 321.786 18.3612C308.046 13.5852 302.224 21.6476 299.833 26.8716C299.088 28.8143 298.786 30.4549 298.786 30.4549H297.739H297.588C281.76 30.7049 281.312 62.7096 279.817 62.7096C279.37 66.7408 279.219 69.5793 279.219 69.5793C269.51 85.8553 286.984 118.262 289.672 124.683C292.208 131.105 296.692 131.553 296.692 131.553C289.375 156.569 279.943 181.334 286.984 206.517C292.958 227.72 285.343 263.262 285.343 263.262L278.474 414.542C244.354 404.412 33.1671 158.729 14.9004 145.142V388.262L169.914 502.502C191.622 498.893 203.444 487.346 219.498 490.56L219.494 490.56Z" fill="#210809"/>
</svg>
