<svg width="26" height="26" viewBox="0 0 26 26" fill="none" xmlns="http://www.w3.org/2000/svg">
<path d="M13 0.525024C6.11252 0.525024 0.525024 6.11252 0.525024 13C0.525024 19.8875 6.11252 25.475 13 25.475C19.8875 25.475 25.475 19.8875 25.475 13C25.475 6.11252 19.8875 0.525024 13 0.525024ZM13 22.975C7.50002 22.975 3.02502 18.5 3.02502 13C3.02502 7.50002 7.50002 3.02502 13 3.02502C18.5 3.02502 22.975 7.50002 22.975 13C22.975 18.5 18.5 22.975 13 22.975ZM13.9375 4.25002L8.31252 14.875H12.2375V21.75L17.6875 11.125H13.9375V4.25002Z" fill="#D5454F"/>
</svg>
