<svg width="17" height="24" viewBox="0 0 17 24" fill="none" xmlns="http://www.w3.org/2000/svg">
<path d="M3.25244 0.363585C3.01362 0.415138 2.71111 0.621349 2.56782 0.844748C2.28124 1.30873 2.40861 1.65241 3.47534 3.35367C3.80969 3.88638 4.28733 4.76279 4.51022 5.29551C4.95602 6.36094 5.22668 8.31996 4.90826 8.31996C4.81273 8.31996 4.73312 8.25122 4.73312 8.18248C4.73312 7.87317 3.37981 6.60152 2.87033 6.41249C2.05834 6.13754 1.93097 6.36094 1.81952 8.21685C1.73991 9.52287 1.59662 10.1931 1.07122 11.6881C0.227388 14.0939 0.020411 15.5718 0.259231 17.4277C0.466208 19.1461 0.975691 20.2116 2.1061 21.3629C3.61863 22.9095 5.49735 23.6656 7.91739 23.6656C10.6718 23.7 12.5823 22.8923 14.3337 21.0192C16.085 19.1289 16.8333 16.9809 16.8333 13.8018C16.8333 7.44356 12.9167 2.23668 6.96211 0.707272C5.84762 0.432322 3.98482 0.260479 3.25244 0.363585ZM9.42991 11.5506C13.1555 14.5923 12.3913 20.5209 8.26766 20.5209C6.62776 20.5209 5.57695 19.7304 5.19484 18.2182C4.95602 17.3074 5.14708 16.5169 6.02275 14.7641L6.69145 13.4237L7.02579 13.8533C7.21685 14.0939 7.43975 14.4376 7.53528 14.6094C7.64673 14.7813 7.7741 14.8844 7.82186 14.8328C7.98107 14.661 8.23582 12.8051 8.23582 11.7912C8.23582 10.7086 8.36319 10.6742 9.42991 11.5506Z" fill="#EC6330"/>
</svg>
