<svg width="110" height="100" viewBox="0 0 110 100" fill="none" xmlns="http://www.w3.org/2000/svg">
<g clip-path="url(#clip0_1679_8071)">
<path d="M25.1161 94.0087C24.9915 94.0144 24.8682 93.9817 24.7628 93.915C24.6574 93.8483 24.5751 93.7508 24.527 93.6357C24.4789 93.5206 24.4673 93.3936 24.4938 93.2717C24.5204 93.1498 24.5837 93.039 24.6753 92.9544C24.6906 92.8934 24.7016 92.8496 24.717 92.7887C24.5977 92.4858 24.3908 92.2254 24.1226 92.0409C23.8544 91.8564 23.5372 91.7562 23.2117 91.7531C22.8862 91.75 22.5672 91.8442 22.2956 92.0237C22.024 92.2031 21.8121 92.4595 21.6872 92.7601C20.9663 94.4475 20.0332 96.1944 20.4973 98.053C17.4323 91.5572 18.4746 83.477 23.0042 77.9218C24.2563 77.2321 25.2711 76.0067 25.5353 74.5839C24.9156 74.7938 24.143 74.2898 24.6089 73.6371C24.8109 73.3876 25.0148 73.1402 25.2167 72.8907C22.8629 70.3839 20.0583 74.3237 22.6492 77.7071C21.8017 78.7697 21.0675 79.918 20.4588 81.1333C20.5994 79.8429 20.4316 78.5375 19.9692 77.3245C19.5006 76.1941 18.6223 75.242 17.8488 74.2647C16.9084 73.074 14.9729 73.6233 14.8464 75.1344C15.7143 75.4197 15.827 76.6733 14.8342 76.8449C15.0943 79.656 16.9308 82.2394 19.4602 83.4723C18.5261 86.0932 18.1614 88.883 18.3903 91.656C17.9438 88.4152 14.4651 87.6288 12.0336 86.3408C11.8789 86.2415 11.6986 86.1895 11.5147 86.1909C11.3309 86.1924 11.1515 86.2473 10.9983 86.3491C10.8452 86.4508 10.725 86.5948 10.6523 86.7637C10.5796 86.9326 10.5577 87.119 10.5892 87.3001C10.9248 87.4366 11.246 87.606 11.5481 87.806C11.6896 87.9011 11.7983 88.0378 11.8591 88.1971C11.92 88.3565 11.9301 88.5307 11.888 88.696C11.8459 88.8613 11.7538 89.0096 11.6241 89.1205C11.4945 89.2313 11.3338 89.2994 11.1639 89.3153C12.3896 92.3487 15.5583 94.3856 18.8127 94.3741C19.1255 95.7331 19.5786 97.056 20.1649 98.3214H24.9951C25.0124 98.2677 25.028 98.2123 25.0436 98.1586C24.5965 98.1868 24.1476 98.16 23.707 98.079C24.8899 96.6785 25.8047 95.964 25.1163 94.0088L25.1161 94.0087Z" fill="#F2F2F2"/>
<path d="M68.1789 94.0087C68.3035 94.0144 68.4268 93.9817 68.5322 93.915C68.6376 93.8483 68.7199 93.7508 68.768 93.6357C68.8161 93.5206 68.8277 93.3936 68.8012 93.2717C68.7747 93.1498 68.7113 93.039 68.6197 92.9544C68.6044 92.8934 68.5934 92.8496 68.5781 92.7887C68.6973 92.4858 68.9043 92.2254 69.1725 92.0409C69.4406 91.8564 69.7578 91.7562 70.0833 91.7531C70.4088 91.75 70.7278 91.8442 70.9994 92.0237C71.2711 92.2031 71.4829 92.4595 71.6078 92.7601C72.3288 94.4475 73.2618 96.1944 72.7978 98.053C75.8628 91.5572 74.8204 83.477 70.2908 77.9218C69.0388 77.2321 68.024 76.0067 67.7598 74.5839C68.3794 74.7938 69.152 74.2898 68.6861 73.6371C68.4841 73.3876 68.2802 73.1402 68.0783 72.8907C70.4321 70.3839 73.2367 74.3237 70.6458 77.7071C71.4934 78.7697 72.2275 79.918 72.8363 81.1333C72.6957 79.8429 72.8635 78.5375 73.3258 77.3245C73.7944 76.1941 74.6727 75.242 75.4462 74.2647C76.3866 73.074 78.3221 73.6233 78.4487 75.1344C77.5808 75.4197 77.468 76.6733 78.4608 76.8449C78.2008 79.656 76.3642 82.2394 73.8348 83.4723C74.7689 86.0932 75.1337 88.883 74.9047 91.656C75.3512 88.4152 78.8299 87.6288 81.2614 86.3408C81.4162 86.2415 81.5965 86.1895 81.7803 86.1909C81.9641 86.1924 82.1436 86.2473 82.2967 86.3491C82.4499 86.4508 82.5701 86.5948 82.6427 86.7637C82.7154 86.9326 82.7373 87.119 82.7059 87.3001C82.3703 87.4366 82.0491 87.606 81.747 87.806C81.6054 87.9011 81.4968 88.0378 81.4359 88.1971C81.375 88.3565 81.365 88.5307 81.407 88.696C81.4491 88.8613 81.5413 89.0096 81.6709 89.1205C81.8005 89.2313 81.9613 89.2994 82.1311 89.3153C80.9055 92.3487 77.7368 94.3856 74.4823 94.3741C74.1696 95.7331 73.7164 97.056 73.1302 98.3214H68.2999C68.2826 98.2677 68.267 98.2123 68.2514 98.1586C68.6985 98.1868 69.1474 98.16 69.588 98.079C68.4051 96.6785 67.4904 95.9639 68.1789 94.0087Z" fill="#F2F2F2"/>
<path d="M69.0502 16.905C68.4699 16.905 67.9026 16.733 67.4202 16.4106C66.9377 16.0882 66.5616 15.63 66.3395 15.0939C66.1175 14.5577 66.0594 13.9678 66.1726 13.3987C66.2858 12.8296 66.5652 12.3068 66.9756 11.8964C67.3859 11.4861 67.9087 11.2067 68.4778 11.0935C69.0469 10.9803 69.6368 11.0384 70.173 11.2604C70.7091 11.4825 71.1673 11.8586 71.4897 12.3411C71.8121 12.8235 71.9841 13.3908 71.9841 13.9711C71.9833 14.7489 71.6739 15.4947 71.1238 16.0447C70.5738 16.5948 69.828 16.9042 69.0502 16.905ZM69.0502 11.3738C68.5365 11.3738 68.0343 11.5261 67.6072 11.8115C67.1801 12.0969 66.8472 12.5026 66.6506 12.9771C66.454 13.4517 66.4026 13.974 66.5028 14.4778C66.603 14.9816 66.8504 15.4444 67.2136 15.8076C67.5769 16.1709 68.0397 16.4182 68.5435 16.5184C69.0473 16.6186 69.5695 16.5672 70.0441 16.3706C70.5187 16.1741 70.9243 15.8412 71.2097 15.414C71.4951 14.9869 71.6474 14.4848 71.6474 13.9711C71.6467 13.2825 71.3728 12.6223 70.8858 12.1354C70.3989 11.6485 69.7388 11.3746 69.0502 11.3738Z" fill="#E6E6E6"/>
<path d="M68.8433 15.0761C68.8374 15.0761 68.8315 15.0759 68.8256 15.0757C68.7735 15.0731 68.7226 15.0594 68.6763 15.0353C68.63 15.0113 68.5895 14.9775 68.5575 14.9364L68.0953 14.3422C68.0661 14.3047 68.0446 14.2618 68.032 14.2159C68.0194 14.1701 68.0159 14.1223 68.0218 14.0751C68.0277 14.028 68.0428 13.9824 68.0663 13.9411C68.0898 13.8998 68.1212 13.8635 68.1587 13.8343L68.1754 13.8214C68.2129 13.7922 68.2558 13.7707 68.3016 13.7581C68.3474 13.7454 68.3953 13.742 68.4425 13.7479C68.4897 13.7538 68.5352 13.7689 68.5765 13.7924C68.6178 13.8159 68.6541 13.8473 68.6833 13.8849C68.7066 13.9148 68.7362 13.9394 68.7699 13.9569C68.8036 13.9744 68.8407 13.9845 68.8787 13.9863C68.9166 13.9881 68.9545 13.9818 68.9898 13.9676C69.025 13.9535 69.0568 13.9319 69.083 13.9043L70.0214 12.9136C70.0874 12.8441 70.1784 12.8035 70.2743 12.8009C70.3702 12.7983 70.4632 12.8338 70.533 12.8997L70.5483 12.9144C70.5829 12.9471 70.6106 12.9862 70.63 13.0296C70.6493 13.073 70.66 13.1198 70.6612 13.1673C70.6625 13.2148 70.6544 13.2621 70.6374 13.3065C70.6204 13.3509 70.5949 13.3915 70.5622 13.426L69.1059 14.9631C69.0721 14.9988 69.0314 15.0272 68.9862 15.0467C68.9411 15.0661 68.8924 15.0761 68.8433 15.0761Z" fill="#E6E6E6"/>
<path d="M54.4037 52.4265C53.8234 52.4265 53.2562 52.2544 52.7737 51.9321C52.2912 51.6097 51.9151 51.1514 51.6931 50.6153C51.471 50.0792 51.4129 49.4893 51.5261 48.9202C51.6393 48.351 51.9187 47.8283 52.3291 47.4179C52.7394 47.0076 53.2622 46.7282 53.8313 46.615C54.4004 46.5018 54.9904 46.5599 55.5265 46.7819C56.0626 47.004 56.5208 47.38 56.8432 47.8625C57.1656 48.345 57.3376 48.9123 57.3376 49.4926C57.3368 50.2704 57.0274 51.0162 56.4774 51.5662C55.9273 52.1163 55.1816 52.4256 54.4037 52.4265ZM54.4037 46.8953C53.89 46.8953 53.3878 47.0476 52.9607 47.333C52.5336 47.6184 52.2007 48.024 52.0041 48.4986C51.8076 48.9732 51.7561 49.4954 51.8563 49.9993C51.9565 50.5031 52.2039 50.9659 52.5671 51.3291C52.9304 51.6923 53.3932 51.9397 53.897 52.0399C54.4008 52.1401 54.923 52.0887 55.3976 51.8921C55.8722 51.6955 56.2778 51.3626 56.5632 50.9355C56.8486 50.5084 57.0009 50.0062 57.0009 49.4926C57.0002 48.804 56.7263 48.1438 56.2394 47.6569C55.7525 47.17 55.0923 46.8961 54.4037 46.8953Z" fill="#E6E6E6"/>
<path d="M54.1968 50.5981C54.1909 50.5981 54.185 50.5979 54.1791 50.5976C54.127 50.5951 54.0761 50.5814 54.0298 50.5573C53.9835 50.5333 53.943 50.4995 53.911 50.4583L53.4488 49.8641C53.4196 49.8266 53.3981 49.7837 53.3855 49.7379C53.3729 49.6921 53.3695 49.6442 53.3753 49.5971C53.3812 49.5499 53.3964 49.5044 53.4198 49.4631C53.4433 49.4218 53.4747 49.3855 53.5123 49.3563L53.5289 49.3434C53.5664 49.3142 53.6093 49.2926 53.6551 49.28C53.701 49.2674 53.7488 49.264 53.796 49.2699C53.8432 49.2757 53.8887 49.2909 53.93 49.3144C53.9713 49.3379 54.0076 49.3693 54.0368 49.4068C54.0601 49.4368 54.0897 49.4614 54.1234 49.4789C54.1571 49.4964 54.1942 49.5064 54.2322 49.5083C54.2701 49.5101 54.308 49.5038 54.3433 49.4896C54.3785 49.4755 54.4103 49.4539 54.4365 49.4263L55.3749 48.4356C55.4409 48.366 55.5319 48.3255 55.6278 48.3229C55.7237 48.3203 55.8167 48.3558 55.8865 48.4217L55.9019 48.4364C55.9364 48.469 55.9641 48.5082 55.9835 48.5516C56.0028 48.595 56.0135 48.6418 56.0148 48.6893C56.016 48.7368 56.0079 48.7841 55.9909 48.8285C55.9739 48.8728 55.9484 48.9134 55.9157 48.9479L54.4594 50.4851C54.4256 50.5208 54.3849 50.5492 54.3397 50.5687C54.2946 50.5881 54.246 50.5981 54.1968 50.5981Z" fill="#E6E6E6"/>
<path d="M22.2489 12.8645C21.6686 12.8645 21.1014 12.6924 20.6189 12.3701C20.1364 12.0477 19.7603 11.5894 19.5383 11.0533C19.3162 10.5172 19.2581 9.92729 19.3713 9.35816C19.4845 8.78903 19.764 8.26624 20.1743 7.85592C20.5846 7.4456 21.1074 7.16617 21.6765 7.05296C22.2457 6.93975 22.8356 6.99785 23.3717 7.21992C23.9078 7.44198 24.366 7.81804 24.6884 8.30052C25.0108 8.78301 25.1829 9.35026 25.1829 9.93054C25.182 10.7084 24.8726 11.4542 24.3226 12.0042C23.7725 12.5543 23.0268 12.8636 22.2489 12.8645ZM22.2489 7.33329C21.7352 7.33329 21.2331 7.48561 20.8059 7.77101C20.3788 8.0564 20.0459 8.46203 19.8493 8.93662C19.6528 9.41121 19.6013 9.93343 19.7015 10.4372C19.8018 10.9411 20.0491 11.4039 20.4124 11.7671C20.7756 12.1303 21.2384 12.3777 21.7422 12.4779C22.246 12.5781 22.7682 12.5267 23.2428 12.3301C23.7174 12.1335 24.1231 11.8006 24.4085 11.3735C24.6938 10.9464 24.8462 10.4442 24.8462 9.93054C24.8454 9.24195 24.5715 8.58178 24.0846 8.09487C23.5977 7.60796 22.9375 7.33407 22.2489 7.33329Z" fill="#E6E6E6"/>
<path d="M22.042 11.0356C22.0361 11.0356 22.0302 11.0354 22.0243 11.0351C21.9722 11.0326 21.9213 11.0189 21.875 10.9948C21.8288 10.9708 21.7882 10.937 21.7562 10.8958L21.2941 10.3016C21.2649 10.2641 21.2433 10.2212 21.2307 10.1754C21.2181 10.1296 21.2147 10.0817 21.2206 10.0346C21.2265 9.98743 21.2416 9.94189 21.2651 9.90058C21.2886 9.85927 21.32 9.82299 21.3575 9.79382L21.3741 9.78087C21.4116 9.75167 21.4545 9.73014 21.5003 9.71753C21.5462 9.70491 21.594 9.70146 21.6412 9.70735C21.6884 9.71324 21.7339 9.72838 21.7752 9.75188C21.8166 9.77539 21.8528 9.80681 21.882 9.84434C21.9054 9.87432 21.9349 9.89889 21.9686 9.9164C22.0023 9.93391 22.0394 9.94392 22.0774 9.94577C22.1153 9.94762 22.1532 9.94125 22.1885 9.92711C22.2238 9.91296 22.2555 9.89137 22.2817 9.86381L23.2201 8.8731C23.2862 8.80353 23.3771 8.76299 23.473 8.76039C23.5689 8.75778 23.662 8.79332 23.7317 8.8592L23.7471 8.87387C23.7816 8.90655 23.8093 8.9457 23.8287 8.9891C23.8481 9.03249 23.8587 9.07928 23.86 9.12679C23.8613 9.17429 23.8532 9.22159 23.8362 9.26596C23.8192 9.31034 23.7936 9.35094 23.7609 9.38543L22.3046 10.9226C22.2708 10.9583 22.2301 10.9867 22.185 11.0062C22.1398 11.0256 22.0912 11.0356 22.042 11.0356Z" fill="#E6E6E6"/>
<path d="M45.7383 63.3355C38.9349 63.3355 31.1159 55.7856 24.1981 59.3727C3.25282 70.2336 6.13606 52.0596 0.118652 45.3005L0.316205 44.9043C6.95573 50.8577 15.2454 55.7015 24.2891 58.9118C32.4617 61.8133 40.6957 63.1576 48.0977 62.8029L48.1106 63.2791C47.3288 63.3168 46.5381 63.3356 45.7383 63.3355Z" fill="#F2F2F2"/>
<path d="M36.4055 12.29C37.1909 12.29 37.8276 11.4363 37.8276 10.3831C37.8276 9.32986 37.1909 8.47607 36.4055 8.47607C35.6201 8.47607 34.9834 9.32986 34.9834 10.3831C34.9834 11.4363 35.6201 12.29 36.4055 12.29Z" fill="#E6E6E6"/>
<path d="M52.831 42.0394C52.1808 42.4726 51.5154 41.4415 52.178 41.0275C52.8282 40.5944 53.4936 41.6254 52.831 42.0394Z" fill="#E6E6E6"/>
<path d="M49.0887 22.4796C50.1114 22.4796 50.9405 21.6505 50.9405 20.6277C50.9405 19.605 50.1114 18.7759 49.0887 18.7759C48.0659 18.7759 47.2368 19.605 47.2368 20.6277C47.2368 21.6505 48.0659 22.4796 49.0887 22.4796Z" fill="#FF6584"/>
<path opacity="0.3" d="M55.566 30.7759L66.1035 0L54.5326 30.4075C54.4754 30.4797 54.4362 30.5645 54.4183 30.6548C54.4004 30.7452 54.4043 30.8385 54.4296 30.927C54.455 31.0156 54.5011 31.0968 54.5641 31.164C54.6272 31.2311 54.7053 31.2823 54.7921 31.3132C54.8788 31.3442 54.9717 31.354 55.063 31.3418C55.1543 31.3297 55.2414 31.296 55.3171 31.2434C55.3927 31.1909 55.4548 31.1211 55.4981 31.0398C55.5413 30.9585 55.5646 30.868 55.566 30.7759Z" fill="#F0F0F0"/>
<path d="M44.9292 53.1186C45.9243 53.1186 46.7309 52.3119 46.7309 51.3169C46.7309 50.3218 45.9243 49.5151 44.9292 49.5151C43.9341 49.5151 43.1274 50.3218 43.1274 51.3169C43.1274 52.3119 43.9341 53.1186 44.9292 53.1186Z" fill="#F2F2F2"/>
<path d="M107.69 42.5185C102.267 46.6262 91.4757 45.3285 88.1268 52.3648C77.9874 73.6687 69.313 57.4403 60.4353 55.6853L60.3535 55.2501C69.2407 55.9872 78.7735 54.8435 87.9211 51.9425C96.1878 49.321 103.563 45.4213 109.25 40.6694L109.547 41.0414C108.947 41.5434 108.328 42.0358 107.69 42.5185Z" fill="#F2F2F2"/>
<path d="M84.7601 98.3156C84.6309 98.6983 10.8811 98.6982 10.7417 98.3166C10.8707 97.933 84.6205 97.933 84.7601 98.3156Z" fill="#CCCCCC"/>
<path d="M43.7209 67.1924C41.0971 67.1924 38.7964 69.9328 37.5277 74.025C37.438 74.3121 37.3539 74.6072 37.2753 74.9067C36.7411 77.0045 36.4757 79.1617 36.4856 81.3265C36.4856 89.1204 39.7308 95.4605 43.7209 95.4605C47.711 95.4605 50.9562 89.1204 50.9562 81.3265C50.9562 73.5325 47.711 67.1924 43.7209 67.1924ZM43.7209 95.2362C39.8554 95.2362 36.71 88.9959 36.71 81.3265C36.6996 79.1525 36.9684 76.9863 37.5098 74.8809C37.5838 74.5993 37.6631 74.3234 37.7476 74.053C38.9826 70.0742 41.1981 67.4167 43.7209 67.4167C47.5865 67.4167 50.7319 73.657 50.7319 81.3265C50.7319 88.9959 47.5865 95.2362 43.7209 95.2362Z" fill="#3F3D56"/>
<path d="M45.4596 89.4988C44.0757 89.4988 42.9917 85.9092 42.9917 81.3268C42.9917 76.7444 44.0757 73.1548 45.4596 73.1548C46.8434 73.1548 47.9274 76.7444 47.9274 81.3268C47.9274 85.9092 46.8434 89.4988 45.4596 89.4988ZM45.4596 73.3791C44.2435 73.3791 43.216 77.0187 43.216 81.3268C43.216 85.6349 44.2435 89.2745 45.4596 89.2745C46.6756 89.2745 47.7031 85.6349 47.7031 81.3268C47.7031 77.0187 46.6756 73.3791 45.4596 73.3791Z" fill="#3F3D56"/>
<path d="M45.7401 83.2036C46.2667 83.2036 46.6936 82.3633 46.6936 81.3267C46.6936 80.29 46.2667 79.4497 45.7401 79.4497C45.2135 79.4497 44.7866 80.29 44.7866 81.3267C44.7866 82.3633 45.2135 83.2036 45.7401 83.2036Z" fill="#CFCCE0"/>
<path d="M43.665 55.8627L59.033 55.8066V61.8611L43.665 62.4811V55.8627Z" fill="#3F3D56"/>
<path d="M30.5403 76.3972L30.3164 76.385L30.9953 64.0518H44.899V64.2761H31.2076L30.5403 76.3972Z" fill="#3F3D56"/>
<path d="M30.5173 96.3557L22.665 95.0096L22.7116 94.79L30.5639 96.1361L30.5173 96.3557Z" fill="#3F3D56"/>
<path d="M32.12 98.9384L32.1016 99.1621L41.6365 99.9473L41.6549 99.7236L32.12 98.9384Z" fill="#3F3D56"/>
<path d="M54.2376 76.409C54.1535 76.6793 54.0742 76.9553 53.9998 77.2369L53.7653 77.2627L46.4695 78.0737L29.7554 76.3911L47.1425 75.4937L54.0177 76.381L54.2376 76.409Z" fill="#3F3D56"/>
<path d="M50.4153 36.267C50.4153 36.267 47.9858 35.3993 46.424 38.87C44.8621 42.3408 42.4326 46.1586 42.4326 46.1586L43.8209 46.5057C43.8209 46.5057 44.168 44.0761 45.0357 43.7291L44.6886 46.8527C44.6886 46.8527 55.1008 50.497 59.7864 46.5057L59.6128 45.2909C59.6128 45.2909 60.307 45.4644 60.307 46.5057L60.8276 45.9851C60.8276 45.9851 60.307 44.9438 58.7451 43.5555C57.72 42.6443 57.3677 40.9107 57.2467 39.8269C57.156 38.9218 56.7939 38.0653 56.2079 37.3697C55.1699 36.1668 53.2787 34.8883 50.4153 36.267Z" fill="#2F2E41"/>
<path d="M36.9907 39.5415L35.9811 28.997C35.9811 28.997 33.9619 23.2761 36.9907 23.7248C40.0194 24.1735 38.2246 28.5483 38.2246 28.5483L39.9072 39.5415H36.9907Z" fill="#FFB9B9"/>
<path d="M29.1384 87.4399L28.0166 91.2539L30.1479 93.0487L31.7184 88.2252L29.1384 87.4399Z" fill="#FFB9B9"/>
<path d="M37.7756 90.2446L36.6538 94.2829L40.5799 96.7508C40.5799 96.7508 40.6921 92.1516 41.253 91.2542L37.7756 90.2446Z" fill="#FFB9B9"/>
<path d="M42.5995 68.7068L42.0387 69.8286C42.0387 69.8286 35.6447 66.912 33.962 70.9503C32.2794 74.9887 28.5776 87.7766 28.5776 87.7766L31.8307 89.1227L37.776 75.5495L51.3492 75.213L51.9101 67.6973L42.5995 68.7068Z" fill="#2F2E41"/>
<path d="M47.3105 70.6137C47.3105 70.6137 38.1122 68.7067 37.4391 73.3059C36.7661 77.905 37.7756 86.6547 37.8878 86.8791C38 87.1034 37.4391 91.2539 37.4391 91.2539L41.4774 91.8148C41.4774 91.8148 44.0575 79.5877 42.9357 76.4468L50.5255 75.9773C53.1454 75.8152 55.2857 73.7456 55.4364 71.125C55.494 70.1219 55.2429 69.2115 54.3776 68.7067C51.6854 67.1362 46.7497 67.1362 46.7497 67.1362L47.3105 70.6137Z" fill="#2F2E41"/>
<path d="M29.4746 91.1418C29.4746 91.1418 28.6893 89.4592 27.5676 90.2444C26.4458 91.0297 23.8658 92.7123 23.8658 92.7123C23.8658 92.7123 19.8747 94.1177 23.4171 95.068C26.568 95.9132 27.3432 95.741 27.3432 95.741C27.3432 95.741 29.9233 96.1897 30.2598 95.9654C30.5963 95.741 30.8207 92.1514 30.8207 92.1514C30.8207 92.1514 29.2502 91.8149 29.4746 91.1418Z" fill="#2F2E41"/>
<path d="M38.2242 94.6193C38.2242 94.6193 37.1024 93.0488 36.3172 93.7219C35.532 94.3949 32.7276 96.3019 32.7276 96.3019C32.7276 96.3019 28.0162 97.648 32.1667 98.8819C36.3172 100.116 40.9164 99.8915 41.0286 99.4428C41.1407 98.9941 40.8042 95.741 40.8042 95.741C40.8042 95.741 38.4485 95.6289 38.2242 94.6193Z" fill="#2F2E41"/>
<path d="M51.6853 47.3935C53.9156 47.3935 55.7236 45.5855 55.7236 43.3552C55.7236 41.1249 53.9156 39.3169 51.6853 39.3169C49.455 39.3169 47.647 41.1249 47.647 43.3552C47.647 45.5855 49.455 47.3935 51.6853 47.3935Z" fill="#FFB9B9"/>
<path d="M48.7688 45.1499C48.7688 45.1499 48.5445 49.7491 47.4227 50.0856C46.301 50.4221 43.1601 54.1239 44.6183 55.2457C46.0766 56.3674 54.4898 55.5822 54.4898 55.5822L53.7045 49.7491C53.7045 49.7491 51.9097 48.5152 53.368 46.3838L48.7688 45.1499Z" fill="#FFB9B9"/>
<path d="M48.6566 52.7783L47.8714 49.0765L45.2914 48.0669L43.16 53.0026C43.16 53.0026 40.7483 68.9876 41.4213 69.2119C41.799 69.3452 42.1993 69.4024 42.5991 69.3802C42.5991 69.3802 46.1888 68.2584 47.3105 68.8193C48.4323 69.3802 54.2654 69.8289 54.2654 69.8289C54.2654 69.8289 58.3037 67.6975 58.0793 65.7906C57.855 63.8836 58.0793 53.227 58.0793 53.227L57.5745 48.4595L53.1485 49.1519L48.6566 52.7783Z" fill="#CFCCE0"/>
<path d="M45.4037 48.6276L45.2915 47.9545L42.1506 44.1406L40.3558 37.7466L35.981 39.4292L39.1219 47.1693L43.6089 52.8902L45.4037 48.6276Z" fill="#CFCCE0"/>
<path d="M46.3801 43.8381C46.3801 43.8381 47.7684 41.9292 48.9831 41.5821C50.1979 41.235 50.3714 39.4996 50.3714 39.4996C50.3714 39.4996 53.4951 42.9704 55.404 43.1439C57.3129 43.3174 55.5776 38.979 55.5776 38.979L52.1068 38.1113L48.8096 38.4584L46.2065 40.1938L46.3801 43.8381Z" fill="#2F2E41"/>
<path d="M59.3696 69.7766L59.261 65.1736H48.8221L48.4885 77.516L48.2642 77.5098L48.6037 64.9492H59.478L59.4816 65.0576L59.5937 69.7689L59.3696 69.7766Z" fill="#3F3D56"/>
<path d="M59.1452 63.4907H58.9209V54.9282L62.5419 55.9794L62.4792 56.1949L59.1452 55.2269V63.4907Z" fill="#3F3D56"/>
<path d="M60.2107 69.5483C57.5869 69.5483 55.2862 72.2888 54.0175 76.3809C53.9277 76.6681 53.8436 76.9631 53.7651 77.2626C53.2308 79.3604 52.9654 81.5177 52.9754 83.6824C52.9754 91.4763 56.2206 97.8165 60.2107 97.8165C64.2007 97.8165 67.446 91.4763 67.446 83.6824C67.446 75.8885 64.2007 69.5483 60.2107 69.5483ZM60.2107 97.5921C56.3451 97.5921 53.1997 91.3518 53.1997 83.6824C53.1893 81.5085 53.4581 79.3423 53.9995 77.2368C54.0736 76.9553 54.1528 76.6793 54.2373 76.409C55.4724 72.4301 57.6878 69.7727 60.2107 69.7727C64.0762 69.7727 67.2216 76.013 67.2216 83.6824C67.2216 91.3518 64.0762 97.5921 60.2107 97.5921Z" fill="#3F3D56"/>
<path d="M61.9498 91.8543C60.5659 91.8543 59.4819 88.2647 59.4819 83.6823C59.4819 79.0999 60.5659 75.5103 61.9498 75.5103C63.3337 75.5103 64.4176 79.0999 64.4176 83.6823C64.4176 88.2647 63.3337 91.8543 61.9498 91.8543ZM61.9498 75.7346C60.7337 75.7346 59.7063 79.3742 59.7063 83.6823C59.7063 87.9904 60.7337 91.63 61.9498 91.63C63.1659 91.63 64.1933 87.9904 64.1933 83.6823C64.1933 79.3742 63.1659 75.7346 61.9498 75.7346Z" fill="#3F3D56"/>
<path d="M62.2299 85.5591C62.7565 85.5591 63.1833 84.7187 63.1833 83.6821C63.1833 82.6455 62.7565 81.8052 62.2299 81.8052C61.7033 81.8052 61.2764 82.6455 61.2764 83.6821C61.2764 84.7187 61.7033 85.5591 62.2299 85.5591Z" fill="#CFCCE0"/>
<path d="M60.7153 54.7412L63.071 55.6386L62.6223 56.8725L60.7153 56.0873V54.7412Z" fill="#3F3D56"/>
<path d="M51.4048 64.3882V66.183H58.0883V64.5074L51.4048 64.3882Z" fill="#3F3D56"/>
<path d="M34.2422 63.4907V65.2855H40.9257V63.61L34.2422 63.4907Z" fill="#3F3D56"/>
<path d="M46.4692 59.1356H46.4147V57.6419C46.4147 57.5283 46.3924 57.4159 46.3489 57.311C46.3055 57.2061 46.2418 57.1108 46.1615 57.0306C46.0812 56.9503 45.9859 56.8866 45.881 56.8432C45.7761 56.7997 45.6637 56.7773 45.5502 56.7773H42.3855C42.272 56.7773 42.1596 56.7997 42.0547 56.8432C41.9498 56.8866 41.8545 56.9503 41.7742 57.0306C41.6939 57.1108 41.6303 57.2061 41.5868 57.311C41.5434 57.4159 41.521 57.5283 41.521 57.6419V65.8366C41.521 65.9501 41.5434 66.0625 41.5868 66.1674C41.6303 66.2723 41.6939 66.3676 41.7742 66.4479C41.8545 66.5282 41.9498 66.5919 42.0547 66.6353C42.1596 66.6787 42.272 66.7011 42.3855 66.7011H45.5502C45.6637 66.7011 45.7761 66.6787 45.881 66.6353C45.9859 66.5919 46.0812 66.5282 46.1615 66.4479C46.2418 66.3676 46.3055 66.2723 46.3489 66.1674C46.3924 66.0625 46.4147 65.9501 46.4147 65.8366V60.1989H46.4692V59.1356Z" fill="#3F3D56"/>
<path d="M43.9954 59.8526C44.2878 59.8526 44.5249 59.6155 44.5249 59.323C44.5249 59.0305 44.2878 58.7935 43.9954 58.7935C43.7029 58.7935 43.4658 59.0305 43.4658 59.323C43.4658 59.6155 43.7029 59.8526 43.9954 59.8526Z" fill="#D0CDE1"/>
<path d="M57.4153 64.4961L46.8245 64.2969C46.8245 64.2969 40.9107 65.6506 41.7017 62.6928C42.4928 59.735 46.6345 62.0168 46.6345 62.0168L57.7478 61.5985L57.4153 64.4961Z" fill="#FFB9B9"/>
<path d="M56.341 49.2447L57.3505 48.4595C57.3505 48.4595 59.0332 47.5621 59.3697 50.703C59.7062 53.8439 62.1741 64.2762 59.7062 64.3884C57.2384 64.5005 50.9565 64.6127 50.9565 64.6127L51.6296 61.1353L56.7897 60.7988L56.341 49.2447Z" fill="#CFCCE0"/>
<path opacity="0.15" d="M56.677 54.0679L56.3405 60.4619L51.4048 61.4714L55.8918 59.6766L56.677 54.0679Z" fill="black"/>
</g>
<defs>
<clipPath id="clip0_1679_8071">
<rect width="109.596" height="100" fill="white"/>
</clipPath>
</defs>
</svg>
