<svg width="718" height="556" viewBox="0 0 718 556" fill="none" xmlns="http://www.w3.org/2000/svg">
<path d="M468.866 228.77C448.407 227.13 464.387 207.864 464.387 207.864C464.387 207.864 625.52 208.161 658.52 193.828C686.447 181.583 686.296 172.025 658.52 145.89C630.895 119.906 462.293 140.963 420.333 144.547C382.927 147.844 342.328 130.407 322.369 123.64C326.125 111.114 385.885 94.9948 425.411 62.4108C462.296 32.6921 455.275 12.0881 441.687 4.61875C413.312 -11.0639 362.389 16.7125 309.827 35.3788C181.608 81.3268 163.96 174.859 94.4935 194.112C92.9779 194.529 -5.75186 221.752 0.264137 220.096V442.456C52.0668 425.139 107.952 382.607 196.637 397.653C274.591 410.794 383.011 414.232 389.877 413.632C399.018 412.752 490.241 433.643 535.931 441.257C589.54 450.664 602.535 441.408 609.103 422.741C618.306 396.965 518.051 386.668 428.703 355.392C422.88 353.449 441.547 345.986 441.547 345.986C441.547 345.986 565.192 359.574 589.533 363.756C614.023 368.085 677.195 371.97 687.049 348.376C696.903 324.631 662.856 319.106 662.856 319.106C662.856 319.106 471.709 293.57 460.949 292.824C450.048 292.08 458.413 285.658 458.413 285.658C458.413 285.658 575.787 294.168 626.119 294.767C676.442 295.366 707.359 301.934 716.765 264.303C726.166 226.522 489.325 230.251 468.858 228.762L468.866 228.77Z" fill="#210809"/>
<path d="M359.399 527.73C357.873 528.105 340.847 532.288 342.373 531.913L335.654 502.497L335.206 501.002L333.862 501.45L319.674 506.825L315.044 483.231L318.33 508.023L318.481 508.919L319.377 508.622L333.263 504.44C333.502 505.94 338.987 539.894 338.637 537.743C340.132 537.477 356.111 534.639 354.616 534.91L357.455 555.816L364.772 554.472C364.47 552.962 359.064 526.06 359.397 527.732L359.399 527.73Z" fill="#D5454F"/>
<path d="M401.506 502.797C399.985 503.464 385.355 509.886 386.87 509.219L364.619 480.396L364.172 479.797H363.573L350.281 480.094L335.797 455.006L349.089 481.438L349.24 481.886H349.839L362.828 482.485C363.859 484.011 386.516 517.455 385.079 515.34C386.631 514.762 400.219 509.684 398.667 510.262L408.224 530.871L414.797 527.439C413.99 525.944 400.661 501.236 401.505 502.799L401.506 502.797Z" fill="#D5454F"/>
<path d="M246.053 466.65C243.548 471.343 237.017 483.572 237.839 482.03C236.308 481.911 210.99 479.963 212.599 480.088C211.704 481.583 204.985 492.78 205.881 491.286L193.485 486.957L191.245 494.124C192.766 494.51 210.39 498.989 208.865 498.603C209.605 497.103 216.329 483.515 215.584 485.015H239.625L239.922 484.12L246.792 467.989L261.579 468.885L246.344 466.796L246.053 466.65Z" fill="#D5454F"/>
<path d="M425.106 438.877C423.773 440.377 414.216 451.127 415.549 449.627L390.909 436.19L389.565 435.445L388.966 436.492L383.44 445.153L361.638 434.403L383.288 447.247L384.033 447.695L384.632 446.95L390.606 439.336C392.101 440.325 418.262 457.612 416.59 456.508C418.085 455.034 427.793 445.476 426.298 446.95L434.96 452.18L438.543 445.607C437.048 444.851 423.611 438.133 425.106 438.877L425.106 438.877Z" fill="#D5454F"/>
<path d="M286.52 522.651L295.926 501.744L296.374 500.848L295.775 500.249L286.067 488.9L290.546 472.176L284.421 488.9L284.275 489.197L284.572 489.645L292.936 501.145C292.098 502.65 279.556 525.197 280.395 523.692C281.853 525.197 291.561 535.202 290.103 533.697C288.311 536.681 286.817 539.52 285.176 542.509L289.806 548.332C295.634 537.707 296.379 535.416 297.869 532.354C296.358 531.062 285.009 521.359 286.52 522.651H286.52Z" fill="#D5454F"/>
<path d="M260.986 433.957L260.539 434.108L246.351 440.233C244.856 439.025 226.189 423.941 227.684 425.151C226.189 426.224 217.679 432.348 219.174 431.276L211.408 420.526L205.585 425.156C206.897 426.656 219.59 441.14 218.278 439.64C219.778 438.327 229.335 429.968 227.835 431.275L245.308 442.775L246.053 443.223L246.652 442.926L260.688 435.312L268.157 443.973L261.136 434.265L260.986 433.957Z" fill="#D5454F"/>
</svg>
