<svg width="347" height="352" viewBox="0 0 347 352" fill="none" xmlns="http://www.w3.org/2000/svg">
<path d="M242.717 209.047C244.772 209.39 246.827 207.678 247.169 205.623C247.169 205.28 247.169 204.938 247.512 204.595C247.854 202.541 247.169 200.486 245.115 199.458H244.772L242.032 198.089L240.32 196.719C232.443 190.554 229.704 180.28 233.128 171.034C234.498 167.267 236.895 163.842 239.978 161.445C241.69 160.075 242.032 157.678 241.005 155.965C241.005 155.623 240.662 155.28 240.662 155.28C239.635 153.568 237.238 152.541 235.525 153.226H235.183C227.991 155.623 219.772 154.595 213.608 149.801C208.471 145.691 205.388 139.527 205.046 132.678C205.046 131.65 205.046 130.965 205.046 129.938C205.388 127.883 204.019 125.486 201.964 125.143C201.621 125.143 201.279 125.143 200.936 124.801C198.882 124.458 196.827 125.143 195.799 127.198V127.541C193.06 133.705 187.238 138.5 180.731 139.869C174.224 141.239 167.032 139.869 161.895 135.76C160.525 134.732 159.498 133.705 158.471 132.335C157.101 130.623 154.704 130.28 152.991 131.308C152.649 131.65 152.306 131.65 151.964 131.993C150.252 133.02 149.224 135.417 149.909 137.472C153.334 147.061 150.251 157.678 142.032 163.5C137.58 166.924 131.758 168.294 126.621 167.609C124.567 167.267 122.512 168.637 122.169 170.691C122.169 171.034 121.827 171.376 121.827 171.719C121.484 173.773 122.512 175.828 124.224 176.513H124.567L127.306 177.883L129.019 179.253C136.895 185.417 139.635 195.691 136.21 204.938C134.841 208.705 132.443 212.13 129.361 214.527C127.649 215.897 127.306 218.294 128.334 220.006C128.334 220.349 128.676 220.691 128.676 220.691C129.704 222.404 132.101 223.431 134.156 222.746C141.69 220.006 149.567 221.376 155.388 226.171C160.868 230.28 163.95 236.445 164.293 243.294C164.293 244.321 164.293 245.006 164.293 246.034C163.95 248.089 165.32 250.143 167.375 250.828C167.717 250.828 168.06 251.171 168.402 251.171C170.457 251.856 172.512 250.486 173.539 248.773C176.621 242.267 182.101 237.815 188.608 236.445C195.115 234.732 202.306 236.102 207.786 240.554C209.156 241.582 210.183 242.609 211.21 243.979C212.58 245.691 214.978 246.034 216.69 245.006C217.032 245.006 217.375 244.664 217.375 244.664C219.087 243.637 220.115 241.239 219.43 239.184C216.005 229.595 219.087 219.321 227.306 213.5C231.758 210.075 237.238 208.705 242.717 209.047Z" fill="#210809"/>
<path d="M230.389 135.418L324.225 101.171C326.279 100.486 326.622 97.7466 324.91 96.3767L305.389 81.3082L345.457 58.0205C347.17 56.9931 347.17 54.5959 345.8 53.5685L310.868 26.5137C309.841 25.8288 308.471 25.8288 307.444 26.5137L248.197 72.4041C246.827 73.4315 246.827 75.4863 248.197 76.8562L269.43 93.2945L227.649 130.966C225.252 132.678 227.307 136.445 230.389 135.418Z" fill="#210809"/>
<path d="M68.4022 124.802C69.4296 126.172 71.8268 126.172 72.8542 124.802L89.2926 103.569L126.964 145.35C129.019 147.747 132.786 145.35 131.758 142.61L97.5117 48.7744C96.8268 46.7196 94.0871 46.3772 92.7172 48.0895L77.6487 67.6101L54.0186 27.5416C52.9912 25.8292 50.5939 25.8292 49.5665 27.1991L22.5117 62.1306C21.8268 63.158 21.8268 64.5279 22.5117 65.5553L68.4022 124.802Z" fill="#210809"/>
<path d="M138.608 241.584L44.7725 275.83C42.7177 276.515 42.3752 279.255 44.0876 280.625L63.6081 295.693L23.5396 318.981C21.8273 320.009 21.8273 322.406 23.1971 323.433L58.1287 350.488C59.1561 351.173 60.5259 351.173 61.5533 350.488L120.8 304.598C122.17 303.57 122.17 301.515 120.8 300.146L99.567 283.707L141.348 246.036C143.745 244.324 141.69 240.556 138.608 241.584Z" fill="#210809"/>
<path d="M300.594 252.199C299.567 250.83 297.512 250.83 296.142 252.199L279.704 273.432L242.033 231.652C239.978 229.254 236.211 231.652 237.238 234.391L271.485 328.227C272.17 330.282 274.909 330.624 276.279 328.912L291.348 309.391L314.978 349.46C316.005 351.172 318.402 351.172 319.43 349.802L346.485 314.871C347.17 313.843 347.17 312.473 346.485 311.446L300.594 252.199Z" fill="#210809"/>
<path d="M174.808 81.288H194.904V101H174.808V81.288ZM194.264 34.184L189.272 73.608H180.184L175.32 34.184V9.60799H194.264V34.184Z" fill="#D5454F"/>
<path d="M311.667 207.521L298.264 188.922L297.712 188.086L296.894 188.305L282.212 191.038L269.968 178.797L281.389 192.464L281.573 192.738L282.109 192.705L296.251 191.211C297.135 192.69 310.39 214.825 309.506 213.346C311.539 212.836 325.057 209.43 323.025 209.941C324.713 212.985 326.424 215.699 328.193 218.614L335.551 217.516C329.264 207.156 327.651 205.365 325.744 202.544C323.871 203.206 309.793 208.183 311.667 207.521L311.667 207.521Z" fill="#D5454F"/>
<path d="M180.163 325.474L189.569 304.568L190.017 303.672L189.418 303.073L179.71 291.724L184.189 275L178.064 291.724L177.918 292.021L178.215 292.469L186.58 303.969C185.741 305.474 173.2 328.021 174.038 326.515C175.497 328.021 185.205 338.026 183.747 336.521C181.955 339.505 180.46 342.344 178.819 345.333L183.45 351.156C189.278 340.531 190.023 338.239 191.512 335.177C190.002 333.886 178.653 324.183 180.163 325.474H180.163Z" fill="#D5454F"/>
<path d="M21.1862 173.697C22.4328 172.6 34.4227 162.04 33.1819 163.135L63.1325 183.842L63.7411 184.277L64.3118 184.095L76.886 179.777L98.3027 199.284L77.6141 178.135L77.3342 177.754L76.7635 177.936L64.2051 181.308C62.7592 180.167 31.019 155.181 33.0305 156.759C31.7271 157.781 20.3221 166.745 21.6254 165.723L6.26247 148.987L1.04172 154.253C2.26471 155.432 22.4652 174.928 21.1864 173.695L21.1862 173.697Z" fill="#D5454F"/>
</svg>
