<svg width="716" height="641" viewBox="0 0 716 641" fill="none" xmlns="http://www.w3.org/2000/svg">
<path d="M168.454 171.926L168.225 173.322L166.465 184.041C164.97 184.015 130.287 183.384 132.491 183.426C132.049 184.936 127.455 200.645 127.898 199.139L117.783 199.243L118.643 211.207C120.148 211.004 137.768 208.639 136.263 208.843C136.507 207.343 139.346 190.097 139.096 191.597C140.622 191.457 172.732 188.472 170.689 188.665C170.757 187.165 171.413 173.296 171.34 174.796L197.048 170.988L169.668 171.889L168.454 171.926Z" fill="#D5454F"/>
<path d="M124.655 130.686C125.624 129.181 136.16 112.822 135.191 114.326C136.686 114.894 173.894 129.05 171.587 128.17C173.129 127.024 185.833 117.576 184.29 118.722L211.03 133.654C209.53 132.633 182.489 114.233 184.213 115.404C182.713 116.32 169.629 124.315 171.125 123.398C169.619 122.664 130.046 103.372 132.578 104.601C131.39 106.111 121.094 119.257 122.281 117.742L104.25 104.288L97.5107 114.137C99.0159 115.07 126.391 131.741 124.656 130.684L124.655 130.686Z" fill="#D5454F"/>
<path d="M289.934 64.4633L290.502 64.2238L290.533 63.4633L290.731 43.9167C292.231 43.0886 317.789 28.9633 316.158 29.8647C316.247 28.3647 317.158 13.2447 317.064 14.7447L330.591 11.3697L326.955 0C325.408 0.593747 305.742 8.12507 307.289 7.5312C307.367 9.0312 308.284 27.0365 308.205 25.5365C306.711 26.6147 284.612 42.5525 286.107 41.4739C286.263 42.9687 288.508 64.5472 288.352 63.0525L274.352 71.9484L289.934 64.4633Z" fill="#D5454F"/>
<path d="M151.175 79.0926C152.508 77.5926 166.481 61.8953 165.148 63.3953C166.486 64.8901 189.445 90.562 187.987 88.9366C189.054 87.4418 200.674 71.2126 199.606 72.7073L216.2 92.2913C215.168 90.7965 198.601 66.7806 199.658 68.3126C198.361 69.823 186.638 83.5006 187.934 81.9846C186.794 80.4377 164.32 50.0366 165.737 51.954C164.242 53.3446 150.68 65.954 152.18 64.5581L140.013 47.1421L130.586 54.4025C131.862 55.9285 152.45 80.6212 151.174 79.0958L151.175 79.0926Z" fill="#D5454F"/>
<path d="M205.588 33.4779C207.094 33.6758 223.162 35.7957 221.656 35.5977C221.792 37.1237 224.255 64.8897 224.11 63.191C225.61 63.6493 241.834 68.6181 240.334 68.1598L245.094 87.5198C244.917 86.025 242.427 64.7905 242.604 66.2851C241.089 65.6132 227.083 59.3789 228.599 60.0559C228.646 58.5455 229.594 27.0453 229.531 29.0453C228.01 28.6494 213.963 24.9931 215.485 25.389C215.677 21.8786 215.724 18.389 215.771 14.9046L204.651 10.6338C204.594 19.7171 205.052 24.4405 205.589 33.4778L205.588 33.4779Z" fill="#D5454F"/>
<path d="M324.628 86.5928C323.123 86.6032 300.169 86.7959 301.669 86.7855C300.862 88.2803 291.424 105.827 292.227 104.332L280.805 101.014C282.32 101.691 294.534 107.15 293.023 106.473C294.091 104.978 304.966 89.7755 303.898 91.2701C305.419 91.4629 331.284 94.7649 329.68 94.5565C330.378 93.0513 335.43 82.1087 334.737 83.6139L346.315 88.8743L350.414 77.6295C348.909 77.1868 327.633 70.9055 329.143 71.3483C329.143 71.3483 324.185 88.1029 324.628 86.5936V86.5928Z" fill="#D5454F"/>
<path d="M312.842 190.166C281.076 174.051 279.206 193.515 273.42 205.098C264.78 222.385 251.103 241.103 254.603 275.734C257.739 305.75 274.91 334.125 300.3 350.551C322.639 364.697 359.118 363.947 365.858 358.02C382.238 344.608 380.894 294.271 380.046 282.608C373.145 295.645 358.499 334.332 335.243 336.218L333.602 336.369C327.029 336.369 321.358 333.233 317.92 327.707C317.175 326.514 315.977 324.421 315.232 320.837C311.649 322.78 307.618 323.973 303.435 323.973C300.003 323.973 296.717 323.228 293.581 321.733C288.951 319.494 285.519 315.759 283.873 310.983C281.185 303.369 283.576 295.005 285.514 290.077C268.612 289.134 258.139 272.879 278.941 243.483C265.066 224.962 295.514 203.499 312.842 190.166L312.842 190.166Z" fill="#D5454F"/>
<path d="M712.695 87.7793C702.242 70.306 703.434 61.05 681.783 64.186C660.132 67.3215 612.195 64.7849 545.436 82.4047C424.958 114.139 423.54 121.498 375.65 159.159C330.972 194.279 260.707 243.81 304.567 235.618C304.567 235.618 273.655 269.665 284.405 274.743C294.411 279.525 325.619 245.921 329.353 242.041C305.728 285.243 291.198 304.067 299.938 308.197C305.312 310.733 310.391 307.749 321.74 295.952C332.344 284.754 348.771 259.515 350.86 256.379L337.423 292.217C337.423 292.217 322.787 322.233 334.136 321.337C353.33 319.822 365.391 261.353 395.215 238.16C400.444 234.129 405.965 231.441 411.642 230.993C411.642 230.993 409.699 235.472 407.459 242.045C401.189 259.816 392.528 293.567 413.73 299.239C413.73 299.239 420.001 303.119 421.944 283.556C423.288 269.52 429.111 258.02 432.397 252.493C433.892 250.254 434.788 248.91 434.788 248.91C434.788 248.91 448.225 220.087 450.168 203.962C450.168 203.811 450.168 203.665 450.319 203.514C452.558 185.593 464.059 170.211 480.037 161.853C504.381 149.009 545.147 130.342 575.011 130.79C579.792 130.941 582.776 136.019 580.537 140.196C544.953 205.608 532.963 220.592 460.766 252.784C437.646 263.092 436.178 286.492 436.797 284.998C434.406 309.342 423.656 314.414 414.994 314.414H410.812L408.275 313.221C403.046 311.58 398.718 308.742 395.135 305.007C393.676 342.101 388.926 376.538 351.828 376.538C327.771 376.184 314.359 377.215 292.093 363.101C244.891 332.278 221.749 268.689 255.505 207.194C263.979 191.106 272.016 148.902 325.396 180.163C335.849 171.653 350.636 159.857 365.12 148.507H255.808C257.152 180.466 222.657 237.81 222.657 237.81C201.455 242.138 158.147 264.987 158.147 264.987C67.0533 274.154 70.6987 376.815 48.6827 426.561C18.5573 495.233 5.844 603.161 0 641.001H82.584L130.22 472.107C140.673 513.471 147.247 641.001 147.247 641.001H469.06C469.06 641.001 475.779 513.47 486.087 472.107L528.051 318.441L528.947 315.154V315.149C572.359 278.982 741.573 136.029 712.707 87.7624L712.695 87.7793ZM296.535 232.926C292.332 233.28 292.493 226.968 296.478 225.541C299.009 224.634 301.42 228.124 300.774 229.915C300.535 230.577 298.014 232.801 296.535 232.926L296.535 232.926ZM283.998 265.353C284.087 264.186 284.347 263.847 285.056 263.222C288.78 259.967 291.712 256.707 294.248 260.941C300.837 271.915 282.853 280.119 283.998 265.353H283.998ZM308.108 301.322C306.556 303.515 305.472 306.181 300.202 304.28C295.905 302.728 301.556 290.092 305.379 292.952C308.186 295.051 309.123 295.124 308.978 298.713C308.962 299.207 308.806 300.332 308.108 301.322H308.108ZM335.02 315.243C328.119 314.988 333.15 305.223 334.817 304.967C335.645 304.842 338.452 306.483 338.728 307.837C339.134 309.785 337.598 315.342 335.02 315.243H335.02ZM410.582 292.41C408.489 288.103 408.775 289.493 408.796 283.847C408.806 282.045 409.166 281.196 411.213 280.754C426.639 277.41 418.02 307.707 410.582 292.41H410.582Z" fill="#210809"/>
</svg>
