<svg width="440" height="486" viewBox="0 0 440 486" fill="none" xmlns="http://www.w3.org/2000/svg">
<path d="M439.466 432.106C439.286 426.122 434.066 421.511 428.076 421.511H401.106L432.533 390.091C435.326 387.298 435.734 382.711 433.092 379.778C430.275 376.65 425.448 376.553 422.51 379.491L381.794 420.192C353.524 415.474 328.325 398.317 313.758 373.089L242.719 250.07C234.019 234.999 235.688 215.745 247.663 203.117C253.209 197.265 260.586 193.052 269.276 191.559C275.465 190.493 293.701 190.109 295.536 190.075L336.295 230.825C337.721 232.246 339.584 232.961 341.448 232.961C343.204 232.961 344.961 232.333 346.343 231.073C349.457 228.247 349.291 223.207 346.314 220.235L316.147 190.075H340.718C344.528 190.075 347.929 187.293 348.289 183.503C348.703 179.154 345.297 175.496 341.034 175.496H315.271L346.309 144.465C349.102 141.673 349.51 137.086 346.868 134.152C344.051 131.024 339.224 130.927 336.286 133.865L294.645 175.491C294.645 175.491 275.562 173.429 269.261 172.319C246.699 168.345 231.324 141.838 238.549 119.14C242.262 107.49 260.873 75.6123 260.873 75.6123L300.406 66.501C304.124 65.6448 306.814 62.1667 306.318 58.3869C305.744 54.0575 301.593 51.2701 297.448 52.2235L261.608 60.4835L253.346 24.6513C252.329 20.2343 247.483 17.695 243.133 19.6895C239.975 21.1391 238.403 24.7437 239.182 28.1294L248.388 68.0722C248.388 68.0722 232.341 97.4784 221.88 109.528C205.731 128.13 175.724 128.864 160.461 109.528C156.403 104.386 145.397 88.0996 145.397 88.0996L156.748 28.4116C157.497 24.4567 154.904 20.6429 150.948 19.8889C146.988 19.1398 143.173 21.7326 142.424 25.6874L134.235 68.763L114.315 34.2685C112.237 30.6687 107.556 29.511 104.024 31.8022C100.71 33.9523 99.9174 38.4909 101.893 41.9107L122.012 76.7506L79.2968 68.6317C75.122 67.8387 71.0787 70.7866 70.6748 75.1356C70.3196 78.9299 73.1515 82.301 76.8931 83.0161L131.641 93.4214C131.641 93.4214 141.149 112.544 143.805 119.14C153.289 142.69 136.123 175.491 97.4456 175.491C81.4328 175.491 51.6745 175.491 51.6745 175.491L20.8993 144.723C17.6977 141.527 12.2628 141.921 9.62072 145.91C7.69879 148.809 8.26807 152.715 10.7301 155.172L36.5959 181.032L10.8663 206.756C7.90801 209.742 7.75231 214.777 10.8663 217.604C12.253 218.859 14.0047 219.491 15.7612 219.491C17.6247 219.491 19.4931 218.781 20.9139 217.355L48.2004 190.08C48.2004 190.08 89.5049 190.08 105.771 190.08C133.101 190.08 151.936 222.103 143.82 244.748C138.692 259.054 115.458 298.52 115.458 298.52L75.847 307.165C72.1297 307.977 69.4049 311.421 69.8574 315.196C70.378 319.53 74.4749 322.381 78.6545 321.471L114.587 313.63L122.431 349.554C123.175 352.964 126.192 355.29 129.549 355.29C130.065 355.29 130.586 355.236 131.111 355.119C135.042 354.263 137.539 350.376 136.677 346.446L127.88 306.153C127.88 306.153 150.389 265.865 160.48 254.36C161.006 253.762 161.546 253.178 162.1 252.619C180.201 234.255 211.141 239.124 224.035 261.453L294.816 384.025C313.115 415.712 345.097 436.999 380.787 442.156L422.51 483.869C423.94 485.29 425.804 486 427.672 486C429.424 486 431.18 485.372 432.567 484.113C435.681 481.286 435.515 476.242 432.543 473.27L402.643 443.377H428.538C434.688 443.377 439.656 438.298 439.466 432.106ZM295.171 175.496H295.064C295.171 175.423 295.215 175.418 295.171 175.496ZM183.373 194.118C170.459 194.118 159.989 183.649 159.989 170.738C159.989 157.828 170.459 147.359 183.373 147.359C196.286 147.359 206.757 157.828 206.757 170.738C206.757 183.649 196.286 194.118 183.373 194.118Z" fill="#210809"/>
<path d="M193.637 338.474L203.043 317.568L203.491 316.672L202.892 316.073L193.184 304.724L197.663 288L191.538 304.724L191.392 305.021L191.689 305.469L200.054 316.969C199.215 318.474 186.673 341.021 187.512 339.515C188.97 341.021 198.679 351.026 197.22 349.521C195.428 352.505 193.934 355.344 192.293 358.333L196.923 364.156C202.752 353.531 203.496 351.239 204.986 348.177C203.475 346.886 192.127 337.183 193.637 338.474H193.637Z" fill="#D5454F"/>
<path d="M316.162 263.676L308.03 242.242L307.713 241.291H306.866L291.976 240.131L283.318 225.138L290.812 241.295L290.919 241.608L291.446 241.715L305.492 243.932C305.963 245.589 313.038 270.4 312.567 268.743C314.662 268.776 328.602 268.986 326.506 268.953C327.35 272.33 328.3 275.394 329.254 278.669L336.645 279.512C333.253 267.878 332.159 265.731 331.048 262.512C329.066 262.667 314.18 263.831 316.162 263.676L316.162 263.676Z" fill="#D5454F"/>
<path d="M328.164 109.609L305.535 105.934L304.554 105.734L304.13 106.467L295.681 118.782L278.367 118.784L296.107 120.372L296.431 120.436L296.787 120.033L305.73 108.977C307.401 109.398 332.426 115.676 330.755 115.256C331.831 113.458 338.983 101.491 337.906 103.289C341.253 104.247 344.381 104.956 347.694 105.767L352.12 99.7876C340.348 96.908 337.942 96.7818 334.599 96.1354C333.742 97.9287 327.307 111.402 328.164 109.609L328.164 109.609Z" fill="#D5454F"/>
<path d="M203.498 27.7436L189.001 45.5034L188.337 46.2527L188.76 46.9863L195.2 60.4612L186.545 75.456L196.79 60.8872L197.008 60.6382L196.837 60.1287L191.734 46.8556C192.933 45.6187 210.883 27.0862 209.684 28.3232C208.664 26.4919 201.876 14.3149 202.896 16.1463C205.399 13.7273 207.577 11.3723 209.936 8.90925L206.97 2.0863C198.591 10.8409 197.278 12.8617 195.047 15.4338C196.171 17.0724 204.622 29.3822 203.498 27.7436L203.498 27.7436Z" fill="#D5454F"/>
<path d="M20.1044 107.193C21.4008 106.155 33.8701 96.1659 32.5796 97.2019L61.5319 119.284L62.1196 119.746L62.6982 119.591L75.4601 115.864L95.9438 136.349L76.2639 114.257L76.0021 113.864L75.4236 114.019L62.7215 116.802C61.3305 115.595 30.79 89.1554 32.7256 90.826C31.376 91.7862 19.5655 100.208 20.9149 99.248L6.34917 81.8145L0.888554 86.831C2.05522 88.0659 21.3246 108.482 20.1047 107.191L20.1044 107.193Z" fill="#D5454F"/>
<path d="M101.207 230.57L100.904 230.933L92.0127 243.573C90.1067 243.324 66.3084 240.226 68.2148 240.476C67.5016 242.172 63.4496 251.843 64.1628 250.147L51.9226 245.043L49.38 252.035C51.283 252.627 69.6757 258.337 67.7725 257.745C68.3649 255.842 72.141 243.719 71.5459 245.618L92.4534 246.285L93.3225 246.277L93.6778 245.711L101.661 231.881L112.556 235.359L101.496 230.755L101.207 230.57Z" fill="#D5454F"/>
</svg>
