<svg width="114" height="228" viewBox="0 0 114 228" fill="none" xmlns="http://www.w3.org/2000/svg">
<path d="M86.858 100.444H27.0704V148.621H86.858V100.444Z" fill="#231F20"/>
<path d="M82.8701 211.303H31.5409V220.373H82.8701V211.303Z" fill="#46484B"/>
<path d="M91.3605 144.183H22.407V152.641H91.3605V144.183Z" fill="#231F20"/>
<path d="M84.8961 150.84H27.9387L29.6111 116.106H82.0981L84.8961 150.84Z" fill="#231F20"/>
<path d="M66.1784 191.717C66.1784 191.717 65.7925 210.177 66.5643 213.008C67.3362 215.806 72.4177 220.791 74.8298 221.627C77.2418 222.463 82.1947 222.656 84.0278 220.147C85.8289 217.639 86.3113 214.069 85.25 210.885C84.1887 207.701 78.5604 202.234 77.7886 198.342C77.0167 194.483 77.1775 189.852 77.1775 189.852L66.1784 191.717Z" fill="#231F20"/>
<path d="M75.1835 196.027C75.1835 196.027 79.9112 208.055 80.9725 209.727C82.0338 211.4 81.873 212.75 79.4609 212.75C77.0489 212.75 74.283 213.812 73.9935 211.528C73.7041 209.245 71.7101 199.211 71.5815 197.088L71.4207 194.965L75.2156 194.354V196.027H75.1835Z" fill="#3A3435"/>
<path d="M48.2324 191.202C48.2324 191.202 48.6184 209.663 47.8465 212.493C47.0746 215.291 41.9932 220.276 39.5811 221.112C37.169 221.949 32.2162 222.141 30.383 219.633C28.582 217.124 28.0996 213.554 29.1609 210.37C30.2222 207.186 35.8504 201.719 36.6223 197.828C37.3941 193.936 37.2333 189.337 37.2333 189.337L48.2324 191.202Z" fill="#231F20"/>
<path d="M38.97 196.027C38.97 196.027 34.2423 208.055 33.181 209.727C32.1197 211.4 32.2805 212.75 34.6926 212.75C37.1047 212.75 39.8705 213.812 40.16 211.528C40.4494 209.245 42.4434 199.211 42.5721 197.088L42.7329 194.965L38.9379 194.354V196.027H38.97Z" fill="#3A3435"/>
<path d="M36.6222 197.795C36.3328 198.696 35.9469 199.596 35.5288 200.465C35.1107 201.14 48.3289 200.465 48.3289 200.465V197.795H36.6222Z" fill="black"/>
<path d="M77.7886 197.795C78.078 198.696 78.464 199.596 78.8821 200.465C79.3002 201.14 66.0819 200.465 66.0819 200.465V197.795H77.7886Z" fill="black"/>
<path d="M39.5811 121.381C32.763 121.091 28.6141 125.015 28.6141 134.148C28.6141 143.282 31.7659 199.275 31.7659 199.275L51.5129 199.211C51.5129 199.211 51.6415 158.301 53.1853 153.284C54.729 148.267 53.1853 131.383 53.1853 131.383C53.1853 131.383 50.5159 121.831 39.5811 121.381Z" fill="#231F20"/>
<path d="M44.0194 122.185C33.0203 119.58 28.582 125.047 28.582 134.181C28.582 143.282 31.7338 199.307 31.7338 199.307L38.0696 199.243C38.0696 199.243 35.2394 155.439 35.4324 131.736C35.4967 126.173 46.335 122.699 44.0194 122.185Z" fill="#3A3435"/>
<path d="M85.9576 119.29L88.4018 118.936C89.238 118.775 90.0742 119.354 90.2028 120.191L106.605 221.08C106.734 221.916 106.123 222.624 105.319 222.752H105.286L102.842 223.106C102.006 223.267 101.17 222.688 101.041 221.852L84.639 120.962C84.5103 120.126 85.1214 119.419 85.9576 119.29C85.8932 119.29 85.9576 119.29 85.9576 119.29Z" fill="#46484B"/>
<path d="M95.8953 126.655L98.3395 126.301C99.1757 126.14 100.012 126.719 100.141 127.555L113.455 209.438C113.584 210.274 112.973 210.982 112.169 211.11H112.137L109.692 211.464C108.856 211.625 108.02 211.046 107.891 210.21L94.5767 128.327C94.4481 127.491 95.0591 126.784 95.8953 126.655Z" fill="#B3C1C4"/>
<path d="M29.4183 120.93L13.0161 221.82C12.8231 222.656 12.0191 223.17 11.2151 223.074L8.77081 222.72C7.93462 222.656 7.32358 221.916 7.42006 221.144V221.112L23.8222 120.223C24.0152 119.386 24.8192 118.872 25.6233 118.968L28.0675 119.322C28.9037 119.387 29.5147 120.126 29.4183 120.93Z" fill="#46484B"/>
<path d="M19.4482 128.327L6.13354 210.21C5.94057 211.046 5.13651 211.56 4.33248 211.464L1.88824 211.11C1.05205 211.046 0.441009 210.306 0.537492 209.534V209.502L13.8522 127.62C14.0452 126.784 14.8492 126.269 15.6532 126.365L18.0975 126.719C18.9337 126.784 19.5447 127.523 19.4482 128.295V128.327Z" fill="#B3C1C4"/>
<path d="M90.6852 203.745C92.1646 203.745 93.3546 204.967 93.3546 206.415V224.521C93.3546 226.001 92.1325 227.191 90.6852 227.191C89.2058 227.191 88.0159 225.969 88.0159 224.521V206.415C87.9837 204.967 89.2058 203.745 90.6852 203.745Z" fill="#46484B"/>
<path d="M23.018 203.745C24.4974 203.745 25.6874 204.967 25.6874 206.415V224.521C25.6874 226.001 24.4653 227.191 23.018 227.191C21.5386 227.191 20.3486 225.969 20.3486 224.521V206.415C20.3165 204.967 21.5386 203.745 23.018 203.745Z" fill="#46484B"/>
<path d="M64.0236 34.9313H48.0717V55.9968H64.0236V34.9313Z" fill="#FFD0B6"/>
<path d="M64.0236 34.9313H57.6235V55.9968H64.0236V34.9313Z" fill="#AD8D7D"/>
<path d="M104.579 100.669C103.807 96.52 102.713 92.4033 101.395 88.351C99.1114 81.5007 92.0038 56.8975 87.4369 52.1055C82.87 47.3135 64.1201 43.229 64.1201 43.229C64.1201 43.229 64.1201 46.2521 56.2728 46.2521C48.136 45.448 48.136 42.2963 48.136 42.2963C48.136 42.2963 30.0293 47.2813 25.4624 52.0733C20.8955 56.8653 10.4431 78.7027 8.19184 85.5209C6.84107 89.541 4.07524 106.844 13.7236 115.109C16.9075 117.843 20.3488 120.512 25.5267 122.185C31.8303 124.179 33.1168 121.059 35.7861 121.541C38.359 122.024 50.13 125.176 51.3843 120.737C53.7964 112.279 43.0545 114.209 41.9611 112.118C40.8676 110.092 28.2283 106.458 27.6815 102.888C26.8775 97.9994 29.4182 88.2868 29.4182 88.2868C29.4182 88.2868 29.1288 98.6426 29.4182 107.326C29.7077 116.01 28.0674 120.351 28.0674 120.351C28.0674 120.351 45.5953 123.986 56.5622 123.535C67.497 123.986 85.057 125.98 85.057 125.98C85.057 125.98 85.057 116.01 83.9635 108.13C82.4841 97.8385 83.7062 88.2868 83.7062 88.2868C83.7062 88.2868 90.5566 102.052 92.5827 106.522C94.9626 111.829 91.9395 116.621 101.266 113.887C107.313 112.118 104.579 100.669 104.579 100.669Z" fill="#9D5E6E"/>
<path d="M27.9066 120.416C27.9066 120.416 45.4344 124.05 56.4014 123.6C67.3362 124.05 84.8962 126.044 84.8962 126.044C84.8962 126.044 84.8962 116.074 83.8027 108.194C82.3233 97.9029 83.5454 88.351 83.5454 88.351C83.5454 88.351 90.2992 102.116 92.4219 106.586C96.5385 115.334 96.442 114.98 101.427 113.63C107.634 111.893 104.514 100.701 104.514 100.701C104.514 100.701 89.1415 94.8155 86.858 87.9651C84.5746 81.1148 78.0459 86.0675 77.8851 79.4745C77.081 50.1113 64.0558 43.2611 64.0558 43.2611C64.0558 43.2611 64.0558 46.2843 56.2084 46.2843C53.3461 45.9948 77.4991 86.7751 73.0287 99.736C70.0377 108.42 44.5339 105.782 36.558 111.282C29.579 116.106 28.0031 120.223 28.0031 120.223" fill="#754654"/>
<path d="M48.0073 36.2177C43.3118 33.7091 39.8062 28.0809 40.0957 21.1341C40.3851 14.1551 41.157 0.293787 55.5973 0.0043362C70.0377 -0.285114 71.8387 13.9944 71.9995 19.4618C72.1603 24.9292 71.099 35.0277 66.8216 36.2177C62.5442 37.3755 58.4597 37.9865 56.0476 37.9865C53.6355 37.9865 49.3259 36.9252 48.0073 36.2177Z" fill="#46484B"/>
<path d="M71.1634 21.3594C70.3915 19.1724 67.7543 20.7804 67.7543 20.7804C67.7543 10.6496 60.7753 7.07975 56.0798 6.82246C56.0476 6.82246 56.0155 6.82246 55.9511 6.82246C55.919 6.82246 55.8868 6.82246 55.7903 6.82246C51.0948 7.07975 44.6626 10.6496 44.6626 20.7804C44.6626 20.7804 42.0254 19.1081 41.2535 21.3594C40.4816 23.5785 40.9962 28.8529 43.8907 31.0077C45.6596 32.3263 45.9169 32.0368 45.8847 31.5866C46.2706 32.7122 47.0425 35.1242 47.5249 35.8961C48.136 36.8931 51.6094 38.9193 55.9511 39.1766V39.2088C56.0155 39.2088 56.112 39.2088 56.1763 39.2088C56.2406 39.2088 56.3371 39.2088 56.4014 39.2088V39.1766C60.7432 38.9193 64.2487 36.8931 64.8276 35.8961C65.2779 35.1242 66.1141 32.68 66.4679 31.5866C66.4357 32.0046 66.693 32.2942 68.4618 31.0077C71.3885 28.8208 71.9352 23.5463 71.1634 21.3594Z" fill="#FFD0B6"/>
<path d="M48.5862 8.07674C51.1591 10.4888 59.9712 14.3161 63.927 14.3161C67.8507 14.3161 68.4939 12.8045 68.4939 12.8045C68.4939 12.8045 71.5171 3.70283 61.8044 3.09176C52.1239 2.44854 48.5862 8.07674 48.5862 8.07674Z" fill="#46484B"/>
<path d="M93.5798 118.679C92.7114 113.083 91.8431 108.291 94.7376 107.23C97.6643 106.168 102.939 110.446 104.675 115.399C106.412 120.351 105.737 128.81 104.933 132.508C104.129 136.175 102.006 137.204 100.848 137.751C99.6904 138.265 97.8894 128.778 97.3105 125.819C97.3105 125.819 97.3105 130.579 96.3778 130.193C95.4773 129.807 93.9014 120.609 93.5798 118.679Z" fill="#FFCDB3"/>
<path d="M93.7405 119.805C93.6118 119.097 93.5153 118.422 93.3867 117.714C92.9686 114.723 93.0329 114.691 94.0299 114.755C95.4772 114.884 95.5737 117.714 95.4772 120.705C95.4772 121.188 95.445 128.906 94.8983 126.462C94.3837 123.76 93.9013 120.802 93.7405 119.805Z" fill="#AD8D7D"/>
<path d="M26.588 122.313C30.6082 117.489 38.6163 114.209 44.9199 116.653C48.5862 118.004 51.3199 121.155 52.1561 124.983C52.1561 124.983 46.8495 124.854 44.5661 123.728C42.7008 122.828 39.5489 122.635 36.4615 123.6C32.5056 124.854 26.588 122.313 26.588 122.313Z" fill="#FFCDB3"/>
<path d="M73.1895 121.381C80.2328 121.091 84.5424 125.015 84.5424 134.148C84.5424 143.282 81.2941 199.275 81.2941 199.275L61.3863 199.211C61.3863 199.211 60.7753 158.301 59.1672 153.284C57.527 148.267 59.1672 131.383 59.1672 131.383C59.1672 131.383 61.8366 121.831 73.1895 121.381Z" fill="#231F20"/>
<path d="M73.1896 121.381C80.2329 121.091 67.4328 123.021 67.4328 132.122C67.4328 141.224 70.1665 199.307 70.1665 199.307L64.7312 199.243C64.7312 199.243 64.1201 158.334 62.5121 153.317C60.904 148.299 61.3864 133.055 61.3864 133.055C61.3864 133.055 61.8367 121.831 73.1896 121.381Z" fill="#3A3435"/>
</svg>
