<svg width="718" height="718" viewBox="0 0 718 718" fill="none" xmlns="http://www.w3.org/2000/svg">
<path d="M544.234 65.3693C544.578 63.8745 548.458 47 548.115 48.4947C546.568 47.354 526.109 32.2707 527.656 33.412C527.922 31.9172 530.161 19.224 529.896 20.7193L518.099 15.9381L521.833 7.87561C523.338 8.66206 539.916 17.3235 538.412 16.5371C537.979 18.0475 533.797 32.6824 534.229 31.1731C535.729 32.5324 553.5 48.6624 552 47.3037C549.88 53.5068 545.432 66.5224 546.026 64.7771L557.375 73.8864C555.875 72.9073 542.735 64.3968 544.234 65.3708V65.3693Z" fill="#D5454F"/>
<path d="M661.914 95.536C660.908 94.036 651.2 79.5467 652.205 81.052C650.69 82.1041 624.555 100.281 626.221 99.12C625.419 97.6252 617.503 82.8387 618.305 84.3333L599.341 98.672C600.836 97.3595 620.549 80.036 619.054 81.3493C619.986 82.8545 628.054 95.8493 627.117 94.3389C628.627 93.0994 654.919 71.4643 653.253 72.8336C654.451 74.3336 664.456 86.8803 663.258 85.3752L678.788 71.9379L684.314 78.8076C682.773 79.9586 660.372 96.6823 661.913 95.5369L661.914 95.536Z" fill="#D5454F"/>
<path d="M676.847 141.973C676.144 140.473 669.274 125.837 669.977 127.337C668.483 127.613 631.477 134.499 633.837 134.056C632.337 132.665 622.181 123.259 623.681 124.65L596.202 133.462C597.739 132.837 625.926 121.379 624.129 122.113C625.671 123.374 636.275 132.035 634.733 130.775C636.275 130.363 675.733 119.811 673.26 120.473C674.093 121.978 680.963 134.374 680.13 132.869L700.436 124.056L703.723 132.421C702.165 132.967 675.201 142.556 676.848 141.973L676.847 141.973Z" fill="#D5454F"/>
<path d="M619.647 51.1826C618.147 51.1357 603.059 50.6878 604.564 50.7347C604.08 52.2295 596.762 74.928 597.247 73.432C595.742 73.6195 579.908 75.5571 581.419 75.3747L573.804 90.7547C574.388 89.2025 580.809 72.176 580.226 73.728C581.721 73.3842 596.054 70.0977 594.565 70.4416C594.882 68.9416 600.273 43.3216 599.94 44.9056C601.44 44.791 615.028 43.7441 613.528 43.8587C614.127 40.7232 614.72 37.5879 615.616 34.5983L624.429 33.1035C622.898 39.791 622.002 42.739 619.648 51.1822L619.647 51.1826Z" fill="#D5454F"/>
<path d="M620.688 173.187C620.927 171.687 622.719 160.338 622.479 161.838L599.334 155.27C600.844 155.551 626.761 160.343 625.167 160.046C625.079 161.546 624.485 171.853 624.568 170.348C626.068 170.551 657.642 174.801 655.631 174.53C655.746 176.03 656.787 189.77 656.678 188.27L666.235 189.911L664.293 198.573C662.777 198.156 647.543 193.974 649.058 194.39C649.105 192.89 649.553 178.401 649.506 179.906C648.016 179.557 618.839 172.755 620.689 173.187L620.688 173.187Z" fill="#D5454F"/>
<path d="M529.007 73.36C529.569 74.9173 535.246 90.6 534.684 89.0426L545.882 87.6989L534.236 90.3864L533.788 90.5374L533.491 89.9384L526.772 76.3504C525.272 76.2932 501.199 75.3973 502.731 75.4546C502.398 73.9598 500.158 63.9546 500.491 65.4494L487.95 68.2879L486.455 59.4754C487.95 59.3035 507.658 57.0691 506.163 57.2358C506.335 58.7306 507.83 71.5745 507.658 70.0795C509.153 70.3035 530.507 73.5899 529.007 73.3607L529.007 73.36Z" fill="#D5454F"/>
<path d="M0.447326 207.307C2.53586 128.312 61.822 95.7546 145.594 104.416H148.281C169.099 104.416 205.021 101.187 221.604 88.4373C244.301 71.1146 231.01 0.926636 231.01 0.926636H410.504C410.504 0.926636 409.009 62.9 427.977 102.025C428.722 103.666 429.472 105.312 430.368 106.807C430.519 107.103 430.665 107.405 430.816 107.702C431.712 109.197 432.607 110.687 433.654 112.182C433.357 112.333 432.909 112.333 432.607 112.478C423.68 115.051 373.727 130.921 363.315 138.312C342.185 153.213 326.253 188.036 338.075 236.426C344.888 263.552 368.95 330.89 392.133 343.052C407.33 351.302 446.783 344.552 463.513 340.812C493.018 333.953 518.857 320.64 587.31 290.49C616.149 277.635 647.211 260.531 653.466 229.26C683.034 246.432 702.445 273.76 704.091 302.88C706.779 348.724 726.941 654.267 710.961 717.733H573.721L567.898 650.384L551.319 717.733H75.2527L15.5181 344.853C15.5233 344.853 -1.35124 275.265 0.439432 207.32L0.447326 207.307Z" fill="#210809"/>
<path d="M581.207 276.76C510.8 307.719 487.395 319.921 460.098 326.187C448.426 328.843 409.582 335.556 399.019 329.77C383.379 321.515 313.738 191.13 371.988 150.423C381.66 143.512 434.442 127.434 440.682 125.783C442.624 128.471 444.864 131.606 447.4 134.893C411.447 176.835 397.062 180.393 403.348 224.043C405.291 234.049 412.458 241.07 422.015 243.007C432.39 265.819 450.936 266.606 472.936 255.252C483.218 269.935 494.442 267.325 495.931 268.096C500.561 268.096 513.551 267.945 539.838 246.143C560.786 261.684 594.54 239.054 606.739 220.757C607.187 220.757 609.427 220.012 610.171 220.012L619.88 218.669L620.775 215.533C627.348 217.325 633.619 219.564 639.593 222.252C635.931 250.388 606.623 265.503 581.207 276.763L581.207 276.76Z" fill="#D5454F"/>
<path d="M577.315 140.493C589.908 146.79 581.742 150.275 596.58 161.4C602.554 165.879 615.392 180.665 608.226 205.155C608.226 205.155 598.372 206.498 594.19 212.623C585.164 226.509 549.856 252.093 542.668 223.373C540.944 226.847 498.824 265.947 487.116 248.759C486.549 247.259 477.877 240.551 482.788 231.285C482.788 231.285 481.148 232.629 478.309 234.572C469.2 240.843 448.59 253.536 440.678 244.28C436.965 239.796 431.96 232.462 434.553 227.253C434.105 227.253 433.058 227.701 431.569 227.998L431.423 228.149C427.095 229.045 419.626 229.342 417.986 221.129C409.887 181.129 440.679 172.446 466.371 134.664C466.371 134.664 465.923 134.217 465.324 133.321C460.543 127.498 441.579 103.457 441.731 94.4928C444.595 93.1282 445.564 53.8314 494.147 88.0709C509.83 99.123 521.027 92.8521 521.027 92.8521C521.027 92.8521 534.168 90.3157 540.142 102.56C546.116 114.805 546.86 116.596 551.787 116.899C556.714 117.05 567.47 117.05 573.293 135.268C573.282 135.711 573.433 138.55 577.314 140.492L577.315 140.493Z" fill="#210809"/>
</svg>
