<svg width="96" height="100" viewBox="0 0 96 100" fill="none" xmlns="http://www.w3.org/2000/svg">
<g clip-path="url(#clip0_1635_1390)">
<path d="M48.8666 0H10.5886V51.7757H48.8666V0Z" fill="#E6E6E6"/>
<path d="M47.5179 1.82446H11.9375V49.9512H47.5179V1.82446Z" fill="white"/>
<path d="M42.8411 10.2657H16.7283C16.5167 10.2654 16.314 10.1812 16.1645 10.0316C16.015 9.8819 15.9311 9.67904 15.9311 9.46752C15.9311 9.256 16.015 9.05313 16.1645 8.90347C16.314 8.75381 16.5167 8.66959 16.7283 8.66931H42.8411C42.946 8.66917 43.0499 8.68972 43.1469 8.72977C43.2438 8.76982 43.3319 8.8286 43.4062 8.90273C43.4804 8.97686 43.5393 9.06491 43.5795 9.16182C43.6196 9.25873 43.6403 9.36261 43.6403 9.46752C43.6403 9.57243 43.6196 9.67631 43.5795 9.77322C43.5393 9.87013 43.4804 9.95818 43.4062 10.0323C43.3319 10.1064 43.2438 10.1652 43.1469 10.2053C43.0499 10.2453 42.946 10.2659 42.8411 10.2657Z" fill="#E6E6E6"/>
<path d="M42.8411 18.4759H16.7283C16.5167 18.4757 16.314 18.3914 16.1645 18.2418C16.015 18.0921 15.9311 17.8892 15.9311 17.6777C15.9311 17.4662 16.015 17.2633 16.1645 17.1137C16.314 16.964 16.5167 16.8798 16.7283 16.8795H42.8411C42.946 16.8794 43.0499 16.8999 43.1469 16.94C43.2438 16.98 43.3319 17.0388 43.4062 17.1129C43.4804 17.1871 43.5393 17.2751 43.5795 17.372C43.6196 17.4689 43.6403 17.5728 43.6403 17.6777C43.6403 17.7826 43.6196 17.8865 43.5795 17.9834C43.5393 18.0803 43.4804 18.1684 43.4062 18.2425C43.3319 18.3166 43.2438 18.3754 43.1469 18.4155C43.0499 18.4555 42.946 18.4761 42.8411 18.4759Z" fill="#E6E6E6"/>
<path d="M42.8411 26.686H16.7283C16.5167 26.6857 16.314 26.6015 16.1645 26.4519C16.015 26.3022 15.9311 26.0993 15.9311 25.8878C15.9311 25.6763 16.015 25.4734 16.1645 25.3238C16.314 25.1741 16.5167 25.0899 16.7283 25.0896H42.8411C42.946 25.0895 43.0499 25.11 43.1469 25.1501C43.2438 25.1901 43.3319 25.2489 43.4062 25.323C43.4804 25.3972 43.5393 25.4852 43.5795 25.5821C43.6196 25.679 43.6403 25.7829 43.6403 25.8878C43.6403 25.9927 43.6196 26.0966 43.5795 26.1935C43.5393 26.2904 43.4804 26.3785 43.4062 26.4526C43.3319 26.5267 43.2438 26.5855 43.1469 26.6256C43.0499 26.6656 42.946 26.6862 42.8411 26.686Z" fill="#E6E6E6"/>
<path d="M42.8411 34.8962H16.7283C16.5167 34.8959 16.314 34.8117 16.1645 34.6621C16.015 34.5124 15.9311 34.3095 15.9311 34.098C15.9311 33.8865 16.015 33.6836 16.1645 33.534C16.314 33.3843 16.5167 33.3001 16.7283 33.2998H42.8411C42.946 33.2997 43.0499 33.3202 43.1469 33.3603C43.2438 33.4003 43.3319 33.4591 43.4062 33.5332C43.4804 33.6074 43.5393 33.6954 43.5795 33.7923C43.6196 33.8892 43.6403 33.9931 43.6403 34.098C43.6403 34.2029 43.6196 34.3068 43.5795 34.4037C43.5393 34.5006 43.4804 34.5887 43.4062 34.6628C43.3319 34.7369 43.2438 34.7957 43.1469 34.8358C43.0499 34.8758 42.946 34.8964 42.8411 34.8962Z" fill="#E6E6E6"/>
<path d="M42.8411 43.1063H16.7283C16.5167 43.106 16.314 43.0218 16.1645 42.8721C16.015 42.7225 15.9311 42.5196 15.9311 42.3081C15.9311 42.0966 16.015 41.8937 16.1645 41.744C16.314 41.5944 16.5167 41.5102 16.7283 41.5099H42.8411C42.946 41.5098 43.0499 41.5303 43.1469 41.5703C43.2438 41.6104 43.3319 41.6692 43.4062 41.7433C43.4804 41.8174 43.5393 41.9055 43.5795 42.0024C43.6196 42.0993 43.6403 42.2032 43.6403 42.3081C43.6403 42.413 43.6196 42.5169 43.5795 42.6138C43.5393 42.7107 43.4804 42.7988 43.4062 42.8729C43.3319 42.947 43.2438 43.0058 43.1469 43.0458C43.0499 43.0859 42.946 43.1064 42.8411 43.1063Z" fill="#E6E6E6"/>
<path d="M38.2798 10.2657H16.6141C16.5092 10.2659 16.4053 10.2453 16.3084 10.2053C16.2114 10.1652 16.1233 10.1064 16.049 10.0323C15.9748 9.95818 15.9159 9.87013 15.8757 9.77322C15.8356 9.67631 15.8149 9.57243 15.8149 9.46752C15.8149 9.36261 15.8356 9.25873 15.8757 9.16182C15.9159 9.06491 15.9748 8.97686 16.049 8.90273C16.1233 8.8286 16.2114 8.76982 16.3084 8.72977C16.4053 8.68972 16.5092 8.66917 16.6141 8.66931H38.2798C38.4913 8.66959 38.6941 8.75381 38.8435 8.90347C38.993 9.05313 39.077 9.256 39.077 9.46752C39.077 9.67904 38.993 9.8819 38.8435 10.0316C38.6941 10.1812 38.4913 10.2654 38.2798 10.2657Z" fill="#D5454F"/>
<path d="M31.5522 18.4759H16.6142C16.4026 18.4759 16.1995 18.3918 16.0498 18.2421C15.9001 18.0924 15.816 17.8894 15.816 17.6777C15.816 17.466 15.9001 17.263 16.0498 17.1133C16.1995 16.9636 16.4026 16.8795 16.6142 16.8795H31.5522C31.6571 16.8794 31.761 16.8999 31.858 16.94C31.9549 16.98 32.043 17.0388 32.1173 17.1129C32.1915 17.1871 32.2504 17.2751 32.2906 17.372C32.3308 17.4689 32.3514 17.5728 32.3514 17.6777C32.3514 17.7826 32.3308 17.8865 32.2906 17.9834C32.2504 18.0803 32.1915 18.1684 32.1173 18.2425C32.043 18.3166 31.9549 18.3754 31.858 18.4155C31.761 18.4555 31.6571 18.4761 31.5522 18.4759Z" fill="#D5454F"/>
<path d="M23.3419 26.686H16.6141C16.5092 26.6862 16.4053 26.6656 16.3084 26.6256C16.2114 26.5855 16.1233 26.5267 16.049 26.4526C15.9748 26.3785 15.9159 26.2904 15.8757 26.1935C15.8356 26.0966 15.8149 25.9927 15.8149 25.8878C15.8149 25.7829 15.8356 25.679 15.8757 25.5821C15.9159 25.4852 15.9748 25.3972 16.049 25.323C16.1233 25.2489 16.2114 25.1901 16.3084 25.1501C16.4053 25.11 16.5092 25.0895 16.6141 25.0896H23.3419C23.5534 25.0899 23.7562 25.1741 23.9056 25.3238C24.0551 25.4734 24.1391 25.6763 24.1391 25.8878C24.1391 26.0993 24.0551 26.3022 23.9056 26.4519C23.7562 26.6015 23.5534 26.6857 23.3419 26.686Z" fill="#D5454F"/>
<path d="M40.3325 34.8962H16.6142C16.4026 34.8962 16.1995 34.8121 16.0498 34.6624C15.9001 34.5127 15.816 34.3097 15.816 34.098C15.816 33.8863 15.9001 33.6833 16.0498 33.5336C16.1995 33.3839 16.4026 33.2998 16.6142 33.2998H40.3325C40.5442 33.2998 40.7472 33.3839 40.8969 33.5336C41.0466 33.6833 41.1307 33.8863 41.1307 34.098C41.1307 34.3097 41.0466 34.5127 40.8969 34.6624C40.7472 34.8121 40.5442 34.8962 40.3325 34.8962Z" fill="#D5454F"/>
<path d="M35.087 43.1063H16.6141C16.5092 43.1064 16.4053 43.0859 16.3084 43.0458C16.2114 43.0058 16.1233 42.947 16.049 42.8729C15.9748 42.7988 15.9159 42.7107 15.8757 42.6138C15.8356 42.5169 15.8149 42.413 15.8149 42.3081C15.8149 42.2032 15.8356 42.0993 15.8757 42.0024C15.9159 41.9055 15.9748 41.8174 16.049 41.7433C16.1233 41.6692 16.2114 41.6104 16.3084 41.5703C16.4053 41.5303 16.5092 41.5098 16.6141 41.5099H35.087C35.1919 41.5098 35.2958 41.5303 35.3928 41.5703C35.4897 41.6104 35.5779 41.6692 35.6521 41.7433C35.7263 41.8174 35.7852 41.9055 35.8254 42.0024C35.8656 42.0993 35.8863 42.2032 35.8863 42.3081C35.8863 42.413 35.8656 42.5169 35.8254 42.6138C35.7852 42.7107 35.7263 42.7988 35.6521 42.8729C35.5779 42.947 35.4897 43.0058 35.3928 43.0458C35.2958 43.0859 35.1919 43.1064 35.087 43.1063Z" fill="#D5454F"/>
<path d="M49.1303 69.5147C48.852 69.3103 48.5662 69.1207 48.2755 68.9409C48.1007 68.8276 47.9209 68.7216 47.7411 68.6182C47.7165 68.6034 47.6919 68.5886 47.6672 68.5738C46.765 68.0624 45.8166 67.6368 44.8347 67.3029C43.8824 66.9781 42.902 66.7423 41.9061 66.5985C41.8907 66.5948 41.8751 66.5923 41.8593 66.5911C41.5909 66.5517 41.3199 66.5196 41.0466 66.4975C40.8569 66.4778 40.6647 66.463 40.4726 66.4556C40.2263 66.4384 39.98 66.4285 39.7288 66.4261C39.6548 66.4236 39.5786 66.4236 39.5022 66.4236C38.6977 66.4231 37.8942 66.4816 37.0982 66.5985C36.9233 66.6231 36.7485 66.6502 36.576 66.6797C36.4603 66.7019 36.347 66.7241 36.2337 66.7462C35.7632 66.8423 35.301 66.9564 34.8471 67.0886C34.6401 67.1502 34.4356 67.2142 34.2313 67.2832C33.9554 67.3743 33.6844 67.4729 33.416 67.5812C33.177 67.6724 32.943 67.7733 32.7115 67.8768C30.8042 68.7364 29.0761 69.9481 27.618 71.4482C27.0417 72.0371 26.5106 72.6687 26.0292 73.3374C25.8001 73.6551 25.5826 73.9819 25.3766 74.3177C24.9958 74.9305 24.6568 75.5682 24.3617 76.2266C23.759 77.5642 23.3382 78.9767 23.1105 80.4261C22.9758 81.2832 22.9082 82.1496 22.9086 83.0172C22.9086 83.1749 22.911 83.3325 22.9159 83.4877C23.0128 87.0834 24.2835 90.5487 26.5342 93.3547C26.7755 93.6601 27.0293 93.9557 27.2928 94.2414C27.5564 94.5271 27.8298 94.8054 28.113 95.0714C28.4603 95.4015 28.8199 95.7118 29.1918 96.0098C31.4761 97.8277 34.2005 99.0091 37.0887 99.4343C39.977 99.8595 42.9263 99.5134 45.6376 98.431C46.012 98.2832 46.379 98.1231 46.7361 97.9458C46.4702 97.6552 46.2174 97.353 45.9776 97.0394C45.6204 97.2069 45.2583 97.3596 44.8864 97.4975C42.3177 98.4528 39.5411 98.7069 36.8417 98.2338C34.1423 97.7606 31.6175 96.5773 29.5268 94.8054C29.2016 94.5295 28.8839 94.2389 28.5835 93.9359C28.246 93.5985 27.9233 93.2463 27.6204 92.8793C27.3593 92.5665 27.108 92.2414 26.8741 91.9064C24.8824 89.086 23.8952 85.6787 24.0707 82.2304C24.2462 78.7822 25.5743 75.4927 27.842 72.8891C27.98 72.729 28.1204 72.5739 28.2632 72.4236C28.5564 72.1157 28.8594 71.8177 29.1746 71.5344C30.6561 70.1983 32.3825 69.1619 34.2583 68.4827C34.2755 68.4753 34.2953 68.4704 34.3125 68.463C34.3716 68.4409 34.4332 68.4211 34.4948 68.399C35.0796 68.1986 35.6759 68.0333 36.2805 67.9039C36.4997 67.8571 36.7214 67.8152 36.943 67.7783C36.948 67.7783 36.9504 67.7758 36.9553 67.7758C37.5814 67.6733 38.2131 67.6084 38.847 67.5812C39.0637 67.5714 39.2829 67.5665 39.5022 67.5665C39.7732 67.5665 40.0465 67.5738 40.315 67.5911C40.507 67.5985 40.7016 67.6133 40.8913 67.6305C41.0588 67.6453 41.2263 67.6625 41.3913 67.6847C43.3101 67.9178 45.1672 68.5129 46.8642 69.4384C47.3022 69.6755 47.728 69.9345 48.1401 70.2142C48.4701 70.4384 48.7928 70.6748 49.1032 70.9211C49.4233 70.6872 49.7559 70.4655 50.0957 70.2586C49.7829 69.9975 49.4603 69.7463 49.1303 69.5147Z" fill="#3F3D56"/>
<path d="M41.7958 44.7006L40.8994 59.9361H23.295C21.7674 59.9214 20.2899 60.4802 19.1542 61.5019C18.1345 62.4329 17.501 63.7124 17.3785 65.0877L19.3869 65.8029C19.3837 65.5721 19.4073 65.3416 19.4575 65.1163C19.5967 64.5117 19.982 63.4111 21.0177 62.7932C21.473 62.5345 21.9894 62.4028 22.513 62.4117H42.4672L43.5887 46.5049H50.3081V44.7006H41.7958Z" fill="#3F3D56"/>
<path d="M59.2707 52.3251L59.2657 52.4458L58.719 66.8226L58.6746 67.9655C58.5146 67.9605 58.3545 67.9581 58.1919 67.9581C57.8767 67.9581 57.5639 67.9679 57.2534 67.9876C55.732 68.0757 54.2325 68.3921 52.8052 68.9261C52.4357 69.064 52.0712 69.2167 51.7165 69.3817C51.1589 69.6407 50.6177 69.9335 50.0958 70.2586C49.7559 70.4655 49.4234 70.6871 49.1032 70.9211C47.7403 71.9165 46.5482 73.1269 45.5737 74.5049C45.2321 74.9845 44.9204 75.4846 44.6402 76.0024L43.3372 76.0147L34.4406 76.1132L29.2756 76.1723H29.2731L25.6328 76.2118L24.3618 76.2265H24.2706L23.1106 76.2389L20.6056 76.2684L19.4406 76.2807L17.8248 76.298L18.8322 66.7758L27.618 67.261L29.1746 67.3472L29.5835 67.3694L33.416 67.5812L34.2387 67.6256L36.2731 67.7389L36.9554 67.7758L40.2633 67.9581L40.315 67.5911L40.4135 66.8817L40.4727 66.4556L40.7904 64.1625L40.8913 63.4433L41.0342 62.4113V62.4039L41.0466 62.3103L41.3766 59.9359L41.645 58.0172L41.8939 56.2315V56.2241L42.2904 53.3547L42.3569 52.8842L43.1402 52.8571L46.1845 52.7586L47.5293 52.7143L51.7584 52.5739L57.6574 52.3793H57.6598L58.1475 52.3621L58.2633 52.3571H58.2657L59.2707 52.3251Z" fill="#2F2E41"/>
<path d="M58.1918 86.4582C59.8773 86.4582 61.2436 85.0919 61.2436 83.4065C61.2436 81.721 59.8773 80.3547 58.1918 80.3547C56.5064 80.3547 55.1401 81.721 55.1401 83.4065C55.1401 85.0919 56.5064 86.4582 58.1918 86.4582Z" fill="#3F3D56"/>
<path d="M37.8564 85.5753C39.0151 85.5753 39.9545 84.636 39.9545 83.4773C39.9545 82.3186 39.0151 81.3793 37.8564 81.3793C36.6977 81.3793 35.7584 82.3186 35.7584 83.4773C35.7584 84.636 36.6977 85.5753 37.8564 85.5753Z" fill="#3F3D56"/>
<path d="M52.054 67.9925C51.682 68.1379 51.3151 68.3004 50.9555 68.4753C50.3256 68.7825 49.7159 69.1297 49.1303 69.5147C48.7904 69.7339 48.4604 69.9671 48.1402 70.2142C46.5836 71.4021 45.248 72.8545 44.1943 74.5049H45.5737C46.5482 73.1269 47.7403 71.9165 49.1032 70.9211C49.4234 70.6871 49.7559 70.4654 50.0958 70.2586C50.6177 69.9335 51.1589 69.6407 51.7165 69.3817C52.0712 69.2167 52.4357 69.064 52.8052 68.926C54.2325 68.392 55.732 68.0757 57.2535 67.9876V66.8398C55.4691 66.9386 53.7129 67.328 52.054 67.9925ZM42.9973 76.7438H44.2559C44.3767 76.4925 44.5048 76.2438 44.6402 76.0024L43.3372 76.0147C43.2165 76.2536 43.1032 76.4975 42.9973 76.7438ZM59.2707 66.8497C59.0885 66.8349 58.9038 66.8275 58.719 66.8226C58.5442 66.8152 58.3693 66.8127 58.1919 66.8127C57.8767 66.8127 57.5637 66.8226 57.2535 66.8398C55.4691 66.9386 53.7129 67.328 52.054 67.9925C51.682 68.1379 51.3151 68.3004 50.9555 68.4753C50.3256 68.7825 49.7159 69.1297 49.1303 69.5147C48.7904 69.7339 48.4604 69.9671 48.1402 70.2142C46.1188 71.7572 44.4761 73.741 43.3372 76.0147C43.2165 76.2536 43.1032 76.4975 42.9973 76.7438C42.6324 77.5681 42.3374 78.4217 42.1155 79.2955C41.9689 79.8618 41.8538 80.4357 41.7707 81.0147C41.6968 81.5221 41.6467 82.0352 41.6205 82.5541C41.6057 82.8374 41.5983 83.1206 41.5983 83.4063C41.5987 84.0351 41.634 84.6633 41.7042 85.2881C42.0359 88.1968 43.1341 90.9652 44.8865 93.3103C45.1253 93.6305 45.3767 93.9433 45.6377 94.2438C47.4241 96.3135 49.6945 97.9097 52.2467 98.8902C54.799 99.8707 57.554 100.205 60.2668 99.864C62.9795 99.5227 65.5658 98.5162 67.7957 96.9341C70.0256 95.352 71.8299 93.2433 73.048 90.7955C74.2662 88.3478 74.8605 85.6369 74.778 82.904C74.6955 80.1711 73.9389 77.501 72.5754 75.1311C71.2119 72.7612 69.2838 70.7651 66.9626 69.3203C64.6414 67.8755 61.9991 67.0268 59.2707 66.8497ZM58.1919 98.8546C56.0319 98.8556 53.8958 98.4025 51.9222 97.5246C49.9487 96.6466 48.1818 95.3635 46.7362 93.7585C46.4703 93.4679 46.2174 93.1658 45.9777 92.8521C43.9916 90.298 42.8632 87.1818 42.7534 83.9482C42.7461 83.7684 42.7436 83.5886 42.7436 83.4063C42.7413 81.1001 43.2582 78.823 44.2559 76.7438C44.3767 76.4925 44.5048 76.2438 44.6402 76.0024C44.9204 75.4846 45.2321 74.9844 45.5737 74.5049C46.5482 73.1269 47.7403 71.9165 49.1032 70.9211C49.4234 70.6871 49.7559 70.4654 50.0958 70.2586C50.6177 69.9335 51.1589 69.6407 51.7165 69.3817C52.0712 69.2167 52.4357 69.064 52.8052 68.926C54.2325 68.392 55.732 68.0757 57.2535 67.9876C57.5637 67.9679 57.8766 67.958 58.1919 67.958C58.3545 67.958 58.5146 67.9605 58.6747 67.9654C58.8742 67.9728 59.0737 67.9827 59.2707 67.995C63.2652 68.274 66.9953 70.093 69.6747 73.0687C72.3541 76.0443 73.7734 79.944 73.6335 83.9458C73.4936 87.9475 71.8054 91.7386 68.9248 94.5199C66.0441 97.3011 62.1961 98.8552 58.1919 98.8546ZM42.7534 83.9482C42.7461 83.7684 42.7436 83.5886 42.7436 83.4063C42.7413 81.1001 43.2582 78.823 44.2559 76.7438H42.9973C42.6324 77.5681 42.3374 78.4217 42.1155 79.2955C42.1533 79.4553 42.1723 79.619 42.1722 79.7832C42.1724 80.2259 42.0318 80.6572 41.7707 81.0147C41.6968 81.5221 41.6467 82.0352 41.6205 82.5541C41.6057 82.8374 41.5983 83.1206 41.5983 83.4063C41.5987 84.0351 41.634 84.6633 41.7042 85.2881C42.0359 88.1968 43.1341 90.9652 44.8865 93.3103C45.2583 93.1723 45.6205 93.0196 45.9777 92.8521C43.9916 90.298 42.8632 87.1818 42.7534 83.9482Z" fill="#3F3D56"/>
<path opacity="0.1" d="M48.7116 60.1498C48.8549 60.1498 48.971 60.0336 48.971 59.8904C48.971 59.7471 48.8549 59.631 48.7116 59.631C48.5684 59.631 48.4522 59.7471 48.4522 59.8904C48.4522 60.0336 48.5684 60.1498 48.7116 60.1498Z" fill="black"/>
<path opacity="0.1" d="M47.8304 64.4468C47.9737 64.4468 48.0898 64.3306 48.0898 64.1874C48.0898 64.0441 47.9737 63.928 47.8304 63.928C47.6872 63.928 47.571 64.0441 47.571 64.1874C47.571 64.3306 47.6872 64.4468 47.8304 64.4468Z" fill="black"/>
<path d="M14.894 91.383L12.5556 91.3827L11.4433 82.3635L14.8943 82.3638L14.894 91.383Z" fill="#FFB7B7"/>
<path d="M14.8938 90.6206L12.4627 90.6182H10.8864C10.5008 90.618 10.1189 90.6939 9.76266 90.8413C9.40638 90.9888 9.08267 91.2051 8.81001 91.4778C8.53736 91.7504 8.3211 92.0741 8.17361 92.4304C8.02612 92.7867 7.95029 93.1685 7.95044 93.5541V93.6502H15.4898V90.6206H14.8938Z" fill="#2F2E41"/>
<path d="M22.6367 92.5071L20.2988 92.4591L19.3709 83.4192L22.8214 83.4899L22.6367 92.5071Z" fill="#FFB7B7"/>
<path d="M22.6524 91.7439L20.2189 91.6946L18.645 91.6626C18.2596 91.654 17.8763 91.7214 17.517 91.8612C17.1578 92.0009 16.8297 92.2102 16.5514 92.477C16.2732 92.7438 16.0503 93.0628 15.8956 93.4159C15.7409 93.769 15.6574 94.1491 15.6499 94.5345L15.6475 94.6306L23.1869 94.7858L23.1992 94.1626L23.2484 91.7562L22.6524 91.7439Z" fill="#2F2E41"/>
<path d="M30.7807 60.1981L17.2715 64.6543C16.469 64.852 15.7393 65.2738 15.1674 65.8706C14.5956 66.4673 14.2052 67.2144 14.0419 68.0246L9.96063 88.2705L16.5027 88.3727L20.6377 71.3577L29.5652 67.7052L22.7246 71.6641C22.1071 72.1538 21.6292 72.7973 21.3388 73.53L17.3133 88.5562H24.5286L28.6294 76.5402L46.4263 66.3955L30.7807 60.1981Z" fill="#2F2E41"/>
<path d="M44.4084 39.061L35.856 40.099C35.856 40.099 30.8358 42.3508 30.8358 43.4952C30.8358 44.6396 28.8376 61.0431 28.8376 61.0431C28.8376 61.0431 27.0599 62.1402 34.0021 64.0707C40.9444 66.0013 42.1902 68.6666 42.1902 68.6666L42.7185 70.8934L50.6717 68.0993L52.0068 49.0263L53.5305 41.5995L48.3829 38.7269L44.4084 39.061Z" fill="#CBCBCB"/>
<path d="M40.7395 37.3994C44.1161 37.3994 46.8533 34.6622 46.8533 31.2856C46.8533 27.9091 44.1161 25.1719 40.7395 25.1719C37.363 25.1719 34.6257 27.9091 34.6257 31.2856C34.6257 34.6622 37.363 37.3994 40.7395 37.3994Z" fill="#FFB7B7"/>
<path d="M44.93 25.0093L45.0515 24.3543L43.4142 24.0504C43.4142 24.0504 41.0984 21.9268 38.4414 23.4661C35.7844 25.0055 34.6197 25.8055 34.6197 25.8055L33.3941 26.9331L34.3157 27.4429L33.151 28.2429L34.1334 28.4253L33.2961 29.2861L34.6758 32.0828C34.6758 32.0828 34.9335 29.59 36.8982 29.9547C38.863 30.3194 41.6416 28.1252 41.6416 28.1252L45.885 32.639C45.885 32.639 45.9205 30.6227 47.0675 30.8308C47.0675 30.8308 48.4713 26.0053 44.93 25.0093Z" fill="#2F2E41"/>
<path d="M46.5007 52.1086C46.7082 51.7977 46.9814 51.5361 47.301 51.3423C47.6206 51.1484 47.9788 51.027 48.3503 50.9865C48.7219 50.9461 49.0978 50.9876 49.4516 51.1081C49.8055 51.2287 50.1285 51.4253 50.3981 51.6842L58.4922 47.5566L57.9672 52.2488L50.3614 55.4491C49.8965 55.8731 49.2921 56.1119 48.6629 56.1201C48.0336 56.1283 47.4232 55.9054 46.9473 55.4937C46.4714 55.0819 46.1631 54.5099 46.0808 53.886C45.9985 53.2621 46.1479 52.6297 46.5007 52.1086Z" fill="#FFB7B7"/>
<path d="M51.5451 41.9584L53.5306 41.5995L64.1242 46.3374L64.8451 50.9803L58.4917 52.6502L55.1673 48.3749L50.3015 49.7251L47.4293 45.4024L51.5451 41.9584Z" fill="#CBCBCB"/>
<path d="M42.098 47.2749L41.8526 58.0096C41.8462 58.2856 42.0648 58.5144 42.3408 58.5207L46.894 58.6248C47.1699 58.6311 47.3988 58.4125 47.4051 58.1366L47.6506 47.4019C47.6569 47.1259 47.4383 46.8971 47.1623 46.8907L42.6092 46.7866C42.3332 46.7803 42.1043 46.9989 42.098 47.2749Z" fill="#3F3D56"/>
<path d="M44.8859 51.1669C45.3681 51.1669 45.7591 50.7759 45.7591 50.2936C45.7591 49.8114 45.3681 49.4204 44.8859 49.4204C44.4036 49.4204 44.0126 49.8114 44.0126 50.2936C44.0126 50.7759 44.4036 51.1669 44.8859 51.1669Z" fill="white"/>
<path d="M42.2599 53.3398C41.9337 53.1959 41.5798 53.1252 41.2233 53.1329C40.8668 53.1405 40.5163 53.2262 40.1965 53.384C39.8767 53.5417 39.5953 53.7677 39.3723 54.0459C39.1493 54.3242 38.99 54.6479 38.9056 54.9944L30.2766 55.8176L33.1023 59.3254L40.8633 58.0059C41.4547 58.1091 42.0635 57.9917 42.5742 57.676C43.0849 57.3604 43.462 56.8683 43.6342 56.2932C43.8063 55.718 43.7615 55.0997 43.5082 54.5554C43.2549 54.011 42.8108 53.5785 42.2599 53.3398Z" fill="#FFB7B7"/>
<path d="M33.4872 45.1285L33.0352 53.5281L34.7308 54.0643L34.0022 59.9197L29.6485 60.5776L31.4655 45.4182L33.4872 45.1285Z" fill="#CBCBCB"/>
<path d="M58.5983 44.6995L58.4284 47.5886L58.3619 48.7167V48.7315L58.155 52.2167L58.1475 52.362L57.7017 59.9359H40.0342C38.5278 59.9362 37.0748 60.4943 35.9555 61.5024C35.7713 61.6705 35.5985 61.8507 35.4382 62.0418C35.3384 62.1601 35.2447 62.2834 35.1574 62.4113C35.0448 62.5687 34.9412 62.7323 34.8471 62.9014C34.6261 63.3005 34.4564 63.7258 34.3421 64.1674C34.3297 64.2028 34.3198 64.239 34.3125 64.2758C34.2463 64.5428 34.201 64.8146 34.1771 65.0886L34.2313 67.2832L34.2387 67.6255L34.2584 68.4827L34.3717 73.2659L34.4406 76.1132L34.5047 78.7955C32.8864 78.7561 30.1057 79.6132 28.4973 85.357C28.1426 86.623 27.8568 87.729 27.6204 88.692C27.4998 89.1822 27.3906 89.6362 27.2928 90.0541C27.1278 90.7684 26.9924 91.3817 26.8741 91.9063C26.7435 92.4974 26.6352 92.9728 26.5343 93.3546C26.182 94.6501 25.9012 94.8152 25.0121 94.4802C24.419 94.318 23.8121 94.2116 23.1993 94.1624C21.3741 93.9457 18.5489 93.7462 15.8273 93.5861C15.714 93.5812 15.6031 93.5738 15.4898 93.5664C11.6056 93.3398 8.03174 93.1969 8.03174 93.1969V95.4334L25.0121 96.9605C25.0121 96.9605 26.7633 97.7462 28.113 95.0713C28.2977 94.705 28.4549 94.3254 28.5835 93.9358C28.6697 93.692 28.751 93.4285 28.8273 93.1452C28.948 92.7068 29.0695 92.2659 29.1918 91.8225C29.3027 91.4211 29.416 91.0171 29.5269 90.6181C30.2583 87.9876 30.9627 85.5171 31.3766 84.096C31.5341 83.5211 31.8161 82.988 32.2026 82.5342C32.5891 82.0805 33.0706 81.7173 33.6131 81.4704C33.992 81.2924 34.4062 81.2023 34.8249 81.2068L36.8298 81.1181L36.6278 76.7438H44.2559C44.3767 76.4925 44.5047 76.2438 44.6402 76.0024C44.9204 75.4846 45.2321 74.9844 45.5737 74.5048H36.5417L36.4456 72.0837L36.2806 67.9039L36.2731 67.7388L36.2338 66.7462L36.1967 65.8029C36.1914 65.5694 36.2146 65.3362 36.2658 65.1083C36.2855 65.0221 36.3101 64.9236 36.3421 64.8201C36.4687 64.3783 36.6722 63.9623 36.9431 63.5911C37.1346 63.3294 37.3666 63.1 37.6303 62.9113C37.6929 62.866 37.7579 62.8241 37.8249 62.7857C38.2085 62.5683 38.6362 62.4403 39.0761 62.4113C39.1564 62.4039 39.237 62.4014 39.3175 62.4039H57.2535V67.9876C57.5638 67.9679 57.8766 67.9581 58.1919 67.958C58.3545 67.958 58.5146 67.9605 58.6747 67.9654C58.8742 67.9728 59.0737 67.9827 59.2707 67.995V62.3497L59.9801 52.2586L60.3866 46.4975H67.1081L67.1107 44.6995H58.5983Z" fill="#3F3D56"/>
<path d="M94.9212 100H1.07876C1.01344 100 0.950795 99.9741 0.904603 99.9279C0.858412 99.8817 0.832458 99.8191 0.832458 99.7538C0.832458 99.6884 0.858412 99.6258 0.904603 99.5796C0.950795 99.5334 1.01344 99.5074 1.07876 99.5074H94.9212C94.9866 99.5074 95.0492 99.5334 95.0954 99.5796C95.1416 99.6258 95.1675 99.6884 95.1675 99.7538C95.1675 99.8191 95.1416 99.8817 95.0954 99.9279C95.0492 99.9741 94.9866 100 94.9212 100Z" fill="#CBCBCB"/>
</g>
<defs>
<clipPath id="clip0_1635_1390">
<rect width="94.3351" height="100" fill="white" transform="translate(0.832458)"/>
</clipPath>
</defs>
</svg>
