<svg width="690" height="720" viewBox="0 0 690 720" fill="none" xmlns="http://www.w3.org/2000/svg">
<path d="M561.594 715.155C567.12 699.327 611.323 571.502 608.635 503.702C607.14 460.546 606.396 377.066 601.317 300.462C599.812 300.425 593.244 300.279 594.744 300.311C551.307 299.316 526.13 288.305 506.042 253.868C480.006 208.045 479.427 149.841 509.177 103.041C456.12 103.041 391.265 86.5773 375.524 36.4373V0H233.511V36.4373C212.308 103.041 107.323 103.489 107.323 103.489C107.323 103.489 48.0359 92.8852 25.4893 169.495C2.79192 246.401 2.79193 431.575 0.103932 503.708C-2.58353 576.135 47.7399 716.801 47.7399 716.801L105.683 591.812C105.683 591.812 80.1466 544.624 89.7039 484.443C99.2613 424.412 108.521 354.672 108.521 354.672C108.521 354.672 158.699 489.219 134.953 539.845C110.912 590.616 105.683 591.815 105.683 591.815C105.683 591.815 105.568 592.382 105.396 593.242L105.407 593.179L105.365 593.273C105.365 593.263 105.386 593.153 105.386 593.153C104.677 594.684 44.8697 723.913 48.6204 715.799C48.3391 716.142 47.9954 716.429 47.7402 716.804H48.1516L47.5319 718.153C47.5735 718.111 47.61 718.064 47.6464 718.017L47.5891 718.153C48.0318 717.705 48.3339 717.262 48.7819 716.814H560.422C560.661 717.075 560.865 717.351 561.104 717.606L560.74 716.814H561.005C560.854 716.663 560.708 716.517 560.557 716.366C560.536 716.345 560.521 716.325 560.5 716.304L560.12 715.481L560.557 715.918L561.005 716.814C561.005 716.814 561.005 716.663 561.156 716.517C561.901 717.559 562.646 718.455 563.542 719.351L561.604 715.325L561.594 715.155ZM104.794 596.843C104.794 596.864 104.789 596.864 104.789 596.885C104.638 597.781 104.58 597.989 104.794 596.843ZM503.354 592.9V592.702C503.203 592.103 503.203 591.807 503.203 591.807C503.203 591.807 498.125 590.614 473.932 539.837C450.036 489.212 500.516 354.664 500.516 354.664C500.516 354.664 509.625 424.404 519.032 484.435C528.589 544.617 503.204 591.804 503.204 591.804L506.636 599.122V599.419C506.636 599.653 506.714 599.934 506.756 600.247L503.354 592.9Z" fill="#210809"/>
<path d="M519.033 246.395C533.544 271.786 551.861 285.52 600.273 285.52C598.138 253.348 592.591 200.359 583.399 169.49C574.581 139.687 555.612 111.563 525.607 105.126C503.247 127.552 488.967 193.604 519.034 246.392L519.033 246.395Z" fill="#D5454F"/>
<path d="M627.447 231.755C627.057 230.234 621.833 209.771 622.218 211.296C620.692 210.927 605.306 207.192 606.838 207.562L606.989 196.51L605.646 208.01L605.791 208.458C607.354 209.015 621.537 214.093 619.979 213.536C620.224 215.036 623.959 237.733 623.714 236.233C625.219 236.415 635.078 237.613 633.568 237.426L632.073 250.119L639.542 250.863C639.568 249.358 639.865 230.546 639.839 232.046C638.339 232.015 625.943 231.718 627.448 231.754L627.447 231.755Z" fill="#D5454F"/>
<path d="M619.234 175.902L619.385 175.605L620.88 161.719C622.453 161.204 646.052 153.438 644.473 153.954C644.395 150.558 644.14 138.981 644.176 140.517C647.161 139.475 650.301 138.579 653.134 137.532L653.733 130.365C651.072 131.308 650.02 131.662 637.755 136.339C637.927 137.834 639.567 152.173 639.395 150.678C637.875 151.334 616.817 160.444 618.338 159.787L618.041 160.683L617.89 175.167L603.702 183.98C605.213 183.183 620.738 175.121 619.233 175.902L619.234 175.902Z" fill="#D5454F"/>
<path d="M590.714 134.542C592.25 135.161 607.036 141.135 605.5 140.516L593.703 160.376C594.724 158.881 608.911 138.121 607.891 139.621C605.339 138.418 592.803 132.491 594.303 133.199C595.283 131.699 613.215 104.278 612.074 106.022C610.574 105.043 597.585 96.527 599.084 97.5114L610.584 81.2354L604.61 77.2042C603.715 78.699 590.272 101.1 591.173 99.6056C592.673 100.449 607.309 108.663 605.809 107.819C604.95 109.314 589.741 136.262 590.716 134.543L590.714 134.542Z" fill="#D5454F"/>
<path d="M679.713 201.448C678.182 202.079 664.74 207.605 666.276 206.974C664.781 205.61 647.755 190.078 649.249 191.444C643.843 193.824 631.452 199.277 632.973 198.61L623.119 188.605C624.395 190.136 634.098 201.782 632.827 200.251L633.124 199.954L648.655 194.579C650.035 196.084 666.462 214.006 665.082 212.501C666.582 212.027 678.827 208.141 677.326 208.62L683.3 219.818L689.426 216.084C688.42 214.573 678.712 199.938 679.712 201.448L679.713 201.448Z" fill="#D5454F"/>
</svg>
