<svg width="650" height="570" viewBox="0 0 650 570" fill="none" xmlns="http://www.w3.org/2000/svg">
<path d="M21.6871 326.142C19.5356 324.479 16.832 323.698 14.1254 323.956C11.4188 324.214 8.91199 325.492 7.11322 327.531C5.31446 329.569 4.35851 332.216 4.43981 334.934C4.52111 337.652 5.63287 340.237 7.55029 342.165L117.494 452.108C122.307 456.918 128.368 460.286 134.994 461.835C141.62 463.383 148.546 463.049 154.992 460.87C160.992 458.843 166.533 455.652 171.298 451.48C176.063 447.309 179.958 442.239 182.761 436.56C185.564 430.881 187.221 424.704 187.634 418.385C188.047 412.065 187.21 405.726 185.171 399.73C215.182 368.76 248.659 341.349 284.94 318.037C310.918 316.816 336.071 308.529 357.688 294.07C379.305 279.611 396.566 259.529 407.613 235.985C408.073 235.003 419.815 86.7094 420.711 86.0963C411.137 83.709 401.126 83.6857 391.542 86.0283C381.957 88.3709 373.086 93.0086 365.693 99.5428C283.488 172.181 209.615 253.735 145.436 342.702C143.223 345.772 140.409 348.361 137.167 350.313C133.924 352.264 130.319 353.538 126.57 354.056C108.107 356.608 89.3202 355.452 71.3091 350.657C53.2981 345.862 36.4371 337.536 21.6871 326.142Z" fill="#4B3435"/>
<path d="M257.344 548.673C254.647 549.018 252.183 550.378 250.452 552.474C248.72 554.57 247.851 557.246 248.021 559.96C248.191 562.674 249.386 565.221 251.366 567.085C253.345 568.95 255.959 569.992 258.678 569.999H414.161C420.966 569.997 427.634 568.092 433.414 564.502C439.194 560.912 443.855 555.778 446.873 549.679C449.681 544.003 451.343 537.829 451.763 531.51C452.182 525.19 451.352 518.851 449.318 512.853C447.285 506.855 444.088 501.317 439.912 496.556C435.735 491.795 430.661 487.905 424.979 485.107C424.302 441.987 428.59 398.932 437.761 356.793C455.267 337.561 467.193 313.915 472.255 288.406C477.316 262.897 475.321 236.491 466.485 212.032C466.116 211.011 466.026 209.91 466.226 208.844C466.425 207.778 466.906 206.784 467.619 205.965C468.331 205.147 469.25 204.536 470.279 204.192C471.308 203.848 472.41 203.786 473.471 204.011C532.67 216.527 594.354 208.9 648.723 182.344C652.464 154.346 647.944 125.865 635.721 100.4C623.497 74.9356 604.101 53.5963 579.916 39.0036C505.899 38.6905 433.212 58.6745 369.759 96.7826C361.301 101.864 354.206 108.926 349.085 117.36C343.964 125.794 340.971 135.346 340.364 145.194C333.598 254.685 339.03 364.588 356.558 472.879C357.163 476.615 357.005 480.435 356.092 484.108C355.179 487.781 353.53 491.23 351.246 494.248C339.995 509.108 325.894 521.574 309.767 530.919C293.641 540.264 275.831 546.3 257.344 548.673Z" fill="#210809"/>
<path d="M243.542 383.041C241.333 383.041 239.542 384.832 239.542 387.041V423.041C239.542 425.25 241.333 427.041 243.542 427.041C245.751 427.041 247.542 425.25 247.542 423.041V391.041H279.542C281.751 391.041 283.542 389.25 283.542 387.041C283.542 384.832 281.751 383.041 279.542 383.041H243.542ZM330.459 477.958C332.668 477.958 334.459 476.167 334.459 473.958V437.958C334.459 435.749 332.668 433.958 330.459 433.958C328.249 433.958 326.459 435.749 326.459 437.958V469.958H294.459C292.249 469.958 290.459 471.749 290.459 473.958C290.459 476.167 292.249 477.958 294.459 477.958H330.459ZM240.714 389.869L327.63 476.786L333.287 471.129L246.37 384.213L240.714 389.869Z" fill="#D5454F"/>
</svg>
