<svg width="31" height="30" viewBox="0 0 31 30" fill="none" xmlns="http://www.w3.org/2000/svg">
<path d="M15.5 7.5C16.8807 7.5 18 6.38071 18 5C18 3.61929 16.8807 2.5 15.5 2.5C14.1193 2.5 13 3.61929 13 5C13 6.38071 14.1193 7.5 15.5 7.5Z" fill="#323232"/>
<path d="M24.25 16.25V13.75C22.325 13.775 20.3875 12.8125 19.1625 11.4625L17.55 9.67499C17.3375 9.43749 17.075 9.24999 16.7875 9.11249C16.775 9.11249 16.775 9.09999 16.7625 9.09999H16.75C16.3125 8.84999 15.8125 8.72499 15.2625 8.77499C13.95 8.88749 13 10.05 13 11.3625V18.75C13 20.125 14.125 21.25 15.5 21.25H21.75V27.5H24.25V20.625C24.25 19.25 23.125 18.125 21.75 18.125H18V13.8125C19.6125 15.15 22.0625 16.2375 24.25 16.25ZM13 25C10.925 25 9.25 23.325 9.25 21.25C9.25 19.6125 10.3 18.2375 11.75 17.7125V15.125C8.9 15.7 6.75 18.225 6.75 21.25C6.75 24.7 9.55 27.5 13 27.5C16.025 27.5 18.55 25.35 19.125 22.5H16.5375C16.025 23.95 14.6375 25 13 25Z" fill="#323232"/>
</svg>
