<svg width="713" height="719" viewBox="0 0 713 719" fill="none" xmlns="http://www.w3.org/2000/svg">
<path d="M318.245 483.242C326.011 481.602 340.496 476.221 345.276 470.102C350.203 463.529 362.749 451.732 378.729 441.132C374.547 436.502 370.068 432.768 365.141 430.08C356.032 425.153 344.835 422.314 333.631 422.314C319.443 422.314 306.303 426.794 297.043 434.71C282.407 447.403 268.22 461.294 254.631 474.732C247.016 482.2 239.396 489.664 231.781 496.982C221.479 506.691 209.828 517.592 202.661 531.482C184.292 566.728 199.974 609.133 224.912 632.878C248.057 654.832 281.36 667.972 324.219 672.004C327.505 672.301 331.088 672.603 334.521 672.603C343.031 672.603 349.901 670.962 355.578 667.676C361.849 663.941 366.479 658.269 370.365 653.192C378.427 642.889 386.791 632.285 392.463 619.889C399.036 606.004 401.724 590.618 403.067 576.285C399.635 578.972 396.198 581.66 393.359 584.202C392.911 584.498 346.917 625.863 319.291 625.863C311.677 625.863 305.103 623.024 300.625 617.8C295.099 611.227 293.156 603.462 294.947 595.998C290.468 596.742 286.286 597.19 282.552 597.19C264.182 597.19 259.254 586.138 257.912 581.508C256.417 576.279 257.016 570.607 259.703 565.377C255.823 561.497 254.031 556.268 253.729 551.492C252.682 539.992 259.255 532.08 268.213 526.554C266.271 522.971 264.63 517.148 267.021 509.382C272.401 492.648 297.938 485.929 318.245 483.242L318.245 483.242Z" fill="#D5454F"/>
<path d="M325.5 394.5L268.5 432.5L246.5 461L186.5 513.5L146 493.5L178 406L249.5 322.5L312 357L325.5 394.5Z" fill="#D5454F"/>
<path d="M644.138 287.389C632.341 273.05 619.346 268.123 599.638 229.301C587.992 206.451 573.95 184.65 556.778 165.535C543.038 150.155 527.21 134.926 514.814 129.697C514.726 129.66 514.653 129.66 514.564 129.629C511.851 127.488 509.09 125.541 506.252 123.952H506.101C485.939 113.051 462.497 114.692 439.199 106.031C416.502 97.3692 401.418 75.7187 401.418 51.3747V0H193.244V58.8387C156.958 63.6199 121.114 75.4173 109.468 101.547C82.8845 160.531 20.9165 307.773 8.21783 384.24C-4.47484 460.699 -1.18844 680.067 9.41053 714.72L72.1292 718.902C72.874 685.752 83.4781 351.836 119.468 313.022C119.468 313.022 121.411 477.142 119.765 534.036C119.765 534.036 82.5821 648.124 86.1661 716.822H455.313C463.677 690.686 457.401 639.317 449.339 583.169C449.188 583.466 449.042 583.914 448.891 584.216C448.292 589.143 447.099 596.164 444.261 601.986C441.276 607.809 436.646 612.289 428.73 612.289C425.147 612.289 418.725 611.096 413.798 603.476C412.006 611.091 409.47 618.711 406.032 626.173C399.61 640.059 390.35 652.007 382.136 662.46C377.506 668.283 371.834 675.45 363.022 680.679C355.105 685.309 345.699 687.549 334.5 687.549C330.62 687.549 326.584 687.252 322.703 686.95C276.558 682.47 240.271 667.986 214.734 643.794C185.614 616.168 167.546 566.439 189.349 524.627C197.713 508.496 210.854 496.106 221.453 486.1C228.619 479.381 235.641 472.36 242.655 465.491L244.15 463.996C245.234 462.939 246.374 461.845 247.463 460.782L221.952 461.079L224.791 476.913L225.087 478.559L223.296 478.704L191.041 480.048L191.937 495.731L192.088 498.715L188.802 499.012L163.114 499.163L163.41 491.101L185.509 492.444L185.66 477.658L185.811 475.121H188.348L221.801 475.866L220.306 460.335L220.009 459.44H220.905L247.468 460.783C260.192 448.325 273.28 435.497 287.312 423.529C299.26 413.076 315.833 407.398 333.604 407.398C347.344 407.398 361.082 410.83 372.281 417.106C379.302 420.986 385.718 426.367 391.396 433.085C407.078 424.272 424.698 417.554 441.125 417.554H441.422C455.61 350.95 490.255 292.565 490.255 292.565C490.255 292.565 491 291.07 492.198 288.383C493.042 286.476 494.224 283.778 495.536 280.757L496.432 286.513L586.927 394.034C586.927 394.034 476.567 434.503 443.86 432.565C411.006 430.622 367.251 465.57 357.095 479.158C346.793 492.595 320.21 498.122 320.21 498.122C320.21 498.122 284.819 502.752 281.236 513.799C277.804 524.852 292.882 522.763 292.882 522.763C292.882 522.763 334.997 510.07 347.09 512.013C359.184 513.805 306.918 530.232 306.918 530.232C306.918 530.232 267.194 534.862 268.538 550.538C269.585 566.069 303.336 550.835 303.336 550.835L334.696 544.861C321.555 548.148 267.794 562.033 272.274 577.564C277.055 595.037 359.785 558.6 363.968 556.657C357.098 567.855 326.337 585.475 326.337 585.475C326.337 585.475 300.951 594.881 311.998 608.172C323.347 621.464 370.982 584.276 383.378 573.079C395.774 561.881 418.321 546.797 418.321 546.797C413.54 557.099 419.514 582.636 425.79 594.287C431.764 606.083 434.3 579.948 434.3 579.948C443.706 562.776 439.529 545.005 439.529 545.005C439.529 545.005 448.79 536.49 443.56 503.489C439.67 478.192 508.872 483.692 541.394 487.64C553.717 489.135 566.03 489.124 578.336 487.52C609.763 483.421 669.383 473.76 700.263 456.452C743.284 432.103 658.164 304.425 644.127 287.399L644.138 287.389ZM236.898 352.795L243.768 337.863L251.086 341.447L244.065 353.692L253.325 361.754L254.669 362.947L254.221 364.442L247.648 388.786L261.684 400.28L262.283 400.577L262.132 401.025L256.903 416.405L260.486 401.323L244.955 390.718L244.356 390.27V389.375L248.836 365.031L237.935 356.968L235.846 355.473L236.898 352.795ZM247.351 429.254L233.763 437.468L232.716 437.916L231.971 437.322L211.665 423.286L201.061 431.796L199.42 433.442L197.331 431.65C193.003 428.666 188.519 425.229 184.191 421.645L191.357 418.062C193.894 420.15 196.587 422.541 199.42 424.781L210.17 417.911L211.811 416.713L213.154 417.911L233.165 434.338L247.05 427.468H247.347L247.644 427.916L263.92 437.473L247.351 429.254ZM300.663 386.098L301.262 388.041L299.918 389.233L282.148 404.764L285.58 420.592V421.337L285.283 421.488L273.783 427.014L284.236 420.592L279.309 404.461L279.012 403.868L279.611 403.123L294.846 387.29L289.768 377.883L287.976 375.196L291.111 373.555L305.747 364.743L309.482 372.06L296.789 377.883L300.663 386.098ZM294.434 516.973C294.205 517.869 293.908 518.785 293.262 519.447C292.809 519.916 292.21 520.218 291.611 520.468C290.835 520.791 289.986 521.051 289.168 520.853C288.429 520.671 287.835 520.139 287.272 519.629C286.304 518.744 285.288 517.785 284.96 516.515C284.83 516.015 284.819 515.494 284.856 514.978C284.976 513.28 285.663 511.64 286.762 510.343C287.684 509.254 288.637 507.796 290.189 507.718C292.168 507.613 293.939 509.228 294.575 511.108C295.21 512.983 294.929 515.051 294.434 516.973V516.973ZM286.174 550.061C285.715 551.941 284.319 553.67 282.439 554.123C281.715 554.3 280.955 554.28 280.21 554.259C279.33 554.238 278.444 554.212 277.559 554.191C277.33 554.186 277.095 554.175 276.866 554.134C276.569 554.071 276.288 553.936 276.022 553.78C274.225 552.696 273.335 550.519 273.199 548.425C273.147 547.613 273.194 546.78 273.496 546.024C274.033 544.701 275.241 543.806 276.298 542.91C277.679 541.743 278.663 540.801 280.554 540.738C283.241 540.655 284.757 541.889 285.637 544.373C286.288 546.186 286.632 548.181 286.173 550.061L286.174 550.061ZM288.293 575.957C288.022 576.644 287.689 577.327 287.153 577.832C286.132 578.795 284.538 578.931 283.189 578.535C281.845 578.139 280.684 577.29 279.554 576.452C279.121 576.134 278.679 575.795 278.434 575.321C278.225 574.915 278.184 574.441 278.168 573.983C278.059 570.54 280.236 567.165 283.543 566.024C284.126 565.821 284.757 565.696 285.371 565.785C286.267 565.915 287.048 566.498 287.626 567.196C288.606 568.379 289.1 569.925 289.158 571.462C289.215 572.993 288.861 574.524 288.293 575.957L288.293 575.957ZM326.632 606.869C326.158 607.603 325.335 608.056 324.481 608.254C323.627 608.452 322.741 608.421 321.872 608.374C320.564 608.306 319.246 608.197 318.002 607.791C316.757 607.384 315.585 606.65 314.872 605.551C314.392 604.812 314.148 603.937 314.007 603.067C313.71 601.244 313.658 598.509 314.424 596.749C315.231 594.89 318.476 594.832 320.153 594.452C321.653 594.113 323.382 593.817 324.616 594.739C325.049 595.067 325.372 595.515 325.653 595.983C327.148 598.504 327.387 601.582 327.215 604.509C327.163 605.332 327.075 606.181 326.632 606.869L326.632 606.869ZM430.793 587.775C430.512 588.359 430.153 588.968 429.554 589.208C427.309 590.109 424.825 586.119 424.72 584.26C424.616 582.427 426.241 578.338 428.023 577.63C429.2 577.161 430.528 578.015 431.215 579.083C432.038 580.359 432.299 581.942 432.147 583.452C431.996 584.963 431.465 586.411 430.793 587.775L430.793 587.775Z" fill="#210809"/>
</svg>
