<svg width="331" height="344" viewBox="0 0 331 344" fill="none" xmlns="http://www.w3.org/2000/svg">
<mask id="path-1-outside-1_3719_8822" maskUnits="userSpaceOnUse" x="0" y="0" width="331" height="344" fill="black">
<rect fill="white" width="331" height="344"/>
<path d="M327.066 343H293.121C291.848 343 290.729 342.189 290.344 340.992C285.522 326.201 282.552 310.831 281.51 295.23C276.534 293.453 271.982 290.596 268.241 286.85C261.49 293.569 252.348 297.354 242.743 297.354C233.138 297.354 223.996 293.569 217.246 286.85C210.457 293.569 201.353 297.354 191.748 297.354C182.143 297.354 173.001 293.569 166.251 286.85C159.462 293.569 150.358 297.354 140.754 297.354C131.149 297.354 122.007 293.569 115.256 286.85C108.467 293.569 99.3637 297.354 89.7587 297.354C80.1538 297.354 71.0118 293.569 64.2614 286.85C57.4723 293.569 48.3689 297.354 38.7639 297.354C18.744 297.354 2.46581 281.057 2.46581 261.014C2.46581 252.904 5.16599 245.104 10.1035 238.732C4.20164 232.089 1 223.632 1 214.673C1 207.722 2.9287 201.079 6.6318 195.248C3.89305 190.073 2.46581 184.242 2.46581 178.333C2.46581 158.291 18.744 141.994 38.7639 141.994C48.3689 141.994 57.5109 145.778 64.2614 152.498C71.0504 145.778 80.1538 141.994 89.7587 141.994C91.456 141.994 93.2304 142.11 95.0048 142.38C102.565 143.5 109.547 146.937 115.025 152.266C118.998 147.98 126.018 142.535 126.095 142.496C129.644 140.333 134.157 138.75 139.905 137.707C146.578 136.472 158.266 135.622 166.174 142.341C172.5 136.433 182.066 133.073 192.327 133.305C197.496 133.421 202.511 134.425 207.255 136.317C207.332 136.356 213.62 139.368 217.477 142.264C224.845 136.819 235.723 136.317 243.283 137.707C248.954 138.75 253.428 140.99 257.826 143.963C257.594 142.419 257.44 140.835 257.44 139.213C257.44 135.274 258.096 131.413 259.291 127.744C254.238 130.37 248.568 131.76 242.705 131.76C233.1 131.76 223.958 127.976 217.207 121.256C210.418 127.976 201.315 131.76 191.71 131.76C183.802 131.76 176.319 129.25 169.993 124.5C168.643 123.496 167.37 122.415 166.212 121.256C159.423 127.976 150.32 131.76 140.715 131.76C131.11 131.76 121.968 127.976 115.218 121.256C108.429 127.976 99.3251 131.76 89.7202 131.76C80.1153 131.76 70.9732 127.976 64.2228 121.256C57.4337 127.976 48.3303 131.76 38.7254 131.76C18.7055 131.76 2.42724 115.463 2.42724 95.4207C2.42724 85.5732 6.43893 76.189 13.4594 69.3537C2.89012 33.1687 6.40036 4.74593 6.55465 3.54878C6.74752 2.0813 7.98189 1 9.4477 1H43.0457C43.8943 1 44.7043 1.34756 45.2444 2.00406C45.7844 2.62195 46.0544 3.47154 45.9387 4.32114C43.1999 26.565 47.7517 49.0406 51.069 61.3211C56.0065 63.0976 60.4811 65.9553 64.2228 69.6626C71.0118 62.9431 80.1153 59.1585 89.7202 59.1585C99.3251 59.1585 108.467 62.9431 115.218 69.6626C122.007 62.9431 131.11 59.1585 140.715 59.1585C150.32 59.1585 159.462 62.9431 166.212 69.6626C173.001 62.9431 182.105 59.1585 191.71 59.1585C196.994 59.1585 202.125 60.2785 206.908 62.5183C210.688 64.2947 214.198 66.7276 217.207 69.6626C223.996 62.9431 233.1 59.1585 242.705 59.1585C252.31 59.1585 261.452 62.9431 268.202 69.6626C274.991 62.9431 284.095 59.1585 293.699 59.1585C313.719 59.1585 329.998 75.4553 329.998 95.498C329.998 103.415 327.413 111.1 322.669 117.394C327.413 123.689 329.998 131.374 329.998 139.291C329.998 146.28 328.03 153 324.289 158.831C328.03 164.663 329.998 171.382 329.998 178.372C329.998 198.415 313.719 214.711 293.699 214.711C284.133 214.711 275.03 210.965 268.279 204.285C261.606 211.738 254.778 217.067 244.865 218.998C237.189 220.504 230.091 220.002 224.266 217.53C221.296 216.256 218.519 215.098 215.819 215.87C214.353 216.295 212.926 217.067 211.421 217.878C210.997 218.11 210.572 218.341 210.148 218.535C198.422 224.598 186.039 225.177 176.126 220.157C172.886 218.535 169.26 216.565 165.904 214.209C162.664 216.14 155.643 219.732 148.507 219.346C139.828 218.844 129.953 217.762 122.122 211.39C119.692 209.421 117.571 207.142 115.488 204.98C115.218 204.709 114.986 204.439 114.716 204.169C113.945 204.748 113.212 205.289 112.479 205.868L111.244 206.833C108.081 209.228 104.61 211.699 99.788 213.089C90.8388 215.715 81.3496 214.789 73.2877 210.734C73.442 212.047 73.5191 213.36 73.5191 214.673C73.5191 220.234 72.2462 225.679 69.8546 230.583C75.6792 226.76 82.584 224.675 89.7202 224.675C99.3251 224.675 108.467 228.459 115.218 235.179C122.007 228.459 131.11 224.675 140.715 224.675C150.32 224.675 159.462 228.459 166.212 235.179C173.001 228.459 182.105 224.675 191.71 224.675C201.315 224.675 210.457 228.459 217.207 235.179C223.996 228.459 233.1 224.675 242.705 224.675C252.31 224.675 261.452 228.459 268.202 235.179C274.991 228.459 284.095 224.675 293.699 224.675C313.719 224.675 329.998 240.972 329.998 261.014C329.998 270.244 326.565 278.972 320.316 285.73C320.508 313.882 329.728 338.791 329.805 339.061C330.152 339.949 330.036 340.992 329.458 341.764C328.918 342.537 328.03 343 327.066 343ZM295.281 337.13H322.977C320.238 328.673 314.414 307.819 314.452 284.533C314.452 283.76 314.761 283.026 315.301 282.486C321.01 276.732 324.134 269.124 324.134 261.014C324.134 244.215 310.479 230.545 293.699 230.545C284.712 230.545 276.225 234.484 270.439 241.396C269.321 242.709 267.083 242.709 265.965 241.396C260.179 234.522 251.692 230.545 242.705 230.545C233.717 230.545 225.231 234.484 219.445 241.396C218.904 242.053 218.056 242.439 217.207 242.439C216.359 242.439 215.51 242.053 214.97 241.396C209.184 234.522 200.698 230.545 191.71 230.545C182.722 230.545 174.236 234.484 168.45 241.396C167.331 242.709 165.094 242.709 163.975 241.396C158.189 234.522 149.703 230.545 140.715 230.545C131.727 230.545 123.241 234.484 117.455 241.396C116.915 242.053 116.066 242.439 115.218 242.439C114.369 242.439 113.52 242.053 112.98 241.396C107.194 234.522 98.7079 230.545 89.7202 230.545C80.7324 230.545 72.2462 234.484 66.4601 241.396C65.3414 242.709 63.1041 242.709 61.9855 241.396C61.3683 240.663 60.674 239.929 59.9411 239.195C58.8224 238.075 58.7453 236.299 59.8253 235.102C64.9171 229.502 67.6944 222.242 67.6944 214.673C67.6944 211.506 67.193 208.417 66.2672 205.404C65.8814 204.169 66.3443 202.817 67.3858 202.083C68.4659 201.35 69.8546 201.388 70.8575 202.199C78.4566 208.224 88.6787 210.193 98.2065 207.413C102.064 206.293 104.957 204.246 107.773 202.122L109.007 201.195C110.434 200.114 111.9 198.994 113.52 197.874C114.678 197.102 116.259 197.217 117.262 198.222C118.111 199.11 118.998 199.998 119.846 200.886C121.775 202.933 123.781 205.018 125.903 206.795C132.344 212.047 141.178 212.974 148.931 213.437C155.142 213.823 162.201 209.807 164.399 208.224C165.441 207.49 166.868 207.49 167.91 208.301C171.266 210.927 175.354 213.128 178.865 214.904C187.081 219.075 197.534 218.496 207.525 213.321C207.911 213.128 208.335 212.896 208.721 212.665C210.418 211.738 212.193 210.811 214.237 210.193C218.943 208.803 223.186 210.618 226.619 212.085C232.598 214.634 239.272 214.094 243.785 213.205C253.158 211.39 259.253 206.022 266.042 197.951C266.582 197.295 267.431 196.909 268.279 196.909C269.128 196.909 269.976 197.295 270.516 197.951C276.303 204.825 284.789 208.803 293.777 208.803C310.556 208.803 324.211 195.132 324.211 178.333C324.211 171.884 322.206 165.705 318.425 160.492C317.692 159.449 317.692 158.059 318.425 157.055C322.206 151.841 324.211 145.663 324.211 139.213C324.211 131.876 321.55 124.77 316.767 119.248C315.802 118.128 315.802 116.506 316.767 115.386C321.588 109.864 324.211 102.758 324.211 95.4207C324.211 78.622 310.556 64.9512 293.777 64.9512C284.789 64.9512 276.303 68.8902 270.516 75.8028C269.398 77.1159 267.161 77.1159 266.042 75.8028C260.256 68.9289 251.77 64.9512 242.782 64.9512C233.794 64.9512 225.308 68.8902 219.522 75.8028C218.982 76.4593 218.133 76.8455 217.284 76.8455C216.436 76.8455 215.587 76.4593 215.047 75.8028C212.193 72.4045 208.567 69.624 204.516 67.7703C200.505 65.9167 196.223 64.9512 191.787 64.9512C182.799 64.9512 174.313 68.8902 168.527 75.8028C167.408 77.1159 165.171 77.1159 164.052 75.8028C158.266 68.9289 149.78 64.9512 140.792 64.9512C131.804 64.9512 123.318 68.8902 117.532 75.8028C116.992 76.4593 116.143 76.8455 115.295 76.8455C114.446 76.8455 113.597 76.4593 113.057 75.8028C107.271 68.9289 98.7851 64.9512 89.7973 64.9512C80.8096 64.9512 72.3233 68.8902 66.5372 75.8028C65.4186 77.1159 63.1813 77.1159 62.0626 75.8028C58.3209 71.3618 53.3835 68.0793 47.8674 66.3415C46.9031 66.0325 46.1701 65.2988 45.9001 64.3333C42.6599 52.5935 37.6839 29.9248 39.844 6.8313H12.1865C11.6078 14.7093 10.6821 39.7724 19.6698 69.3923C20.017 70.5122 19.6698 71.7094 18.7826 72.4431C12.1479 78.2358 8.36763 86.6159 8.36763 95.3821C8.36763 112.181 22.0228 125.852 38.8025 125.852C47.7903 125.852 56.2765 121.913 62.0626 115C63.1813 113.687 65.4186 113.687 66.5372 115C72.3233 121.874 80.8096 125.852 89.7973 125.852C98.7851 125.852 107.271 121.913 113.057 115C114.176 113.687 116.413 113.687 117.532 115C123.318 121.874 131.804 125.852 140.792 125.852C149.78 125.852 158.266 121.913 164.052 115C164.592 114.344 165.441 113.957 166.29 113.957C167.138 113.957 167.987 114.344 168.527 115C169.993 116.738 171.69 118.36 173.58 119.75C178.865 123.728 185.152 125.813 191.787 125.813C200.775 125.813 209.261 121.874 215.047 114.961C216.166 113.648 218.403 113.648 219.522 114.961C225.308 121.835 233.794 125.813 242.782 125.813C251.77 125.813 260.256 121.874 266.042 114.961C267.161 113.648 269.398 113.648 270.516 114.961L270.825 115.309C271.789 116.429 271.789 118.051 270.825 119.171C266.003 124.693 263.342 131.799 263.342 139.136C263.342 142.303 264.036 145.315 264.808 148.559L265.193 150.22C265.463 151.417 264.962 152.691 263.92 153.348C262.879 154.004 261.529 153.927 260.564 153.193C254.277 148.289 249.301 144.697 242.319 143.423C234.797 142.033 224.845 142.998 219.56 148.173C218.403 149.293 216.551 149.293 215.394 148.134C215.201 147.941 215.086 147.748 214.931 147.555C213.157 146.165 206.252 142.226 205.095 141.724C201.083 140.102 196.724 139.252 192.25 139.136C182.491 138.943 173.58 142.38 168.527 148.404C167.987 149.061 167.138 149.447 166.29 149.447C165.441 149.447 164.592 149.061 164.052 148.404C157.996 141.222 145.922 142.535 141.024 143.423C135.97 144.35 132.113 145.663 129.22 147.439C127.831 148.366 119.808 155.433 118.149 157.518C117.995 158.098 117.686 158.6 117.185 159.024C115.95 160.067 114.099 159.913 113.057 158.677C108.236 152.961 101.562 149.254 94.1948 148.173C92.6904 147.941 91.2246 147.825 89.7973 147.825C80.8096 147.825 72.3233 151.764 66.5372 158.677C65.4186 159.99 63.1813 159.99 62.0626 158.677C56.2765 151.803 47.7903 147.825 38.8025 147.825C22.0228 147.825 8.36763 161.496 8.36763 178.295C8.36763 183.778 9.83344 189.146 12.6108 193.819C13.1894 194.823 13.1508 196.059 12.495 197.024C8.83052 202.199 6.90182 208.262 6.90182 214.596C6.90182 222.86 10.1806 230.622 16.121 236.415C17.2397 237.535 17.3168 239.311 16.2367 240.508C11.145 246.108 8.36763 253.368 8.36763 260.937C8.36763 277.736 22.0228 291.407 38.8025 291.407C47.7903 291.407 56.2765 287.467 62.0626 280.555C62.6027 279.898 63.4513 279.512 64.2999 279.512C65.1485 279.512 65.9972 279.898 66.5372 280.555C72.3233 287.429 80.8096 291.407 89.7973 291.407C98.7851 291.407 107.271 287.467 113.057 280.555C114.176 279.242 116.413 279.242 117.532 280.555C123.318 287.429 131.804 291.407 140.792 291.407C149.78 291.407 158.266 287.467 164.052 280.555C165.171 279.242 167.408 279.242 168.527 280.555C174.313 287.429 182.799 291.407 191.787 291.407C200.775 291.407 209.261 287.467 215.047 280.555C216.166 279.242 218.403 279.242 219.522 280.555C225.308 287.429 233.794 291.407 242.782 291.407C251.77 291.407 260.256 287.467 266.042 280.555C267.161 279.242 269.398 279.242 270.516 280.555C274.374 285.15 279.466 288.472 285.175 290.171C286.37 290.518 287.219 291.6 287.258 292.835C288.068 307.935 290.768 322.803 295.281 337.13Z"/>
<path d="M59.0153 82.252C58.2824 82.252 57.5495 81.9817 56.9709 81.4411C55.8136 80.3211 55.7751 78.4675 56.8937 77.2703L62.1012 71.9024C63.2198 70.7439 65.0714 70.7053 66.2672 71.8252C67.4244 72.9451 67.463 74.7988 66.3443 75.9959L61.1369 81.3638C60.5197 81.9431 59.7482 82.252 59.0153 82.252Z"/>
<path d="M120.579 82.252C119.846 82.252 119.075 81.9817 118.496 81.4024L113.135 76.0346C111.977 74.876 111.977 73.0224 113.135 71.8638C114.292 70.7053 116.143 70.7053 117.301 71.8638L122.662 77.2317C123.82 78.3902 123.82 80.2439 122.662 81.4024C122.084 81.9817 121.312 82.252 120.579 82.252Z"/>
<path d="M212.733 82.252C212.077 82.252 211.421 82.0203 210.843 81.5569C209.608 80.5142 209.415 78.6606 210.457 77.4248L214.931 72.0569C215.973 70.8211 217.824 70.628 219.059 71.6707C220.293 72.7134 220.486 74.5671 219.445 75.8028L214.97 81.1707C214.43 81.9045 213.581 82.252 212.733 82.252Z"/>
<path d="M274.335 84.3374C273.487 84.3374 272.638 83.9898 272.059 83.2561L265.965 75.8028C264.923 74.5671 265.116 72.7134 266.389 71.6707C267.623 70.628 269.475 70.8211 270.516 72.0955L276.611 79.5488C277.653 80.7846 277.46 82.6382 276.187 83.6809C275.647 84.1057 274.991 84.3374 274.335 84.3374Z"/>
<path d="M166.212 119.904C165.364 119.904 164.554 119.557 163.975 118.862L156.762 110.173C155.72 108.937 155.913 107.083 157.148 106.041C158.382 104.998 160.233 105.191 161.275 106.427L168.488 115.116C169.53 116.352 169.337 118.205 168.103 119.248C167.562 119.673 166.868 119.904 166.212 119.904Z"/>
<path d="M217.207 119.904C216.59 119.904 215.973 119.711 215.433 119.287C214.16 118.283 213.89 116.467 214.893 115.154L222.8 104.843C223.803 103.569 225.616 103.299 226.928 104.303C228.201 105.307 228.471 107.122 227.468 108.435L219.56 118.746C218.943 119.48 218.094 119.904 217.207 119.904Z"/>
<path d="M17.2396 205.636C16.4682 205.636 15.7353 205.327 15.1567 204.748L7.94332 197.411C6.82467 196.252 6.82467 194.398 7.98189 193.24C9.13911 192.081 10.9907 192.12 12.1479 193.278L19.3612 200.616C20.4799 201.774 20.4799 203.628 19.3226 204.787C18.7055 205.366 17.9726 205.636 17.2396 205.636Z"/>
<path d="M64.2228 285.421C63.6056 285.421 62.9884 285.228 62.4484 284.841C61.1369 283.876 60.9054 282.022 61.8698 280.748L69.4303 270.669C70.3946 269.356 72.2462 269.124 73.5191 270.089C74.8306 271.055 75.0621 272.909 74.0977 274.183L66.5372 284.262C65.9972 285.035 65.11 285.421 64.2228 285.421Z"/>
<path d="M115.218 285.421C114.369 285.421 113.52 285.035 112.942 284.339L104.725 274.26C103.684 272.986 103.877 271.171 105.15 270.128C106.423 269.085 108.236 269.278 109.277 270.553L117.493 280.632C118.535 281.906 118.342 283.722 117.069 284.764C116.529 285.228 115.873 285.421 115.218 285.421Z"/>
<path d="M217.207 285.421C216.59 285.421 215.934 285.228 215.394 284.803C214.121 283.799 213.89 281.945 214.893 280.671L222.8 270.591C223.803 269.317 225.655 269.085 226.928 270.089C228.201 271.093 228.432 272.947 227.429 274.222L219.522 284.301C218.943 285.073 218.094 285.421 217.207 285.421Z"/>
<path d="M158.999 250.587C158.305 250.587 157.61 250.356 157.07 249.854C155.875 248.772 155.759 246.919 156.8 245.683L164.014 237.535C165.094 236.337 166.945 236.222 168.141 237.264C169.337 238.346 169.453 240.199 168.411 241.396L161.198 249.545C160.619 250.24 159.809 250.587 158.999 250.587Z"/>
<path d="M276.11 250.587C275.338 250.587 274.567 250.278 273.988 249.699L266.119 241.551C265 240.392 265.039 238.539 266.196 237.38C267.353 236.26 269.205 236.299 270.324 237.457L278.193 245.606C279.311 246.764 279.273 248.618 278.116 249.776C277.576 250.317 276.843 250.587 276.11 250.587Z"/>
<path d="M215.009 215.947C214.083 215.947 213.157 215.484 212.578 214.673C211.653 213.321 212 211.506 213.35 210.579L223.495 203.628C224.845 202.701 226.658 203.049 227.584 204.4C228.509 205.752 228.162 207.567 226.812 208.494L216.667 215.445C216.166 215.793 215.587 215.947 215.009 215.947Z"/>
<path d="M268.202 162.5C267.276 162.5 266.35 162.075 265.772 161.226L259.832 152.614C258.906 151.262 259.253 149.447 260.564 148.52C261.914 147.594 263.727 147.941 264.653 149.254L270.594 157.866C271.519 159.217 271.172 161.033 269.861 161.959C269.359 162.307 268.781 162.5 268.202 162.5Z"/>
</mask>
<path d="M327.066 343H293.121C291.848 343 290.729 342.189 290.344 340.992C285.522 326.201 282.552 310.831 281.51 295.23C276.534 293.453 271.982 290.596 268.241 286.85C261.49 293.569 252.348 297.354 242.743 297.354C233.138 297.354 223.996 293.569 217.246 286.85C210.457 293.569 201.353 297.354 191.748 297.354C182.143 297.354 173.001 293.569 166.251 286.85C159.462 293.569 150.358 297.354 140.754 297.354C131.149 297.354 122.007 293.569 115.256 286.85C108.467 293.569 99.3637 297.354 89.7587 297.354C80.1538 297.354 71.0118 293.569 64.2614 286.85C57.4723 293.569 48.3689 297.354 38.7639 297.354C18.744 297.354 2.46581 281.057 2.46581 261.014C2.46581 252.904 5.16599 245.104 10.1035 238.732C4.20164 232.089 1 223.632 1 214.673C1 207.722 2.9287 201.079 6.6318 195.248C3.89305 190.073 2.46581 184.242 2.46581 178.333C2.46581 158.291 18.744 141.994 38.7639 141.994C48.3689 141.994 57.5109 145.778 64.2614 152.498C71.0504 145.778 80.1538 141.994 89.7587 141.994C91.456 141.994 93.2304 142.11 95.0048 142.38C102.565 143.5 109.547 146.937 115.025 152.266C118.998 147.98 126.018 142.535 126.095 142.496C129.644 140.333 134.157 138.75 139.905 137.707C146.578 136.472 158.266 135.622 166.174 142.341C172.5 136.433 182.066 133.073 192.327 133.305C197.496 133.421 202.511 134.425 207.255 136.317C207.332 136.356 213.62 139.368 217.477 142.264C224.845 136.819 235.723 136.317 243.283 137.707C248.954 138.75 253.428 140.99 257.826 143.963C257.594 142.419 257.44 140.835 257.44 139.213C257.44 135.274 258.096 131.413 259.291 127.744C254.238 130.37 248.568 131.76 242.705 131.76C233.1 131.76 223.958 127.976 217.207 121.256C210.418 127.976 201.315 131.76 191.71 131.76C183.802 131.76 176.319 129.25 169.993 124.5C168.643 123.496 167.37 122.415 166.212 121.256C159.423 127.976 150.32 131.76 140.715 131.76C131.11 131.76 121.968 127.976 115.218 121.256C108.429 127.976 99.3251 131.76 89.7202 131.76C80.1153 131.76 70.9732 127.976 64.2228 121.256C57.4337 127.976 48.3303 131.76 38.7254 131.76C18.7055 131.76 2.42724 115.463 2.42724 95.4207C2.42724 85.5732 6.43893 76.189 13.4594 69.3537C2.89012 33.1687 6.40036 4.74593 6.55465 3.54878C6.74752 2.0813 7.98189 1 9.4477 1H43.0457C43.8943 1 44.7043 1.34756 45.2444 2.00406C45.7844 2.62195 46.0544 3.47154 45.9387 4.32114C43.1999 26.565 47.7517 49.0406 51.069 61.3211C56.0065 63.0976 60.4811 65.9553 64.2228 69.6626C71.0118 62.9431 80.1153 59.1585 89.7202 59.1585C99.3251 59.1585 108.467 62.9431 115.218 69.6626C122.007 62.9431 131.11 59.1585 140.715 59.1585C150.32 59.1585 159.462 62.9431 166.212 69.6626C173.001 62.9431 182.105 59.1585 191.71 59.1585C196.994 59.1585 202.125 60.2785 206.908 62.5183C210.688 64.2947 214.198 66.7276 217.207 69.6626C223.996 62.9431 233.1 59.1585 242.705 59.1585C252.31 59.1585 261.452 62.9431 268.202 69.6626C274.991 62.9431 284.095 59.1585 293.699 59.1585C313.719 59.1585 329.998 75.4553 329.998 95.498C329.998 103.415 327.413 111.1 322.669 117.394C327.413 123.689 329.998 131.374 329.998 139.291C329.998 146.28 328.03 153 324.289 158.831C328.03 164.663 329.998 171.382 329.998 178.372C329.998 198.415 313.719 214.711 293.699 214.711C284.133 214.711 275.03 210.965 268.279 204.285C261.606 211.738 254.778 217.067 244.865 218.998C237.189 220.504 230.091 220.002 224.266 217.53C221.296 216.256 218.519 215.098 215.819 215.87C214.353 216.295 212.926 217.067 211.421 217.878C210.997 218.11 210.572 218.341 210.148 218.535C198.422 224.598 186.039 225.177 176.126 220.157C172.886 218.535 169.26 216.565 165.904 214.209C162.664 216.14 155.643 219.732 148.507 219.346C139.828 218.844 129.953 217.762 122.122 211.39C119.692 209.421 117.571 207.142 115.488 204.98C115.218 204.709 114.986 204.439 114.716 204.169C113.945 204.748 113.212 205.289 112.479 205.868L111.244 206.833C108.081 209.228 104.61 211.699 99.788 213.089C90.8388 215.715 81.3496 214.789 73.2877 210.734C73.442 212.047 73.5191 213.36 73.5191 214.673C73.5191 220.234 72.2462 225.679 69.8546 230.583C75.6792 226.76 82.584 224.675 89.7202 224.675C99.3251 224.675 108.467 228.459 115.218 235.179C122.007 228.459 131.11 224.675 140.715 224.675C150.32 224.675 159.462 228.459 166.212 235.179C173.001 228.459 182.105 224.675 191.71 224.675C201.315 224.675 210.457 228.459 217.207 235.179C223.996 228.459 233.1 224.675 242.705 224.675C252.31 224.675 261.452 228.459 268.202 235.179C274.991 228.459 284.095 224.675 293.699 224.675C313.719 224.675 329.998 240.972 329.998 261.014C329.998 270.244 326.565 278.972 320.316 285.73C320.508 313.882 329.728 338.791 329.805 339.061C330.152 339.949 330.036 340.992 329.458 341.764C328.918 342.537 328.03 343 327.066 343ZM295.281 337.13H322.977C320.238 328.673 314.414 307.819 314.452 284.533C314.452 283.76 314.761 283.026 315.301 282.486C321.01 276.732 324.134 269.124 324.134 261.014C324.134 244.215 310.479 230.545 293.699 230.545C284.712 230.545 276.225 234.484 270.439 241.396C269.321 242.709 267.083 242.709 265.965 241.396C260.179 234.522 251.692 230.545 242.705 230.545C233.717 230.545 225.231 234.484 219.445 241.396C218.904 242.053 218.056 242.439 217.207 242.439C216.359 242.439 215.51 242.053 214.97 241.396C209.184 234.522 200.698 230.545 191.71 230.545C182.722 230.545 174.236 234.484 168.45 241.396C167.331 242.709 165.094 242.709 163.975 241.396C158.189 234.522 149.703 230.545 140.715 230.545C131.727 230.545 123.241 234.484 117.455 241.396C116.915 242.053 116.066 242.439 115.218 242.439C114.369 242.439 113.52 242.053 112.98 241.396C107.194 234.522 98.7079 230.545 89.7202 230.545C80.7324 230.545 72.2462 234.484 66.4601 241.396C65.3414 242.709 63.1041 242.709 61.9855 241.396C61.3683 240.663 60.674 239.929 59.9411 239.195C58.8224 238.075 58.7453 236.299 59.8253 235.102C64.9171 229.502 67.6944 222.242 67.6944 214.673C67.6944 211.506 67.193 208.417 66.2672 205.404C65.8814 204.169 66.3443 202.817 67.3858 202.083C68.4659 201.35 69.8546 201.388 70.8575 202.199C78.4566 208.224 88.6787 210.193 98.2065 207.413C102.064 206.293 104.957 204.246 107.773 202.122L109.007 201.195C110.434 200.114 111.9 198.994 113.52 197.874C114.678 197.102 116.259 197.217 117.262 198.222C118.111 199.11 118.998 199.998 119.846 200.886C121.775 202.933 123.781 205.018 125.903 206.795C132.344 212.047 141.178 212.974 148.931 213.437C155.142 213.823 162.201 209.807 164.399 208.224C165.441 207.49 166.868 207.49 167.91 208.301C171.266 210.927 175.354 213.128 178.865 214.904C187.081 219.075 197.534 218.496 207.525 213.321C207.911 213.128 208.335 212.896 208.721 212.665C210.418 211.738 212.193 210.811 214.237 210.193C218.943 208.803 223.186 210.618 226.619 212.085C232.598 214.634 239.272 214.094 243.785 213.205C253.158 211.39 259.253 206.022 266.042 197.951C266.582 197.295 267.431 196.909 268.279 196.909C269.128 196.909 269.976 197.295 270.516 197.951C276.303 204.825 284.789 208.803 293.777 208.803C310.556 208.803 324.211 195.132 324.211 178.333C324.211 171.884 322.206 165.705 318.425 160.492C317.692 159.449 317.692 158.059 318.425 157.055C322.206 151.841 324.211 145.663 324.211 139.213C324.211 131.876 321.55 124.77 316.767 119.248C315.802 118.128 315.802 116.506 316.767 115.386C321.588 109.864 324.211 102.758 324.211 95.4207C324.211 78.622 310.556 64.9512 293.777 64.9512C284.789 64.9512 276.303 68.8902 270.516 75.8028C269.398 77.1159 267.161 77.1159 266.042 75.8028C260.256 68.9289 251.77 64.9512 242.782 64.9512C233.794 64.9512 225.308 68.8902 219.522 75.8028C218.982 76.4593 218.133 76.8455 217.284 76.8455C216.436 76.8455 215.587 76.4593 215.047 75.8028C212.193 72.4045 208.567 69.624 204.516 67.7703C200.505 65.9167 196.223 64.9512 191.787 64.9512C182.799 64.9512 174.313 68.8902 168.527 75.8028C167.408 77.1159 165.171 77.1159 164.052 75.8028C158.266 68.9289 149.78 64.9512 140.792 64.9512C131.804 64.9512 123.318 68.8902 117.532 75.8028C116.992 76.4593 116.143 76.8455 115.295 76.8455C114.446 76.8455 113.597 76.4593 113.057 75.8028C107.271 68.9289 98.7851 64.9512 89.7973 64.9512C80.8096 64.9512 72.3233 68.8902 66.5372 75.8028C65.4186 77.1159 63.1813 77.1159 62.0626 75.8028C58.3209 71.3618 53.3835 68.0793 47.8674 66.3415C46.9031 66.0325 46.1701 65.2988 45.9001 64.3333C42.6599 52.5935 37.6839 29.9248 39.844 6.8313H12.1865C11.6078 14.7093 10.6821 39.7724 19.6698 69.3923C20.017 70.5122 19.6698 71.7094 18.7826 72.4431C12.1479 78.2358 8.36763 86.6159 8.36763 95.3821C8.36763 112.181 22.0228 125.852 38.8025 125.852C47.7903 125.852 56.2765 121.913 62.0626 115C63.1813 113.687 65.4186 113.687 66.5372 115C72.3233 121.874 80.8096 125.852 89.7973 125.852C98.7851 125.852 107.271 121.913 113.057 115C114.176 113.687 116.413 113.687 117.532 115C123.318 121.874 131.804 125.852 140.792 125.852C149.78 125.852 158.266 121.913 164.052 115C164.592 114.344 165.441 113.957 166.29 113.957C167.138 113.957 167.987 114.344 168.527 115C169.993 116.738 171.69 118.36 173.58 119.75C178.865 123.728 185.152 125.813 191.787 125.813C200.775 125.813 209.261 121.874 215.047 114.961C216.166 113.648 218.403 113.648 219.522 114.961C225.308 121.835 233.794 125.813 242.782 125.813C251.77 125.813 260.256 121.874 266.042 114.961C267.161 113.648 269.398 113.648 270.516 114.961L270.825 115.309C271.789 116.429 271.789 118.051 270.825 119.171C266.003 124.693 263.342 131.799 263.342 139.136C263.342 142.303 264.036 145.315 264.808 148.559L265.193 150.22C265.463 151.417 264.962 152.691 263.92 153.348C262.879 154.004 261.529 153.927 260.564 153.193C254.277 148.289 249.301 144.697 242.319 143.423C234.797 142.033 224.845 142.998 219.56 148.173C218.403 149.293 216.551 149.293 215.394 148.134C215.201 147.941 215.086 147.748 214.931 147.555C213.157 146.165 206.252 142.226 205.095 141.724C201.083 140.102 196.724 139.252 192.25 139.136C182.491 138.943 173.58 142.38 168.527 148.404C167.987 149.061 167.138 149.447 166.29 149.447C165.441 149.447 164.592 149.061 164.052 148.404C157.996 141.222 145.922 142.535 141.024 143.423C135.97 144.35 132.113 145.663 129.22 147.439C127.831 148.366 119.808 155.433 118.149 157.518C117.995 158.098 117.686 158.6 117.185 159.024C115.95 160.067 114.099 159.913 113.057 158.677C108.236 152.961 101.562 149.254 94.1948 148.173C92.6904 147.941 91.2246 147.825 89.7973 147.825C80.8096 147.825 72.3233 151.764 66.5372 158.677C65.4186 159.99 63.1813 159.99 62.0626 158.677C56.2765 151.803 47.7903 147.825 38.8025 147.825C22.0228 147.825 8.36763 161.496 8.36763 178.295C8.36763 183.778 9.83344 189.146 12.6108 193.819C13.1894 194.823 13.1508 196.059 12.495 197.024C8.83052 202.199 6.90182 208.262 6.90182 214.596C6.90182 222.86 10.1806 230.622 16.121 236.415C17.2397 237.535 17.3168 239.311 16.2367 240.508C11.145 246.108 8.36763 253.368 8.36763 260.937C8.36763 277.736 22.0228 291.407 38.8025 291.407C47.7903 291.407 56.2765 287.467 62.0626 280.555C62.6027 279.898 63.4513 279.512 64.2999 279.512C65.1485 279.512 65.9972 279.898 66.5372 280.555C72.3233 287.429 80.8096 291.407 89.7973 291.407C98.7851 291.407 107.271 287.467 113.057 280.555C114.176 279.242 116.413 279.242 117.532 280.555C123.318 287.429 131.804 291.407 140.792 291.407C149.78 291.407 158.266 287.467 164.052 280.555C165.171 279.242 167.408 279.242 168.527 280.555C174.313 287.429 182.799 291.407 191.787 291.407C200.775 291.407 209.261 287.467 215.047 280.555C216.166 279.242 218.403 279.242 219.522 280.555C225.308 287.429 233.794 291.407 242.782 291.407C251.77 291.407 260.256 287.467 266.042 280.555C267.161 279.242 269.398 279.242 270.516 280.555C274.374 285.15 279.466 288.472 285.175 290.171C286.37 290.518 287.219 291.6 287.258 292.835C288.068 307.935 290.768 322.803 295.281 337.13Z" fill="#210809"/>
<path d="M59.0153 82.252C58.2824 82.252 57.5495 81.9817 56.9709 81.4411C55.8136 80.3211 55.7751 78.4675 56.8937 77.2703L62.1012 71.9024C63.2198 70.7439 65.0714 70.7053 66.2672 71.8252C67.4244 72.9451 67.463 74.7988 66.3443 75.9959L61.1369 81.3638C60.5197 81.9431 59.7482 82.252 59.0153 82.252Z" fill="#210809"/>
<path d="M120.579 82.252C119.846 82.252 119.075 81.9817 118.496 81.4024L113.135 76.0346C111.977 74.876 111.977 73.0224 113.135 71.8638C114.292 70.7053 116.143 70.7053 117.301 71.8638L122.662 77.2317C123.82 78.3902 123.82 80.2439 122.662 81.4024C122.084 81.9817 121.312 82.252 120.579 82.252Z" fill="#210809"/>
<path d="M212.733 82.252C212.077 82.252 211.421 82.0203 210.843 81.5569C209.608 80.5142 209.415 78.6606 210.457 77.4248L214.931 72.0569C215.973 70.8211 217.824 70.628 219.059 71.6707C220.293 72.7134 220.486 74.5671 219.445 75.8028L214.97 81.1707C214.43 81.9045 213.581 82.252 212.733 82.252Z" fill="#210809"/>
<path d="M274.335 84.3374C273.487 84.3374 272.638 83.9898 272.059 83.2561L265.965 75.8028C264.923 74.5671 265.116 72.7134 266.389 71.6707C267.623 70.628 269.475 70.8211 270.516 72.0955L276.611 79.5488C277.653 80.7846 277.46 82.6382 276.187 83.6809C275.647 84.1057 274.991 84.3374 274.335 84.3374Z" fill="#210809"/>
<path d="M166.212 119.904C165.364 119.904 164.554 119.557 163.975 118.862L156.762 110.173C155.72 108.937 155.913 107.083 157.148 106.041C158.382 104.998 160.233 105.191 161.275 106.427L168.488 115.116C169.53 116.352 169.337 118.205 168.103 119.248C167.562 119.673 166.868 119.904 166.212 119.904Z" fill="#210809"/>
<path d="M217.207 119.904C216.59 119.904 215.973 119.711 215.433 119.287C214.16 118.283 213.89 116.467 214.893 115.154L222.8 104.843C223.803 103.569 225.616 103.299 226.928 104.303C228.201 105.307 228.471 107.122 227.468 108.435L219.56 118.746C218.943 119.48 218.094 119.904 217.207 119.904Z" fill="#210809"/>
<path d="M17.2396 205.636C16.4682 205.636 15.7353 205.327 15.1567 204.748L7.94332 197.411C6.82467 196.252 6.82467 194.398 7.98189 193.24C9.13911 192.081 10.9907 192.12 12.1479 193.278L19.3612 200.616C20.4799 201.774 20.4799 203.628 19.3226 204.787C18.7055 205.366 17.9726 205.636 17.2396 205.636Z" fill="#210809"/>
<path d="M64.2228 285.421C63.6056 285.421 62.9884 285.228 62.4484 284.841C61.1369 283.876 60.9054 282.022 61.8698 280.748L69.4303 270.669C70.3946 269.356 72.2462 269.124 73.5191 270.089C74.8306 271.055 75.0621 272.909 74.0977 274.183L66.5372 284.262C65.9972 285.035 65.11 285.421 64.2228 285.421Z" fill="#210809"/>
<path d="M115.218 285.421C114.369 285.421 113.52 285.035 112.942 284.339L104.725 274.26C103.684 272.986 103.877 271.171 105.15 270.128C106.423 269.085 108.236 269.278 109.277 270.553L117.493 280.632C118.535 281.906 118.342 283.722 117.069 284.764C116.529 285.228 115.873 285.421 115.218 285.421Z" fill="#210809"/>
<path d="M217.207 285.421C216.59 285.421 215.934 285.228 215.394 284.803C214.121 283.799 213.89 281.945 214.893 280.671L222.8 270.591C223.803 269.317 225.655 269.085 226.928 270.089C228.201 271.093 228.432 272.947 227.429 274.222L219.522 284.301C218.943 285.073 218.094 285.421 217.207 285.421Z" fill="#210809"/>
<path d="M158.999 250.587C158.305 250.587 157.61 250.356 157.07 249.854C155.875 248.772 155.759 246.919 156.8 245.683L164.014 237.535C165.094 236.337 166.945 236.222 168.141 237.264C169.337 238.346 169.453 240.199 168.411 241.396L161.198 249.545C160.619 250.24 159.809 250.587 158.999 250.587Z" fill="#210809"/>
<path d="M276.11 250.587C275.338 250.587 274.567 250.278 273.988 249.699L266.119 241.551C265 240.392 265.039 238.539 266.196 237.38C267.353 236.26 269.205 236.299 270.324 237.457L278.193 245.606C279.311 246.764 279.273 248.618 278.116 249.776C277.576 250.317 276.843 250.587 276.11 250.587Z" fill="#210809"/>
<path d="M215.009 215.947C214.083 215.947 213.157 215.484 212.578 214.673C211.653 213.321 212 211.506 213.35 210.579L223.495 203.628C224.845 202.701 226.658 203.049 227.584 204.4C228.509 205.752 228.162 207.567 226.812 208.494L216.667 215.445C216.166 215.793 215.587 215.947 215.009 215.947Z" fill="#210809"/>
<path d="M268.202 162.5C267.276 162.5 266.35 162.075 265.772 161.226L259.832 152.614C258.906 151.262 259.253 149.447 260.564 148.52C261.914 147.594 263.727 147.941 264.653 149.254L270.594 157.866C271.519 159.217 271.172 161.033 269.861 161.959C269.359 162.307 268.781 162.5 268.202 162.5Z" fill="#210809"/>
<path d="M63.8639 73.601L58.6564 78.9689L59.3742 79.6652L64.5816 74.2973L63.8639 73.601ZM114.864 74.3025L120.226 79.6704L120.933 78.9637L115.571 73.5958L114.864 74.3025ZM216.823 73.629L212.349 78.9969L213.117 79.6372L217.591 74.2693L216.823 73.629ZM274.721 81.0847L268.588 73.6315L267.816 74.2669L273.949 81.7201L274.721 81.0847ZM158.614 108.6L165.828 117.289L166.597 116.65L159.384 107.961L158.614 108.6ZM224.757 106.315L216.811 116.665L217.604 117.274L225.55 106.924L224.757 106.315ZM17.5962 202.351L10.3829 195.013L9.66976 195.714L16.8831 203.052L17.5962 202.351ZM71.3838 272.144L63.8233 282.185L64.6222 282.787L72.1827 272.746L71.3838 272.144ZM106.614 272.762L114.831 282.802L115.605 282.169L107.388 272.128L106.614 272.762ZM224.761 272.135L216.815 282.175L217.599 282.796L225.546 272.755L224.761 272.135ZM159.373 247.984L166.587 239.835L165.838 239.173L158.625 247.321L159.373 247.984ZM276.469 247.304L268.561 239.156L267.843 239.852L275.751 248.001L276.469 247.304ZM224.871 205.649L214.726 212.6L215.291 213.425L225.436 206.473L224.871 205.649ZM268.613 159.242L262.673 150.668L261.851 151.238L267.791 159.811L268.613 159.242ZM290.344 340.992L291.295 340.685L291.294 340.682L290.344 340.992ZM281.51 295.23L282.508 295.163L282.464 294.508L281.846 294.288L281.51 295.23ZM268.241 286.85L268.948 286.143L268.243 285.437L267.535 286.141L268.241 286.85ZM217.246 286.85L217.951 286.141L217.248 285.441L216.542 286.139L217.246 286.85ZM166.251 286.85L166.956 286.141L166.253 285.441L165.548 286.139L166.251 286.85ZM115.256 286.85L115.962 286.141L115.258 285.441L114.553 286.139L115.256 286.85ZM64.2614 286.85L64.9668 286.141L64.2634 285.441L63.5579 286.139L64.2614 286.85ZM10.1035 238.732L10.8939 239.344L11.4024 238.688L10.851 238.068L10.1035 238.732ZM6.6318 195.248L7.47597 195.784L7.78739 195.294L7.51565 194.78L6.6318 195.248ZM64.2614 152.498L63.5559 153.207L64.2593 153.907L64.9648 153.209L64.2614 152.498ZM95.0048 142.38L94.8542 143.369L94.8583 143.369L95.0048 142.38ZM115.025 152.266L114.327 152.983L115.062 153.697L115.758 152.946L115.025 152.266ZM126.095 142.496L126.543 143.39L126.58 143.372L126.616 143.35L126.095 142.496ZM139.905 137.707L140.083 138.691L140.087 138.691L139.905 137.707ZM166.174 142.341L165.526 143.103L166.205 143.68L166.856 143.072L166.174 142.341ZM192.327 133.305L192.304 134.305L192.305 134.305L192.327 133.305ZM207.255 136.317L207.703 135.423L207.665 135.404L207.626 135.388L207.255 136.317ZM217.477 142.264L216.877 143.064L217.473 143.511L218.072 143.068L217.477 142.264ZM257.826 143.963L257.265 144.792L259.152 146.068L258.815 143.815L257.826 143.963ZM259.291 127.744L260.242 128.054L261 125.729L258.83 126.857L259.291 127.744ZM217.207 121.256L217.913 120.547L217.209 119.847L216.504 120.545L217.207 121.256ZM169.993 124.5L170.593 123.7L170.589 123.698L169.993 124.5ZM166.212 121.256L166.92 120.549L166.216 119.845L165.509 120.545L166.212 121.256ZM115.218 121.256L115.923 120.547L115.22 119.847L114.514 120.545L115.218 121.256ZM64.2228 121.256L64.9283 120.547L64.2248 119.847L63.5193 120.545L64.2228 121.256ZM13.4594 69.3537L14.157 70.0702L14.5879 69.6506L14.4193 69.0733L13.4594 69.3537ZM6.55465 3.54878L5.56318 3.41847L5.56286 3.42095L6.55465 3.54878ZM45.2444 2.00406L44.4721 2.63934L44.4816 2.65089L44.4914 2.66214L45.2444 2.00406ZM45.9387 4.32114L44.9478 4.18616L44.9462 4.19894L45.9387 4.32114ZM51.069 61.3211L50.1036 61.5819L50.2397 62.0855L50.7305 62.2621L51.069 61.3211ZM64.2228 69.6626L63.5189 70.373L64.2224 71.07L64.9262 70.3733L64.2228 69.6626ZM115.218 69.6626L114.512 70.3713L115.216 71.0716L115.921 70.3733L115.218 69.6626ZM166.212 69.6626L165.507 70.3713L166.21 71.0716L166.916 70.3733L166.212 69.6626ZM206.908 62.5183L207.333 61.6132L207.332 61.6127L206.908 62.5183ZM217.207 69.6626L216.509 70.3784L217.212 71.0646L217.911 70.3733L217.207 69.6626ZM268.202 69.6626L267.497 70.3713L268.2 71.0716L268.906 70.3733L268.202 69.6626ZM322.669 117.394L321.87 116.792L321.416 117.394L321.87 117.996L322.669 117.394ZM324.289 158.831L323.447 158.291L323.1 158.831L323.447 159.371L324.289 158.831ZM268.279 204.285L268.983 203.574L268.235 202.834L267.534 203.618L268.279 204.285ZM244.865 218.998L244.674 218.016L244.672 218.017L244.865 218.998ZM224.266 217.53L223.872 218.449L223.876 218.451L224.266 217.53ZM215.819 215.87L215.544 214.908L215.54 214.909L215.819 215.87ZM211.421 217.878L210.947 216.998L210.942 217L211.421 217.878ZM210.148 218.535L209.734 217.624L209.711 217.635L209.689 217.646L210.148 218.535ZM176.126 220.157L176.578 219.264L176.574 219.262L176.126 220.157ZM165.904 214.209L166.478 213.391L165.948 213.019L165.392 213.35L165.904 214.209ZM148.507 219.346L148.449 220.344L148.453 220.344L148.507 219.346ZM122.122 211.39L122.753 210.615L122.752 210.613L122.122 211.39ZM115.488 204.98L116.208 204.286L116.202 204.279L116.195 204.273L115.488 204.98ZM114.716 204.169L115.424 203.462L114.81 202.848L114.116 203.369L114.716 204.169ZM112.479 205.868L113.095 206.656L113.099 206.652L112.479 205.868ZM111.244 206.833L111.848 207.631L111.854 207.626L111.861 207.621L111.244 206.833ZM99.788 213.089L99.511 212.129L99.5064 212.13L99.788 213.089ZM73.2877 210.734L73.737 209.84L72.0777 209.006L72.2945 210.85L73.2877 210.734ZM69.8546 230.583L68.9557 230.145L67.3604 233.417L70.4033 231.419L69.8546 230.583ZM115.218 235.179L114.512 235.888L115.216 236.588L115.921 235.89L115.218 235.179ZM166.212 235.179L165.507 235.888L166.21 236.588L166.916 235.89L166.212 235.179ZM217.207 235.179L216.502 235.888L217.205 236.588L217.911 235.89L217.207 235.179ZM268.202 235.179L267.497 235.888L268.2 236.588L268.906 235.89L268.202 235.179ZM320.316 285.73L319.581 285.051L319.313 285.341L319.316 285.737L320.316 285.73ZM329.805 339.061L328.843 339.335L328.856 339.381L328.873 339.425L329.805 339.061ZM329.458 341.764L328.657 341.165L328.647 341.178L328.638 341.191L329.458 341.764ZM295.281 337.13L294.327 337.431L294.548 338.13H295.281V337.13ZM322.977 337.13V338.13H324.352L323.928 336.822L322.977 337.13ZM314.452 284.533L315.452 284.534V284.533H314.452ZM315.301 282.486L316.008 283.192L316.011 283.19L315.301 282.486ZM270.439 241.396L271.201 242.045L271.206 242.038L270.439 241.396ZM265.965 241.396L265.2 242.04L265.204 242.045L265.965 241.396ZM219.445 241.396L218.678 240.754L218.672 240.761L219.445 241.396ZM214.97 241.396L215.742 240.761L215.735 240.752L214.97 241.396ZM168.45 241.396L169.211 242.045L169.217 242.038L168.45 241.396ZM163.975 241.396L163.21 242.04L163.214 242.045L163.975 241.396ZM117.455 241.396L116.688 240.754L116.683 240.761L117.455 241.396ZM112.98 241.396L113.753 240.761L113.745 240.752L112.98 241.396ZM66.4601 241.396L67.2213 242.045L67.2269 242.038L66.4601 241.396ZM61.9855 241.396L61.2202 242.04L61.2243 242.045L61.9855 241.396ZM59.8253 235.102L59.0855 234.429L59.0829 234.432L59.8253 235.102ZM66.2672 205.404L67.2231 205.111L67.2218 205.107L66.2672 205.404ZM67.3858 202.083L66.8239 201.256L66.8169 201.261L66.8099 201.266L67.3858 202.083ZM70.8575 202.199L70.2287 202.977L70.2363 202.983L70.8575 202.199ZM98.2065 207.413L97.9276 206.452L97.9263 206.453L98.2065 207.413ZM107.773 202.122L107.172 201.322L107.171 201.324L107.773 202.122ZM109.007 201.195L109.608 201.995L109.611 201.992L109.007 201.195ZM113.52 197.874L112.965 197.042L112.958 197.047L112.952 197.051L113.52 197.874ZM117.262 198.222L117.985 197.531L117.977 197.523L117.97 197.515L117.262 198.222ZM119.846 200.886L120.574 200.2L120.569 200.195L119.846 200.886ZM125.903 206.795L125.261 207.562L125.271 207.57L125.903 206.795ZM148.931 213.437L148.993 212.439L148.991 212.439L148.931 213.437ZM164.399 208.224L163.823 207.406L163.815 207.412L164.399 208.224ZM167.91 208.301L168.526 207.513L168.524 207.512L167.91 208.301ZM178.865 214.904L179.317 214.013L179.316 214.012L178.865 214.904ZM207.525 213.321L207.077 212.427L207.065 212.433L207.525 213.321ZM208.721 212.665L208.242 211.787L208.224 211.797L208.206 211.807L208.721 212.665ZM214.237 210.193L213.954 209.234L213.948 209.236L214.237 210.193ZM226.619 212.085L226.226 213.005L226.227 213.005L226.619 212.085ZM243.785 213.205L243.595 212.224L243.592 212.224L243.785 213.205ZM266.042 197.951L266.807 198.595L266.814 198.587L266.042 197.951ZM270.516 197.951L269.744 198.587L269.751 198.595L270.516 197.951ZM318.425 160.492L317.607 161.067L317.611 161.073L317.616 161.079L318.425 160.492ZM318.425 157.055L319.233 157.644L319.235 157.642L318.425 157.055ZM316.767 119.248L316.009 119.9L316.011 119.903L316.767 119.248ZM316.767 115.386L316.013 114.728L316.009 114.734L316.767 115.386ZM270.516 75.8028L271.278 76.4514L271.283 76.4447L270.516 75.8028ZM266.042 75.8028L265.277 76.4468L265.281 76.4514L266.042 75.8028ZM219.522 75.8028L218.755 75.161L218.749 75.1676L219.522 75.8028ZM215.047 75.8028L215.819 75.1675L215.813 75.1597L215.047 75.8028ZM204.516 67.7703L204.097 68.6781L204.1 68.6796L204.516 67.7703ZM168.527 75.8028L169.288 76.4514L169.294 76.4447L168.527 75.8028ZM164.052 75.8028L163.287 76.4468L163.291 76.4514L164.052 75.8028ZM117.532 75.8028L116.765 75.161L116.76 75.1676L117.532 75.8028ZM113.057 75.8028L113.83 75.1675L113.822 75.1589L113.057 75.8028ZM66.5372 75.8028L67.2984 76.4514L67.304 76.4447L66.5372 75.8028ZM62.0626 75.8028L61.2979 76.4472L61.3014 76.4514L62.0626 75.8028ZM47.8674 66.3415L47.5623 67.2938L47.5669 67.2953L47.8674 66.3415ZM45.9001 64.3333L44.9362 64.5994L44.9371 64.6027L45.9001 64.3333ZM39.844 6.8313L40.8397 6.92443L40.9419 5.8313H39.844V6.8313ZM12.1865 6.8313V5.8313H11.2572L11.1891 6.75805L12.1865 6.8313ZM19.6698 69.3923L18.7129 69.6826L18.7147 69.6884L19.6698 69.3923ZM18.7826 72.4431L18.1453 71.6725L18.135 71.681L18.1249 71.6898L18.7826 72.4431ZM62.0626 115L61.3014 114.351L61.2958 114.358L62.0626 115ZM66.5372 115L67.3023 114.356L67.2984 114.351L66.5372 115ZM113.057 115L112.296 114.351L112.291 114.358L113.057 115ZM117.532 115L118.297 114.356L118.293 114.351L117.532 115ZM164.052 115L164.819 115.642L164.825 115.635L164.052 115ZM168.527 115L167.755 115.635L167.762 115.645L168.527 115ZM173.58 119.75L174.181 118.951L174.173 118.944L173.58 119.75ZM215.047 114.961L214.286 114.313L214.28 114.32L215.047 114.961ZM219.522 114.961L220.287 114.317L220.283 114.313L219.522 114.961ZM266.042 114.961L265.281 114.313L265.275 114.32L266.042 114.961ZM270.516 114.961L269.755 115.61L269.762 115.618L269.769 115.625L270.516 114.961ZM270.825 115.309L271.583 114.656L271.578 114.651L271.573 114.645L270.825 115.309ZM270.825 119.171L271.578 119.828L271.583 119.823L270.825 119.171ZM264.808 148.559L265.782 148.333L265.78 148.328L264.808 148.559ZM265.193 150.22L266.169 149.999L266.167 149.993L265.193 150.22ZM260.564 153.193L259.949 153.982L259.959 153.989L260.564 153.193ZM242.319 143.423L242.137 144.406L242.139 144.407L242.319 143.423ZM219.56 148.173L220.256 148.891L220.26 148.887L219.56 148.173ZM215.394 148.134L214.687 148.841L215.394 148.134ZM214.931 147.555L215.713 146.931L215.64 146.84L215.548 146.768L214.931 147.555ZM205.095 141.724L205.493 140.806L205.481 140.801L205.47 140.796L205.095 141.724ZM192.25 139.136L192.276 138.137L192.27 138.136L192.25 139.136ZM168.527 148.404L167.761 147.762L167.755 147.769L168.527 148.404ZM164.052 148.404L164.825 147.769L164.817 147.76L164.052 148.404ZM141.024 143.423L140.845 142.439L140.843 142.439L141.024 143.423ZM129.22 147.439L128.697 146.587L128.681 146.597L128.665 146.607L129.22 147.439ZM118.149 157.518L117.367 156.896L117.237 157.059L117.183 157.261L118.149 157.518ZM117.185 159.024L117.83 159.788L117.831 159.787L117.185 159.024ZM113.057 158.677L113.822 158.032L113.822 158.032L113.057 158.677ZM94.1948 148.173L94.0425 149.161L94.0496 149.162L94.1948 148.173ZM66.5372 158.677L67.2984 159.325L67.304 159.319L66.5372 158.677ZM62.0626 158.677L61.2976 159.321L61.3014 159.325L62.0626 158.677ZM12.6108 193.819L13.4773 193.32L13.4704 193.308L12.6108 193.819ZM12.495 197.024L13.3111 197.602L13.3168 197.594L13.3223 197.586L12.495 197.024ZM16.121 236.415L16.8286 235.708L16.8192 235.699L16.121 236.415ZM16.2367 240.508L16.9766 241.181L16.9792 241.178L16.2367 240.508ZM62.0626 280.555L62.8295 281.197L62.8349 281.19L62.0626 280.555ZM66.5372 280.555L65.7649 281.19L65.7722 281.199L66.5372 280.555ZM113.057 280.555L112.296 279.906L112.291 279.913L113.057 280.555ZM117.532 280.555L118.297 279.911L118.293 279.906L117.532 280.555ZM164.052 280.555L163.291 279.906L163.285 279.913L164.052 280.555ZM168.527 280.555L169.292 279.911L169.288 279.906L168.527 280.555ZM215.047 280.555L214.286 279.906L214.28 279.913L215.047 280.555ZM219.522 280.555L220.287 279.911L220.283 279.906L219.522 280.555ZM266.042 280.555L265.281 279.906L265.275 279.913L266.042 280.555ZM270.516 280.555L271.282 279.912L271.278 279.906L270.516 280.555ZM285.175 290.171L284.889 291.129L284.896 291.131L285.175 290.171ZM287.258 292.835L286.258 292.867L286.258 292.878L286.259 292.889L287.258 292.835ZM56.9709 81.4411L56.2754 82.1597L56.2817 82.1657L56.2881 82.1717L56.9709 81.4411ZM56.8937 77.2703L56.176 76.574L56.1695 76.5807L56.1631 76.5876L56.8937 77.2703ZM62.1012 71.9024L62.819 72.5987L62.8206 72.5971L62.1012 71.9024ZM66.2672 71.8252L66.9626 71.1066L66.9567 71.1009L66.9508 71.0953L66.2672 71.8252ZM66.3443 75.9959L67.0621 76.6922L67.0686 76.6855L67.075 76.6787L66.3443 75.9959ZM61.1369 81.3638L61.8212 82.093L61.8383 82.0769L61.8546 82.0601L61.1369 81.3638ZM118.496 81.4024L119.204 80.6957L118.496 81.4024ZM113.135 76.0346L112.427 76.7413L113.135 76.0346ZM117.301 71.8638L116.593 72.5705L117.301 71.8638ZM122.662 81.4024L121.955 80.6957L122.662 81.4024ZM210.843 81.5569L210.197 82.3208L210.207 82.3293L210.217 82.3374L210.843 81.5569ZM210.457 77.4248L211.221 78.0692L211.225 78.0651L210.457 77.4248ZM214.931 72.0569L214.167 71.4125L214.163 71.4166L214.931 72.0569ZM219.445 75.8028L218.68 75.1584L218.676 75.1625L219.445 75.8028ZM214.97 81.1707L214.202 80.5304L214.182 80.5536L214.165 80.578L214.97 81.1707ZM272.059 83.2561L272.845 82.6369L272.839 82.6299L272.834 82.6231L272.059 83.2561ZM265.965 75.8028L266.739 75.1698L266.734 75.1641L266.729 75.1584L265.965 75.8028ZM266.389 71.6707L267.023 72.4443L267.029 72.4395L267.034 72.4347L266.389 71.6707ZM270.516 72.0955L269.742 72.7283L269.742 72.7286L270.516 72.0955ZM276.611 79.5488L275.837 80.1818L275.842 80.1876L275.847 80.1932L276.611 79.5488ZM276.187 83.6809L276.805 84.4669L276.813 84.4608L276.821 84.4545L276.187 83.6809ZM163.975 118.862L163.206 119.501L163.207 119.502L163.975 118.862ZM156.762 110.173L157.531 109.534L157.526 109.528L156.762 110.173ZM161.275 106.427L162.044 105.788L162.04 105.782L161.275 106.427ZM168.488 115.116L167.719 115.755L167.724 115.76L168.488 115.116ZM168.103 119.248L168.721 120.034L168.735 120.023L168.748 120.012L168.103 119.248ZM215.433 119.287L214.814 120.072L214.815 120.073L215.433 119.287ZM214.893 115.154L214.099 114.546L214.098 114.547L214.893 115.154ZM222.8 104.843L222.015 104.225L222.007 104.235L222.8 104.843ZM226.928 104.303L227.547 103.518L227.541 103.513L227.536 103.509L226.928 104.303ZM227.468 108.435L228.261 109.044L228.263 109.042L227.468 108.435ZM219.56 118.746L220.326 119.39L220.34 119.372L220.354 119.355L219.56 118.746ZM15.1567 204.748L14.4435 205.449L14.4491 205.455L15.1567 204.748ZM7.94332 197.411L7.22391 198.105L7.23021 198.112L7.94332 197.411ZM12.1479 193.278L12.861 192.577L12.8554 192.572L12.1479 193.278ZM19.3612 200.616L20.0806 199.921L20.0743 199.915L19.3612 200.616ZM19.3226 204.787L20.007 205.516L20.0188 205.505L20.0302 205.493L19.3226 204.787ZM62.4484 284.841L61.8555 285.647L61.8667 285.655L62.4484 284.841ZM61.8698 280.748L62.6672 281.351L62.6697 281.348L61.8698 280.748ZM69.4303 270.669L70.2303 271.269L70.2362 271.261L69.4303 270.669ZM73.5191 270.089L72.9148 270.886L72.9205 270.891L72.9263 270.895L73.5191 270.089ZM74.0977 274.183L73.3003 273.58L73.2978 273.583L74.0977 274.183ZM66.5372 284.262L65.7373 283.662L65.7272 283.676L65.7177 283.689L66.5372 284.262ZM112.942 284.339L112.167 284.971L112.173 284.979L112.942 284.339ZM104.725 274.26L105.501 273.628L105.5 273.627L104.725 274.26ZM109.277 270.553L110.052 269.921L110.052 269.92L109.277 270.553ZM117.493 280.632L116.718 281.264L116.719 281.265L117.493 280.632ZM117.069 284.764L116.435 283.991L116.427 283.998L116.418 284.005L117.069 284.764ZM215.394 284.803L214.775 285.588L214.776 285.589L215.394 284.803ZM214.893 280.671L215.679 281.289L215.68 281.288L214.893 280.671ZM222.8 270.591L222.015 269.973L222.014 269.974L222.8 270.591ZM227.429 274.222L226.644 273.603L226.643 273.604L227.429 274.222ZM219.522 284.301L218.735 283.684L218.728 283.692L218.721 283.701L219.522 284.301ZM157.07 249.854L157.751 249.121L157.741 249.112L157.07 249.854ZM156.8 245.683L156.052 245.02L156.044 245.029L156.036 245.038L156.8 245.683ZM164.014 237.535L163.271 236.865L163.265 236.872L164.014 237.535ZM168.141 237.264L168.812 236.523L168.805 236.516L168.798 236.511L168.141 237.264ZM168.411 241.396L169.16 242.059L169.166 242.053L168.411 241.396ZM161.198 249.545L160.449 248.882L160.439 248.893L160.429 248.905L161.198 249.545ZM273.988 249.699L273.269 250.394L273.275 250.4L273.281 250.406L273.988 249.699ZM266.119 241.551L265.4 242.245L265.4 242.245L266.119 241.551ZM266.196 237.38L265.501 236.662L265.495 236.667L265.489 236.673L266.196 237.38ZM270.324 237.457L269.604 238.152L269.604 238.152L270.324 237.457ZM278.193 245.606L278.912 244.911L278.912 244.911L278.193 245.606ZM278.116 249.776L278.823 250.483L278.116 249.776ZM212.578 214.673L211.753 215.238L211.759 215.246L211.764 215.254L212.578 214.673ZM213.35 210.579L212.785 209.754L212.784 209.755L213.35 210.579ZM223.495 203.628L224.06 204.453L224.061 204.452L223.495 203.628ZM226.812 208.494L227.377 209.319L227.378 209.318L226.812 208.494ZM216.667 215.445L216.102 214.62L216.098 214.623L216.667 215.445ZM265.772 161.226L266.598 160.663L266.595 160.658L265.772 161.226ZM259.832 152.614L259.006 153.179L259.008 153.182L259.832 152.614ZM260.564 148.52L259.998 147.696L259.987 147.704L260.564 148.52ZM264.653 149.254L265.476 148.686L265.471 148.678L264.653 149.254ZM270.594 157.866L271.419 157.301L271.417 157.298L270.594 157.866ZM269.861 161.959L270.43 162.781L270.438 162.776L269.861 161.959ZM327.066 342H293.121V344H327.066V342ZM293.121 342C292.277 342 291.546 341.464 291.295 340.685L289.392 341.299C289.912 342.914 291.419 344 293.121 344V342ZM291.294 340.682C286.498 325.97 283.544 310.682 282.508 295.163L280.512 295.296C281.559 310.98 284.545 326.432 289.393 341.302L291.294 340.682ZM281.846 294.288C277.008 292.561 272.583 289.782 268.948 286.143L267.533 287.556C271.381 291.409 276.061 294.346 281.174 296.171L281.846 294.288ZM267.535 286.141C260.972 292.674 252.084 296.354 242.743 296.354V298.354C252.612 298.354 262.008 294.465 268.946 287.558L267.535 286.141ZM242.743 296.354C233.402 296.354 224.514 292.674 217.951 286.141L216.54 287.558C223.478 294.465 232.874 298.354 242.743 298.354V296.354ZM216.542 286.139C209.939 292.675 201.088 296.354 191.748 296.354V298.354C201.619 298.354 210.975 294.464 217.949 287.56L216.542 286.139ZM191.748 296.354C182.407 296.354 173.519 292.674 166.956 286.141L165.546 287.558C172.484 294.465 181.88 298.354 191.748 298.354V296.354ZM165.548 286.139C158.944 292.675 150.093 296.354 140.754 296.354V298.354C150.624 298.354 159.98 294.464 166.954 287.56L165.548 286.139ZM140.754 296.354C131.413 296.354 122.524 292.674 115.962 286.141L114.551 287.558C121.489 294.465 130.885 298.354 140.754 298.354V296.354ZM114.553 286.139C107.949 292.675 99.0981 296.354 89.7587 296.354V298.354C99.6293 298.354 108.985 294.464 115.96 287.56L114.553 286.139ZM89.7587 296.354C80.4178 296.354 71.5296 292.674 64.9668 286.141L63.5559 287.558C70.494 294.465 79.8899 298.354 89.7587 298.354V296.354ZM63.5579 286.139C56.9546 292.675 48.1033 296.354 38.7639 296.354V298.354C48.6345 298.354 57.9901 294.464 64.9648 287.56L63.5579 286.139ZM38.7639 296.354C19.2974 296.354 3.46581 280.506 3.46581 261.014H1.46581C1.46581 281.608 18.1907 298.354 38.7639 298.354V296.354ZM3.46581 261.014C3.46581 253.128 6.09109 245.542 10.8939 239.344L9.313 238.119C4.24089 244.665 1.46581 252.681 1.46581 261.014H3.46581ZM10.851 238.068C5.11318 231.61 2 223.389 2 214.673H0C0 223.875 3.2901 232.569 9.35592 239.396L10.851 238.068ZM2 214.673C2 207.911 3.87509 201.454 7.47597 195.784L5.78764 194.712C1.98231 200.704 0 207.533 0 214.673H2ZM7.51565 194.78C4.85463 189.752 3.46581 184.082 3.46581 178.333H1.46581C1.46581 184.402 2.93147 190.394 5.74796 195.716L7.51565 194.78ZM3.46581 178.333C3.46581 158.842 19.2974 142.994 38.7639 142.994V140.994C18.1907 140.994 1.46581 157.739 1.46581 178.333H3.46581ZM38.7639 142.994C48.1049 142.994 56.9932 146.674 63.5559 153.207L64.9668 151.789C58.0287 144.883 48.6328 140.994 38.7639 140.994V142.994ZM64.9648 153.209C71.5681 146.673 80.4194 142.994 89.7587 142.994V140.994C79.8882 140.994 70.5326 144.884 63.5579 151.787L64.9648 153.209ZM89.7587 142.994C91.4114 142.994 93.135 143.107 94.8542 143.369L95.1554 141.391C93.3258 141.113 91.5007 140.994 89.7587 140.994V142.994ZM94.8583 143.369C102.213 144.459 109.001 147.801 114.327 152.983L115.722 151.55C110.093 146.073 102.918 142.541 95.1513 141.391L94.8583 143.369ZM115.758 152.946C117.701 150.85 120.41 148.449 122.665 146.553C123.788 145.609 124.79 144.796 125.515 144.218C125.878 143.929 126.171 143.699 126.374 143.541C126.476 143.461 126.554 143.401 126.607 143.361C126.634 143.341 126.652 143.327 126.662 143.32C126.668 143.316 126.667 143.316 126.664 143.319C126.662 143.32 126.655 143.325 126.645 143.331C126.64 143.335 126.631 143.341 126.618 143.348C126.61 143.353 126.582 143.371 126.543 143.39L125.648 141.602C125.609 141.621 125.579 141.639 125.57 141.645C125.557 141.653 125.546 141.66 125.54 141.664C125.527 141.673 125.516 141.68 125.51 141.685C125.497 141.694 125.484 141.703 125.474 141.711C125.453 141.726 125.427 141.746 125.397 141.769C125.336 141.815 125.252 141.88 125.147 141.961C124.936 142.125 124.637 142.36 124.268 142.654C123.532 143.242 122.516 144.065 121.377 145.023C119.109 146.931 116.322 149.396 114.291 151.586L115.758 152.946ZM126.616 143.35C130.029 141.27 134.416 139.719 140.083 138.691L139.726 136.723C133.899 137.781 129.26 139.397 125.575 141.642L126.616 143.35ZM140.087 138.691C143.37 138.083 147.859 137.576 152.477 138.036C157.096 138.497 161.777 139.918 165.526 143.103L166.821 141.579C162.663 138.046 157.546 136.532 152.676 136.046C147.805 135.56 143.113 136.096 139.723 136.724L140.087 138.691ZM166.856 143.072C172.961 137.371 182.26 134.078 192.304 134.305L192.35 132.305C181.873 132.069 172.039 135.495 165.491 141.611L166.856 143.072ZM192.305 134.305C197.357 134.418 202.254 135.399 206.885 137.246L207.626 135.388C202.767 133.451 197.635 132.424 192.349 132.305L192.305 134.305ZM206.808 137.211C206.92 137.268 213.109 140.235 216.877 143.064L218.078 141.465C216.089 139.971 213.5 138.466 211.426 137.34C210.383 136.774 209.46 136.299 208.793 135.962C208.155 135.641 207.677 135.41 207.703 135.423L206.808 137.211ZM218.072 143.068C225.122 137.857 235.672 137.324 243.102 138.691L243.464 136.724C235.774 135.31 224.567 135.781 216.883 141.46L218.072 143.068ZM243.102 138.691C248.597 139.701 252.944 141.869 257.265 144.792L258.386 143.135C253.913 140.11 249.31 137.799 243.464 136.724L243.102 138.691ZM258.815 143.815C258.588 142.304 258.44 140.772 258.44 139.213H256.44C256.44 140.898 256.6 142.533 256.837 144.112L258.815 143.815ZM258.44 139.213C258.44 135.386 259.077 131.628 260.242 128.054L258.341 127.434C257.114 131.197 256.44 135.163 256.44 139.213H258.44ZM258.83 126.857C253.921 129.408 248.409 130.76 242.705 130.76V132.76C248.727 132.76 254.555 131.332 259.753 128.631L258.83 126.857ZM242.705 130.76C233.364 130.76 224.475 127.08 217.913 120.547L216.502 121.965C223.44 128.871 232.836 132.76 242.705 132.76V130.76ZM216.504 120.545C209.9 127.081 201.049 130.76 191.71 130.76V132.76C201.58 132.76 210.936 128.87 217.911 121.967L216.504 120.545ZM191.71 130.76C184.02 130.76 176.747 128.321 170.593 123.7L169.392 125.3C175.891 130.179 183.584 132.76 191.71 132.76V130.76ZM170.589 123.698C169.273 122.719 168.038 121.669 166.92 120.549L165.505 121.963C166.701 123.16 168.012 124.273 169.396 125.302L170.589 123.698ZM165.509 120.545C158.906 127.081 150.054 130.76 140.715 130.76V132.76C150.586 132.76 159.941 128.87 166.916 121.967L165.509 120.545ZM140.715 130.76C131.374 130.76 122.486 127.08 115.923 120.547L114.512 121.965C121.45 128.871 130.846 132.76 140.715 132.76V130.76ZM114.514 120.545C107.911 127.081 99.0595 130.76 89.7202 130.76V132.76C99.5907 132.76 108.946 128.87 115.921 121.967L114.514 120.545ZM89.7202 130.76C80.3792 130.76 71.491 127.08 64.9283 120.547L63.5173 121.965C70.4555 128.871 79.8513 132.76 89.7202 132.76V130.76ZM63.5193 120.545C56.916 127.081 48.0647 130.76 38.7254 130.76V132.76C48.5959 132.76 57.9515 128.87 64.9262 121.967L63.5193 120.545ZM38.7254 130.76C19.2588 130.76 3.42724 114.912 3.42724 95.4207H1.42724C1.42724 116.015 18.1521 132.76 38.7254 132.76V130.76ZM3.42724 95.4207C3.42724 85.8458 7.32785 76.7192 14.157 70.0702L12.7618 68.6372C5.55001 75.6588 1.42724 85.3005 1.42724 95.4207H3.42724ZM14.4193 69.0733C3.90311 33.0701 7.40174 4.79936 7.54645 3.67661L5.56286 3.42095C5.39897 4.69251 1.87713 33.2673 12.4995 69.634L14.4193 69.0733ZM7.54613 3.67909C7.6739 2.70693 8.48614 2 9.4477 2V0C7.47764 0 5.82115 1.45567 5.56318 3.41847L7.54613 3.67909ZM9.4477 2H43.0457V0H9.4477V2ZM43.0457 2C43.6239 2 44.1394 2.23496 44.4721 2.63934L46.0167 1.36879C45.2692 0.460159 44.1647 0 43.0457 0V2ZM44.4914 2.66214C44.8453 3.06708 45.0238 3.6289 44.9479 4.18617L46.9296 4.4561C47.0851 3.31419 46.7235 2.17682 45.9973 1.34598L44.4914 2.66214ZM44.9462 4.19894C42.1844 26.6304 46.7728 49.2516 50.1036 61.5819L52.0344 61.0604C48.7305 48.8297 44.2155 26.4997 46.9312 4.44334L44.9462 4.19894ZM50.7305 62.2621C55.5272 63.9879 59.8779 66.7654 63.5189 70.373L64.9266 68.9522C61.0842 65.1452 56.4859 62.2073 51.4076 60.3802L50.7305 62.2621ZM64.9262 70.3733C71.5296 63.8376 80.3808 60.1585 89.7202 60.1585V58.1585C79.8497 58.1585 70.494 62.0486 63.5193 68.9519L64.9262 70.3733ZM89.7202 60.1585C99.0611 60.1585 107.949 63.8387 114.512 70.3713L115.923 68.9539C108.985 62.0475 99.5891 58.1585 89.7202 58.1585V60.1585ZM115.921 70.3733C122.524 63.8376 131.376 60.1585 140.715 60.1585V58.1585C130.844 58.1585 121.489 62.0486 114.514 68.9519L115.921 70.3733ZM140.715 60.1585C150.056 60.1585 158.944 63.8387 165.507 70.3713L166.918 68.9539C159.98 62.0475 150.584 58.1585 140.715 58.1585V60.1585ZM166.916 70.3733C173.519 63.8376 182.37 60.1585 191.71 60.1585V58.1585C181.839 58.1585 172.484 62.0486 165.509 68.9519L166.916 70.3733ZM191.71 60.1585C196.851 60.1585 201.836 61.2474 206.484 63.4239L207.332 61.6127C202.414 59.3095 197.138 58.1585 191.71 58.1585V60.1585ZM206.483 63.4233C210.162 65.1522 213.58 67.5211 216.509 70.3784L217.905 68.9468C214.817 65.9342 211.215 63.4372 207.333 61.6132L206.483 63.4233ZM217.911 70.3733C224.514 63.8376 233.365 60.1585 242.705 60.1585V58.1585C232.834 58.1585 223.478 62.0486 216.504 68.9519L217.911 70.3733ZM242.705 60.1585C252.046 60.1585 260.934 63.8387 267.497 70.3713L268.908 68.9539C261.969 62.0475 252.574 58.1585 242.705 58.1585V60.1585ZM268.906 70.3733C275.509 63.8376 284.36 60.1585 293.699 60.1585V58.1585C283.829 58.1585 274.473 62.0486 267.499 68.9519L268.906 70.3733ZM293.699 60.1585C313.166 60.1585 328.998 76.0065 328.998 95.498H330.998C330.998 74.9041 314.273 58.1585 293.699 58.1585V60.1585ZM328.998 95.498C328.998 103.197 326.484 110.671 321.87 116.792L323.467 117.996C328.342 111.529 330.998 103.632 330.998 95.498H328.998ZM321.87 117.996C326.484 124.118 328.998 131.592 328.998 139.291H330.998C330.998 131.156 328.342 123.26 323.467 116.792L321.87 117.996ZM328.998 139.291C328.998 146.09 327.085 152.622 323.447 158.291L325.13 159.371C328.976 153.378 330.998 146.471 330.998 139.291H328.998ZM323.447 159.371C327.085 165.041 328.998 171.572 328.998 178.372H330.998C330.998 171.192 328.976 164.285 325.13 158.291L323.447 159.371ZM328.998 178.372C328.998 197.863 313.166 213.711 293.699 213.711V215.711C314.273 215.711 330.998 198.966 330.998 178.372H328.998ZM293.699 213.711C284.396 213.711 275.545 210.069 268.983 203.574L267.576 204.995C274.514 211.862 283.871 215.711 293.699 215.711V213.711ZM267.534 203.618C260.935 210.988 254.288 216.144 244.674 218.016L245.056 219.98C255.269 217.99 262.277 212.488 269.024 204.952L267.534 203.618ZM244.672 218.017C237.145 219.494 230.258 218.987 224.657 216.61L223.876 218.451C229.924 221.018 237.232 221.515 245.057 219.979L244.672 218.017ZM224.661 216.612C221.776 215.374 218.649 214.02 215.544 214.908L216.094 216.831C218.389 216.175 220.816 217.138 223.872 218.449L224.661 216.612ZM215.54 214.909C213.953 215.37 212.428 216.199 210.947 216.998L211.896 218.758C213.423 217.935 214.753 217.22 216.097 216.83L215.54 214.909ZM210.942 217C210.511 217.235 210.119 217.449 209.734 217.624L210.562 219.445C211.026 219.234 211.482 218.984 211.9 218.756L210.942 217ZM209.689 217.646C198.188 223.593 186.149 224.112 176.578 219.264L175.674 221.049C185.93 226.242 198.655 225.602 210.607 219.423L209.689 217.646ZM176.574 219.262C173.352 217.65 169.776 215.706 166.478 213.391L165.329 215.028C168.744 217.424 172.419 219.419 175.678 221.051L176.574 219.262ZM165.392 213.35C162.181 215.264 155.381 218.716 148.561 218.347L148.453 220.344C155.905 220.747 163.147 217.016 166.416 215.068L165.392 213.35ZM148.565 218.347C139.885 217.845 130.311 216.764 122.753 210.615L121.491 212.166C129.595 218.76 139.771 219.842 148.449 220.344L148.565 218.347ZM122.752 210.613C120.381 208.692 118.31 206.468 116.208 204.286L114.767 205.673C116.831 207.816 119.003 210.149 121.493 212.167L122.752 210.613ZM116.195 204.273C116.075 204.153 115.962 204.031 115.835 203.894C115.711 203.761 115.574 203.612 115.424 203.462L114.009 204.875C114.128 204.995 114.242 205.117 114.369 205.254C114.492 205.387 114.63 205.536 114.78 205.686L116.195 204.273ZM114.116 203.369C113.353 203.942 112.604 204.494 111.859 205.083L113.099 206.652C113.819 206.083 114.536 205.554 115.317 204.968L114.116 203.369ZM111.863 205.08L110.628 206.046L111.861 207.621L113.095 206.656L111.863 205.08ZM110.641 206.036C107.494 208.418 104.145 210.792 99.511 212.129L100.065 214.05C105.074 212.606 108.669 210.037 111.848 207.631L110.641 206.036ZM99.5064 212.13C90.8014 214.684 81.5734 213.782 73.737 209.84L72.8383 211.627C81.1259 215.795 90.8763 216.747 100.07 214.049L99.5064 212.13ZM72.2945 210.85C72.4443 212.125 72.5191 213.399 72.5191 214.673H74.5191C74.5191 213.32 74.4397 211.969 74.2808 210.617L72.2945 210.85ZM72.5191 214.673C72.5191 220.081 71.281 225.377 68.9557 230.145L70.7534 231.022C73.2113 225.981 74.5191 220.386 74.5191 214.673H72.5191ZM70.4033 231.419C76.0647 227.703 82.7786 225.675 89.7202 225.675V223.675C82.3893 223.675 75.2938 225.817 69.3058 229.747L70.4033 231.419ZM89.7202 225.675C99.0611 225.675 107.949 229.355 114.512 235.888L115.923 234.47C108.985 227.564 99.5891 223.675 89.7202 223.675V225.675ZM115.921 235.89C122.524 229.354 131.376 225.675 140.715 225.675V223.675C130.844 223.675 121.489 227.565 114.514 234.468L115.921 235.89ZM140.715 225.675C150.056 225.675 158.944 229.355 165.507 235.888L166.918 234.47C159.98 227.564 150.584 223.675 140.715 223.675V225.675ZM166.916 235.89C173.519 229.354 182.37 225.675 191.71 225.675V223.675C181.839 223.675 172.484 227.565 165.509 234.468L166.916 235.89ZM191.71 225.675C201.051 225.675 209.939 229.355 216.502 235.888L217.913 234.47C210.975 227.564 201.579 223.675 191.71 223.675V225.675ZM217.911 235.89C224.514 229.354 233.365 225.675 242.705 225.675V223.675C232.834 223.675 223.478 227.565 216.504 234.468L217.911 235.89ZM242.705 225.675C252.046 225.675 260.934 229.355 267.497 235.888L268.908 234.47C261.969 227.564 252.574 223.675 242.705 223.675V225.675ZM268.906 235.89C275.509 229.354 284.36 225.675 293.699 225.675V223.675C283.829 223.675 274.473 227.565 267.499 234.468L268.906 235.89ZM293.699 225.675C313.166 225.675 328.998 241.523 328.998 261.014H330.998C330.998 240.42 314.273 223.675 293.699 223.675V225.675ZM328.998 261.014C328.998 269.991 325.66 278.477 319.581 285.051L321.05 286.409C327.469 279.466 330.998 270.496 330.998 261.014H328.998ZM319.316 285.737C319.413 299.913 321.782 313.258 324.131 323.084C325.306 327.999 326.478 332.04 327.362 334.871C327.804 336.287 328.174 337.4 328.436 338.169C328.567 338.554 328.672 338.852 328.744 339.059C328.83 339.302 328.849 339.357 328.843 339.335L330.766 338.787C330.668 338.444 321.507 313.703 321.316 285.723L319.316 285.737ZM328.873 339.425C329.101 340.009 329.017 340.684 328.657 341.165L330.258 342.364C331.055 341.3 331.202 339.89 330.736 338.697L328.873 339.425ZM328.638 341.191C328.287 341.693 327.707 342 327.066 342V344C328.354 344 329.548 343.38 330.277 342.337L328.638 341.191ZM295.281 338.13H322.977V336.13H295.281V338.13ZM323.928 336.822C321.205 328.411 315.414 307.671 315.452 284.534L313.452 284.531C313.413 307.967 319.272 328.934 322.026 337.438L323.928 336.822ZM315.452 284.533C315.452 284.028 315.654 283.548 316.008 283.192L314.593 281.779C313.868 282.505 313.452 283.492 313.452 284.533H315.452ZM316.011 283.19C321.906 277.248 325.134 269.387 325.134 261.014H323.134C323.134 268.861 320.114 276.215 314.591 281.781L316.011 283.19ZM325.134 261.014C325.134 243.664 311.033 229.545 293.699 229.545V231.545C309.926 231.545 323.134 244.767 323.134 261.014H325.134ZM293.699 229.545C284.417 229.545 275.65 233.614 269.673 240.754L271.206 242.038C276.801 235.354 285.006 231.545 293.699 231.545V229.545ZM269.678 240.748C268.959 241.592 267.445 241.592 266.726 240.748L265.204 242.045C266.721 243.827 269.683 243.827 271.201 242.045L269.678 240.748ZM266.73 240.752C260.755 233.654 251.99 229.545 242.705 229.545V231.545C251.395 231.545 259.602 235.39 265.2 242.04L266.73 240.752ZM242.705 229.545C233.422 229.545 224.655 233.614 218.678 240.754L220.211 242.038C225.807 235.354 234.012 231.545 242.705 231.545V229.545ZM218.672 240.761C218.329 241.178 217.768 241.439 217.207 241.439V243.439C218.344 243.439 219.48 242.928 220.217 242.032L218.672 240.761ZM217.207 241.439C216.646 241.439 216.085 241.178 215.742 240.761L214.198 242.032C214.935 242.928 216.071 243.439 217.207 243.439V241.439ZM215.735 240.752C209.76 233.654 200.995 229.545 191.71 229.545V231.545C200.4 231.545 208.607 235.39 214.205 242.04L215.735 240.752ZM191.71 229.545C182.427 229.545 173.66 233.614 167.683 240.754L169.217 242.038C174.812 235.354 183.017 231.545 191.71 231.545V229.545ZM167.689 240.748C166.969 241.592 165.456 241.592 164.736 240.748L163.214 242.045C164.732 243.827 167.693 243.827 169.211 242.045L167.689 240.748ZM164.74 240.752C158.765 233.654 150 229.545 140.715 229.545V231.545C149.406 231.545 157.613 235.39 163.21 242.04L164.74 240.752ZM140.715 229.545C131.433 229.545 122.665 233.614 116.688 240.754L118.222 242.038C123.817 235.354 132.022 231.545 140.715 231.545V229.545ZM116.683 240.761C116.34 241.178 115.778 241.439 115.218 241.439V243.439C116.354 243.439 117.49 242.928 118.227 242.032L116.683 240.761ZM115.218 241.439C114.657 241.439 114.096 241.178 113.753 240.761L112.208 242.032C112.945 242.928 114.081 243.439 115.218 243.439V241.439ZM113.745 240.752C107.771 233.654 99.0051 229.545 89.7202 229.545V231.545C98.4108 231.545 106.618 235.39 112.215 242.04L113.745 240.752ZM89.7202 229.545C80.4378 229.545 71.6702 233.614 65.6932 240.754L67.2269 242.038C72.8221 235.354 81.0271 231.545 89.7202 231.545V229.545ZM65.6989 240.748C64.9795 241.592 63.4661 241.592 62.7467 240.748L61.2243 242.045C62.7422 243.827 65.7034 243.827 67.2213 242.045L65.6989 240.748ZM62.7508 240.753C62.1085 239.989 61.3925 239.233 60.6486 238.488L59.2336 239.902C59.9554 240.625 60.6281 241.336 61.2202 242.04L62.7508 240.753ZM60.6486 238.488C59.8963 237.735 59.8533 236.563 60.5678 235.771L59.0829 234.432C57.6372 236.034 57.7486 238.415 59.2336 239.902L60.6486 238.488ZM60.5652 235.774C65.8262 229.989 68.6944 222.488 68.6944 214.673H66.6944C66.6944 221.996 64.008 229.015 59.0855 234.429L60.5652 235.774ZM68.6944 214.673C68.6944 211.399 68.1758 208.211 67.2231 205.111L65.3113 205.698C66.2102 208.623 66.6944 211.613 66.6944 214.673H68.6944ZM67.2218 205.107C66.965 204.284 67.2765 203.384 67.9618 202.901L66.8099 201.266C65.4121 202.251 64.7979 204.053 65.3126 205.702L67.2218 205.107ZM67.9478 202.911C68.677 202.415 69.5811 202.453 70.2287 202.977L71.4863 201.422C70.1281 200.323 68.2548 200.284 66.8239 201.256L67.9478 202.911ZM70.2363 202.983C78.0945 209.213 88.6538 211.242 98.4866 208.373L97.9263 206.453C88.7036 209.144 78.8187 207.235 71.4787 201.416L70.2363 202.983ZM98.4853 208.373C102.531 207.198 105.549 205.052 108.375 202.92L107.171 201.324C104.365 203.44 101.596 205.387 97.9276 206.452L98.4853 208.373ZM108.373 202.922L109.608 201.995L108.407 200.395L107.172 201.322L108.373 202.922ZM109.611 201.992C111.043 200.907 112.49 199.802 114.089 198.697L112.952 197.051C111.31 198.186 109.825 199.321 108.403 200.398L109.611 201.992ZM114.075 198.706C114.853 198.187 115.903 198.276 116.555 198.928L117.97 197.515C116.615 196.159 114.502 196.016 112.965 197.042L114.075 198.706ZM116.539 198.912C116.968 199.361 117.406 199.809 117.839 200.253C118.274 200.698 118.704 201.138 119.123 201.577L120.569 200.195C120.141 199.747 119.703 199.298 119.269 198.855C118.835 198.41 118.405 197.97 117.985 197.531L116.539 198.912ZM119.119 201.572C121.047 203.618 123.089 205.743 125.261 207.561L126.545 206.028C124.473 204.294 122.504 202.248 120.574 200.2L119.119 201.572ZM125.271 207.57C131.993 213.05 141.144 213.973 148.872 214.435L148.991 212.439C141.212 211.974 132.696 211.043 126.534 206.02L125.271 207.57ZM148.869 214.435C152.19 214.642 155.67 213.674 158.549 212.494C161.438 211.31 163.821 209.872 164.984 209.035L163.815 207.412C162.779 208.158 160.533 209.52 157.791 210.644C155.038 211.771 151.883 212.619 148.993 212.439L148.869 214.435ZM164.975 209.041C165.668 208.553 166.612 208.558 167.295 209.09L168.524 207.512C167.124 206.422 165.214 206.427 163.824 207.406L164.975 209.041ZM167.293 209.088C170.732 211.779 174.897 214.017 178.413 215.797L179.316 214.012C175.812 212.239 171.799 210.074 168.526 207.513L167.293 209.088ZM178.412 215.796C186.98 220.146 197.78 219.495 207.985 214.209L207.065 212.433C197.289 217.497 187.182 218.005 179.317 214.013L178.412 215.796ZM207.973 214.215C208.38 214.011 208.827 213.767 209.236 213.522L208.206 211.807C207.843 212.025 207.442 212.245 207.078 212.427L207.973 214.215ZM209.2 213.542C210.892 212.618 212.589 211.736 214.526 211.15L213.948 209.236C211.796 209.886 209.944 210.857 208.242 211.787L209.2 213.542ZM214.52 211.152C218.834 209.878 222.751 211.52 226.226 213.005L227.012 211.166C223.621 209.716 219.052 207.728 213.954 209.234L214.52 211.152ZM226.227 213.005C232.48 215.671 239.391 215.089 243.978 214.186L243.592 212.224C239.152 213.098 232.717 213.598 227.011 211.165L226.227 213.005ZM243.975 214.187C253.69 212.306 259.972 206.721 266.807 198.595L265.277 197.308C258.534 205.323 252.627 210.475 243.595 212.224L243.975 214.187ZM266.814 198.587C267.157 198.169 267.718 197.909 268.279 197.909V195.909C267.143 195.909 266.007 196.42 265.27 197.316L266.814 198.587ZM268.279 197.909C268.84 197.909 269.401 198.169 269.744 198.587L271.289 197.316C270.552 196.42 269.416 195.909 268.279 195.909V197.909ZM269.751 198.595C275.726 205.693 284.492 209.803 293.777 209.803V207.803C285.086 207.803 276.879 203.957 271.282 197.307L269.751 198.595ZM293.777 209.803C311.11 209.803 325.211 195.683 325.211 178.333H323.211C323.211 194.581 310.003 207.803 293.777 207.803V209.803ZM325.211 178.333C325.211 171.673 323.139 165.289 319.235 159.905L317.616 161.079C321.272 166.122 323.211 172.095 323.211 178.333H325.211ZM319.244 159.917C318.748 159.212 318.761 158.291 319.233 157.644L317.618 156.465C316.624 157.827 316.637 159.686 317.607 161.067L319.244 159.917ZM319.235 157.642C323.139 152.258 325.211 145.873 325.211 139.213H323.211C323.211 145.452 321.272 151.425 317.616 156.468L319.235 157.642ZM325.211 139.213C325.211 131.635 322.463 124.297 317.523 118.593L316.011 119.903C320.637 125.244 323.211 132.117 323.211 139.213H325.211ZM317.524 118.595C316.883 117.851 316.883 116.784 317.524 116.039L316.009 114.734C314.722 116.229 314.722 118.405 316.009 119.9L317.524 118.595ZM317.52 116.044C322.503 110.336 325.211 102.996 325.211 95.4207H323.211C323.211 102.52 320.673 109.391 316.013 114.728L317.52 116.044ZM325.211 95.4207C325.211 78.0707 311.11 63.9512 293.777 63.9512V65.9512C310.003 65.9512 323.211 79.1732 323.211 95.4207H325.211ZM293.777 63.9512C284.494 63.9512 275.727 68.0203 269.75 75.161L271.283 76.4447C276.879 69.7602 285.083 65.9512 293.777 65.9512V63.9512ZM269.755 75.1543C269.036 75.9987 267.522 75.9987 266.803 75.1543L265.281 76.4514C266.799 78.233 269.76 78.233 271.278 76.4514L269.755 75.1543ZM266.807 75.1589C260.832 68.0608 252.067 63.9512 242.782 63.9512V65.9512C251.472 65.9512 259.679 69.7969 265.277 76.4468L266.807 75.1589ZM242.782 63.9512C233.499 63.9512 224.732 68.0203 218.755 75.161L220.288 76.4447C225.884 69.7602 234.089 65.9512 242.782 65.9512V63.9512ZM218.749 75.1676C218.406 75.5846 217.845 75.8455 217.284 75.8455V77.8455C218.421 77.8455 219.557 77.3341 220.294 76.4381L218.749 75.1676ZM217.284 75.8455C216.723 75.8455 216.162 75.5846 215.819 75.1676L214.275 76.4381C215.012 77.3341 216.148 77.8455 217.284 77.8455V75.8455ZM215.813 75.1597C212.864 71.6494 209.12 68.7773 204.933 66.861L204.1 68.6796C208.014 70.4707 211.521 73.1595 214.281 76.446L215.813 75.1597ZM204.936 66.8625C200.796 64.9496 196.371 63.9512 191.787 63.9512V65.9512C196.075 65.9512 200.214 66.8838 204.097 68.6781L204.936 66.8625ZM191.787 63.9512C182.505 63.9512 173.737 68.0203 167.76 75.161L169.294 76.4447C174.889 69.7602 183.094 65.9512 191.787 65.9512V63.9512ZM167.766 75.1543C167.046 75.9987 165.533 75.9987 164.813 75.1543L163.291 76.4514C164.809 78.233 167.77 78.233 169.288 76.4514L167.766 75.1543ZM164.817 75.1589C158.843 68.0608 150.077 63.9512 140.792 63.9512V65.9512C149.483 65.9512 157.69 69.7969 163.287 76.4468L164.817 75.1589ZM140.792 63.9512C131.51 63.9512 122.742 68.0203 116.765 75.161L118.299 76.4447C123.894 69.7602 132.099 65.9512 140.792 65.9512V63.9512ZM116.76 75.1676C116.417 75.5846 115.856 75.8455 115.295 75.8455V77.8455C116.431 77.8455 117.567 77.3341 118.304 76.4381L116.76 75.1676ZM115.295 75.8455C114.734 75.8455 114.173 75.5846 113.83 75.1676L112.285 76.4381C113.022 77.3341 114.158 77.8455 115.295 77.8455V75.8455ZM113.822 75.1589C107.848 68.0608 99.0822 63.9512 89.7973 63.9512V65.9512C98.4879 65.9512 106.695 69.7969 112.292 76.4468L113.822 75.1589ZM89.7973 63.9512C80.515 63.9512 71.7474 68.0203 65.7704 75.161L67.304 76.4447C72.8993 69.7602 81.1042 65.9512 89.7973 65.9512V63.9512ZM65.776 75.1543C65.0566 75.9987 63.5432 75.9987 62.8238 75.1543L61.3014 76.4514C62.8193 78.233 65.7805 78.233 67.2984 76.4514L65.776 75.1543ZM62.8274 75.1585C58.9631 70.572 53.8645 67.1824 48.1679 65.3877L47.5669 67.2953C52.9025 68.9762 57.6788 72.1516 61.2979 76.4472L62.8274 75.1585ZM48.1725 65.3891C47.5123 65.1776 47.0382 64.6898 46.8632 64.064L44.9371 64.6027C45.3021 65.9078 46.2938 66.8874 47.5623 67.2938L48.1725 65.3891ZM46.8641 64.0673C43.6362 52.3721 38.6961 29.8403 40.8397 6.92443L38.8484 6.73817C36.6716 30.0093 41.6836 52.8149 44.9362 64.5994L46.8641 64.0673ZM39.844 5.8313H12.1865V7.8313H39.844V5.8313ZM11.1891 6.75805C10.6054 14.7054 9.67666 39.9029 18.7129 69.6826L20.6267 69.1019C11.6875 39.6418 12.6103 14.7132 13.1838 6.90455L11.1891 6.75805ZM18.7147 69.6884C18.9451 70.4316 18.7118 71.204 18.1453 71.6725L19.4199 73.2137C20.6278 72.2147 21.0889 70.5927 20.625 69.0962L18.7147 69.6884ZM18.1249 71.6898C11.2716 77.6733 7.36763 86.3285 7.36763 95.3821H9.36763C9.36763 86.9032 13.0242 78.7982 19.4403 73.1964L18.1249 71.6898ZM7.36763 95.3821C7.36763 112.732 21.4695 126.852 38.8025 126.852V124.852C22.5762 124.852 9.36763 111.63 9.36763 95.3821H7.36763ZM38.8025 126.852C48.0849 126.852 56.8525 122.783 62.8294 115.642L61.2958 114.358C55.7006 121.043 47.4956 124.852 38.8025 124.852V126.852ZM62.8238 115.649C63.5432 114.804 65.0566 114.804 65.776 115.649L67.2984 114.351C65.7805 112.57 62.8193 112.57 61.3014 114.351L62.8238 115.649ZM65.7722 115.644C71.7469 122.742 80.5124 126.852 89.7973 126.852V124.852C81.1068 124.852 72.8997 121.006 67.3023 114.356L65.7722 115.644ZM89.7973 126.852C99.0797 126.852 107.847 122.783 113.824 115.642L112.291 114.358C106.695 121.043 98.4904 124.852 89.7973 124.852V126.852ZM113.819 115.649C114.538 114.804 116.051 114.804 116.771 115.649L118.293 114.351C116.775 112.57 113.814 112.57 112.296 114.351L113.819 115.649ZM116.767 115.644C122.742 122.742 131.507 126.852 140.792 126.852V124.852C132.102 124.852 123.895 121.006 118.297 114.356L116.767 115.644ZM140.792 126.852C150.075 126.852 158.842 122.783 164.819 115.642L163.285 114.358C157.69 121.043 149.485 124.852 140.792 124.852V126.852ZM164.825 115.635C165.168 115.218 165.729 114.957 166.29 114.957V112.957C165.153 112.957 164.017 113.469 163.28 114.365L164.825 115.635ZM166.29 114.957C166.85 114.957 167.412 115.218 167.755 115.635L169.299 114.365C168.562 113.469 167.426 112.957 166.29 112.957V114.957ZM167.762 115.645C169.275 117.438 171.029 119.115 172.988 120.556L174.173 118.944C172.351 117.604 170.71 116.038 169.291 114.355L167.762 115.645ZM172.979 120.549C178.438 124.658 184.937 126.813 191.787 126.813V124.813C185.367 124.813 179.291 122.797 174.181 118.951L172.979 120.549ZM191.787 126.813C201.069 126.813 209.837 122.744 215.814 115.603L214.28 114.32C208.685 121.004 200.48 124.813 191.787 124.813V126.813ZM215.808 115.61C216.528 114.766 218.041 114.766 218.76 115.61L220.283 114.313C218.765 112.531 215.804 112.531 214.286 114.313L215.808 115.61ZM218.757 115.605C224.731 122.703 233.497 126.813 242.782 126.813V124.813C234.091 124.813 225.884 120.967 220.287 114.317L218.757 115.605ZM242.782 126.813C252.064 126.813 260.832 122.744 266.809 115.603L265.275 114.32C259.68 121.004 251.475 124.813 242.782 124.813V126.813ZM266.803 115.61C267.522 114.766 269.036 114.766 269.755 115.61L271.278 114.313C269.76 112.531 266.799 112.531 265.281 114.313L266.803 115.61ZM269.769 115.625L270.077 115.973L271.573 114.645L271.264 114.297L269.769 115.625ZM270.067 115.961C270.709 116.706 270.709 117.773 270.067 118.518L271.583 119.823C272.87 118.328 272.87 116.151 271.583 114.656L270.067 115.961ZM270.072 118.513C265.091 124.218 262.342 131.557 262.342 139.136H264.342C264.342 132.04 266.916 125.168 271.578 119.828L270.072 118.513ZM262.342 139.136C262.342 142.437 263.066 145.56 263.835 148.79L265.78 148.328C265.006 145.07 264.342 142.168 264.342 139.136H262.342ZM263.833 148.785L264.219 150.446L266.167 149.993L265.782 148.333L263.833 148.785ZM264.218 150.44C264.398 151.24 264.056 152.08 263.387 152.502L264.454 154.194C265.867 153.302 266.528 151.594 266.169 149.999L264.218 150.44ZM263.387 152.502C262.706 152.931 261.809 152.884 261.17 152.397L259.959 153.989C261.248 154.97 263.052 155.077 264.454 154.194L263.387 152.502ZM261.179 152.405C254.896 147.503 249.747 143.762 242.498 142.439L242.139 144.407C248.855 145.632 253.658 149.074 259.949 153.982L261.179 152.405ZM242.501 142.439C238.632 141.724 234.143 141.614 229.928 142.351C225.724 143.085 221.698 144.68 218.861 147.458L220.26 148.887C222.707 146.491 226.299 145.015 230.273 144.321C234.236 143.629 238.484 143.731 242.137 144.406L242.501 142.439ZM218.865 147.454C218.097 148.197 216.87 148.197 216.102 147.427L214.687 148.841C216.233 150.388 218.709 150.388 220.256 148.891L218.865 147.454ZM216.102 147.427C216.053 147.379 216.008 147.324 215.949 147.245C215.903 147.184 215.801 147.041 215.713 146.931L214.15 148.179C214.216 148.262 214.249 148.311 214.348 148.444C214.433 148.558 214.543 148.696 214.687 148.841L216.102 147.427ZM215.548 146.768C214.597 146.022 212.363 144.655 210.286 143.442C208.211 142.231 206.138 141.086 205.493 140.806L204.697 142.641C205.209 142.863 207.167 143.938 209.278 145.17C211.386 146.4 213.492 147.697 214.315 148.342L215.548 146.768ZM205.47 140.796C201.337 139.126 196.859 138.255 192.276 138.137L192.224 140.136C196.59 140.249 200.829 141.078 204.72 142.651L205.47 140.796ZM192.27 138.136C182.294 137.939 173.058 141.447 167.761 147.762L169.293 149.047C174.102 143.313 182.687 139.947 192.23 140.136L192.27 138.136ZM167.755 147.769C167.412 148.186 166.85 148.447 166.29 148.447V150.447C167.426 150.447 168.562 149.936 169.299 149.04L167.755 147.769ZM166.29 148.447C165.729 148.447 165.168 148.186 164.825 147.769L163.28 149.04C164.017 149.936 165.153 150.447 166.29 150.447V148.447ZM164.817 147.76C161.551 143.886 156.716 142.364 152.208 141.892C147.687 141.42 143.339 141.987 140.845 142.439L141.202 144.407C143.607 143.971 147.746 143.437 152 143.882C156.267 144.328 160.498 145.74 163.288 149.049L164.817 147.76ZM140.843 142.439C135.724 143.378 131.734 144.722 128.697 146.587L129.743 148.291C132.492 146.604 136.216 145.321 141.204 144.406L140.843 142.439ZM128.665 146.607C127.897 147.12 125.484 149.175 123.118 151.3C120.752 153.425 118.259 155.773 117.367 156.896L118.932 158.141C119.698 157.178 122.046 154.95 124.454 152.788C126.861 150.627 129.154 148.685 129.775 148.271L128.665 146.607ZM117.183 157.261C117.081 157.642 116.885 157.968 116.538 158.261L117.831 159.787C118.488 159.231 118.908 158.553 119.116 157.776L117.183 157.261ZM116.54 158.26C115.726 158.947 114.506 158.844 113.822 158.032L112.293 159.321C113.691 160.981 116.175 161.187 117.83 159.788L116.54 158.26ZM113.822 158.032C108.843 152.13 101.949 148.3 94.34 147.183L94.0496 149.162C101.176 150.208 107.629 153.793 112.293 159.322L113.822 158.032ZM94.347 147.184C92.7955 146.945 91.2788 146.825 89.7973 146.825V148.825C91.1704 148.825 92.5852 148.937 94.0425 149.161L94.347 147.184ZM89.7973 146.825C80.515 146.825 71.7474 150.894 65.7704 158.035L67.304 159.319C72.8993 152.634 81.1042 148.825 89.7973 148.825V146.825ZM65.776 158.028C65.0566 158.873 63.5432 158.873 62.8238 158.028L61.3014 159.325C62.8193 161.107 65.7805 161.107 67.2984 159.325L65.776 158.028ZM62.8277 158.033C56.8529 150.935 48.0874 146.825 38.8025 146.825V148.825C47.4931 148.825 55.7001 152.671 61.2976 159.321L62.8277 158.033ZM38.8025 146.825C21.4695 146.825 7.36763 160.945 7.36763 178.295H9.36763C9.36763 162.047 22.5762 148.825 38.8025 148.825V146.825ZM7.36763 178.295C7.36763 183.956 8.88096 189.501 11.7511 194.33L13.4704 193.308C10.7859 188.792 9.36763 183.601 9.36763 178.295H7.36763ZM11.7443 194.318C12.1334 194.993 12.1063 195.817 11.6678 196.463L13.3223 197.586C14.1953 196.301 14.2454 194.653 13.4772 193.32L11.7443 194.318ZM11.679 196.446C7.89481 201.79 5.90182 208.055 5.90182 214.596H7.90182C7.90182 208.469 9.76623 202.608 13.3111 197.602L11.679 196.446ZM5.90182 214.596C5.90182 223.13 9.29024 231.15 15.4229 237.131L16.8192 235.699C11.071 230.093 7.90182 222.589 7.90182 214.596H5.90182ZM15.4135 237.121C16.1658 237.875 16.2087 239.046 15.4942 239.838L16.9792 241.178C18.4249 239.576 18.3135 237.195 16.8285 235.708L15.4135 237.121ZM15.4969 239.835C10.2359 245.621 7.36763 253.122 7.36763 260.937H9.36763C9.36763 253.614 12.054 246.594 16.9766 241.181L15.4969 239.835ZM7.36763 260.937C7.36763 278.287 21.4695 292.407 38.8025 292.407V290.407C22.5762 290.407 9.36763 277.185 9.36763 260.937H7.36763ZM38.8025 292.407C48.0849 292.407 56.8525 288.337 62.8294 281.197L61.2958 279.913C55.7006 286.598 47.4956 290.407 38.8025 290.407V292.407ZM62.8349 281.19C63.178 280.773 63.739 280.512 64.2999 280.512V278.512C63.1635 278.512 62.0274 279.024 61.2903 279.92L62.8349 281.19ZM64.2999 280.512C64.8608 280.512 65.4219 280.773 65.7649 281.19L67.3095 279.92C66.5725 279.024 65.4363 278.512 64.2999 278.512V280.512ZM65.7722 281.199C71.7469 288.297 80.5124 292.407 89.7973 292.407V290.407C81.1068 290.407 72.8997 286.561 67.3023 279.911L65.7722 281.199ZM89.7973 292.407C99.0797 292.407 107.847 288.337 113.824 281.197L112.291 279.913C106.695 286.598 98.4904 290.407 89.7973 290.407V292.407ZM113.819 281.203C114.538 280.359 116.051 280.359 116.771 281.203L118.293 279.906C116.775 278.125 113.814 278.125 112.296 279.906L113.819 281.203ZM116.767 281.199C122.742 288.297 131.507 292.407 140.792 292.407V290.407C132.102 290.407 123.895 286.561 118.297 279.911L116.767 281.199ZM140.792 292.407C150.075 292.407 158.842 288.337 164.819 281.197L163.285 279.913C157.69 286.598 149.485 290.407 140.792 290.407V292.407ZM164.813 281.203C165.533 280.359 167.046 280.359 167.766 281.203L169.288 279.906C167.77 278.125 164.809 278.125 163.291 279.906L164.813 281.203ZM167.762 281.199C173.737 288.297 182.502 292.407 191.787 292.407V290.407C183.096 290.407 174.889 286.561 169.292 279.911L167.762 281.199ZM191.787 292.407C201.069 292.407 209.837 288.337 215.814 281.197L214.28 279.913C208.685 286.598 200.48 290.407 191.787 290.407V292.407ZM215.808 281.203C216.528 280.359 218.041 280.359 218.76 281.203L220.283 279.906C218.765 278.125 215.804 278.125 214.286 279.906L215.808 281.203ZM218.757 281.199C224.731 288.297 233.497 292.407 242.782 292.407V290.407C234.091 290.407 225.884 286.561 220.287 279.911L218.757 281.199ZM242.782 292.407C252.064 292.407 260.832 288.337 266.809 281.197L265.275 279.913C259.68 286.598 251.475 290.407 242.782 290.407V292.407ZM266.803 281.203C267.522 280.359 269.036 280.359 269.755 281.203L271.278 279.906C269.76 278.125 266.799 278.125 265.281 279.906L266.803 281.203ZM269.751 281.198C273.735 285.944 278.994 289.375 284.889 291.129L285.46 289.212C279.937 287.569 275.013 284.356 271.282 279.912L269.751 281.198ZM284.896 291.131C285.682 291.36 286.233 292.071 286.258 292.867L288.257 292.804C288.205 291.128 287.058 289.677 285.454 289.21L284.896 291.131ZM286.259 292.889C287.074 308.072 289.789 323.023 294.327 337.431L296.235 336.83C291.747 322.583 289.062 307.798 288.256 292.782L286.259 292.889ZM59.0153 81.252C58.5294 81.252 58.0423 81.0736 57.6536 80.7104L56.2881 82.1717C57.0566 82.8898 58.0353 83.252 59.0153 83.252V81.252ZM57.6663 80.7225C56.909 79.9896 56.8705 78.7598 57.6244 77.9531L56.1631 76.5876C54.6796 78.1752 54.7183 80.6527 56.2754 82.1597L57.6663 80.7225ZM57.6115 77.9666L62.8189 72.5987L61.3835 71.2061L56.176 76.574L57.6115 77.9666ZM62.8206 72.5971C63.5521 71.8394 64.7785 71.8011 65.5836 72.5551L66.9508 71.0953C65.3643 69.6095 62.8876 69.6484 61.3818 71.2078L62.8206 72.5971ZM65.5718 72.5438C66.3291 73.2767 66.3675 74.5065 65.6137 75.3132L67.075 76.6787C68.5585 75.0911 68.5197 72.6135 66.9626 71.1066L65.5718 72.5438ZM65.6266 75.2996L60.4191 80.6675L61.8546 82.0601L67.0621 76.6922L65.6266 75.2996ZM60.4525 80.6347C60.0042 81.0554 59.4722 81.252 59.0153 81.252V83.252C60.0242 83.252 61.0351 82.8307 61.8212 82.093L60.4525 80.6347ZM120.579 81.252C120.084 81.252 119.576 81.0682 119.204 80.6957L117.789 82.1091C118.574 82.8953 119.609 83.252 120.579 83.252V81.252ZM119.204 80.6957L113.842 75.3279L112.427 76.7413L117.789 82.1091L119.204 80.6957ZM113.842 75.3279C113.075 74.5597 113.075 73.3386 113.842 72.5705L112.427 71.1571C110.88 72.7061 110.88 75.1923 112.427 76.7413L113.842 75.3279ZM113.842 72.5705C114.609 71.8031 115.826 71.8031 116.593 72.5705L118.008 71.1571C116.46 69.6075 113.975 69.6075 112.427 71.1571L113.842 72.5705ZM116.593 72.5705L121.955 77.9384L123.37 76.525L118.008 71.1571L116.593 72.5705ZM121.955 77.9384C122.722 78.7065 122.722 79.9276 121.955 80.6957L123.37 82.1091C124.917 80.5602 124.917 78.074 123.37 76.525L121.955 77.9384ZM121.955 80.6957C121.583 81.0682 121.075 81.252 120.579 81.252V83.252C121.55 83.252 122.585 82.8952 123.37 82.1091L121.955 80.6957ZM212.733 81.252C212.32 81.252 211.882 81.108 211.468 80.7764L210.217 82.3374C210.961 82.9326 211.834 83.252 212.733 83.252V81.252ZM211.488 80.793C210.658 80.092 210.55 78.8661 211.221 78.0692L209.692 76.7804C208.281 78.455 208.558 80.9365 210.197 82.3208L211.488 80.793ZM211.225 78.0651L215.699 72.6972L214.163 71.4166L209.689 76.7845L211.225 78.0651ZM215.696 72.7014C216.396 71.8708 217.619 71.7632 218.413 72.4347L219.704 70.9068C218.03 69.4929 215.55 69.7715 214.167 71.4125L215.696 72.7014ZM218.413 72.4347C219.243 73.1357 219.351 74.3615 218.68 75.1584L220.209 76.4473C221.621 74.7726 221.343 72.2911 219.704 70.9068L218.413 72.4347ZM218.676 75.1625L214.202 80.5304L215.738 81.811L220.213 76.4431L218.676 75.1625ZM214.165 80.578C213.842 81.0155 213.317 81.252 212.733 81.252V83.252C213.846 83.252 215.017 82.7934 215.775 81.7635L214.165 80.578ZM274.335 83.3374C273.759 83.3374 273.213 83.1045 272.845 82.6369L271.274 83.8753C272.063 84.8752 273.215 85.3374 274.335 85.3374V83.3374ZM272.834 82.6231L266.739 75.1698L265.191 76.4359L271.285 83.8891L272.834 82.6231ZM266.729 75.1584C266.06 74.3645 266.166 73.1464 267.023 72.4443L265.755 70.8971C264.067 72.2804 263.786 74.7697 265.2 76.4473L266.729 75.1584ZM267.034 72.4347C267.826 71.7657 269.041 71.8704 269.742 72.7283L271.291 71.4627C269.909 69.7719 267.421 69.4904 265.744 70.9068L267.034 72.4347ZM269.742 72.7286L275.837 80.1818L277.385 78.9158L271.291 71.4625L269.742 72.7286ZM275.847 80.1932C276.516 80.9871 276.41 82.2052 275.553 82.9073L276.821 84.4545C278.509 83.0712 278.79 80.582 277.376 78.9043L275.847 80.1932ZM275.569 82.8949C275.197 83.1874 274.757 83.3374 274.335 83.3374V85.3374C275.225 85.3374 276.097 85.024 276.805 84.4669L275.569 82.8949ZM166.212 118.904C165.645 118.904 165.123 118.677 164.744 118.222L163.207 119.502C163.985 120.436 165.082 120.904 166.212 120.904V118.904ZM164.745 118.223L157.531 109.534L155.992 110.812L163.206 119.501L164.745 118.223ZM157.526 109.528C156.855 108.731 156.963 107.506 157.793 106.805L156.502 105.277C154.863 106.661 154.586 109.143 155.997 110.817L157.526 109.528ZM157.793 106.805C158.588 106.133 159.81 106.241 160.51 107.071L162.04 105.782C160.657 104.141 158.176 103.863 156.502 105.277L157.793 106.805ZM160.506 107.066L167.719 115.755L169.258 114.477L162.044 105.788L160.506 107.066ZM167.724 115.76C168.395 116.557 168.287 117.783 167.457 118.484L168.748 120.012C170.387 118.628 170.664 116.146 169.253 114.471L167.724 115.76ZM167.484 118.462C167.123 118.746 166.647 118.904 166.212 118.904V120.904C167.089 120.904 168.002 120.599 168.721 120.034L167.484 118.462ZM217.207 118.904C216.805 118.904 216.408 118.781 216.051 118.501L214.815 120.073C215.538 120.641 216.375 120.904 217.207 120.904V118.904ZM216.052 118.501C215.193 117.824 215.027 116.626 215.687 115.761L214.098 114.547C212.752 116.309 213.127 118.741 214.814 120.072L216.052 118.501ZM215.686 115.763L223.594 105.452L222.007 104.235L214.099 114.546L215.686 115.763ZM223.586 105.462C224.263 104.602 225.458 104.437 226.32 105.097L227.536 103.509C225.775 102.16 223.344 102.536 222.015 104.225L223.586 105.462ZM226.309 105.088C227.167 105.765 227.333 106.964 226.673 107.828L228.263 109.042C229.608 107.28 229.234 104.848 227.547 103.518L226.309 105.088ZM226.674 107.826L218.767 118.137L220.354 119.355L228.261 109.044L226.674 107.826ZM218.795 118.102C218.345 118.637 217.766 118.904 217.207 118.904V120.904C218.423 120.904 219.541 120.322 220.326 119.39L218.795 118.102ZM17.2396 204.636C16.7465 204.636 16.2645 204.442 15.8642 204.041L14.4491 205.455C15.206 206.212 16.1899 206.636 17.2396 206.636V204.636ZM15.8698 204.047L8.65643 196.71L7.23021 198.112L14.4435 205.449L15.8698 204.047ZM8.6627 196.716C7.92009 195.947 7.92023 194.717 8.6894 193.947L7.27438 192.533C5.72911 194.08 5.72925 196.557 7.22393 198.105L8.6627 196.716ZM8.6894 193.947C9.439 193.196 10.6565 193.2 11.4404 193.985L12.8554 192.572C11.3248 191.039 8.83922 190.967 7.27438 192.533L8.6894 193.947ZM11.4348 193.98L18.6481 201.317L20.0743 199.915L12.861 192.577L11.4348 193.98ZM18.6418 201.31C19.3844 202.08 19.3843 203.31 18.6151 204.08L20.0302 205.493C21.5754 203.946 21.5753 201.469 20.0806 199.921L18.6418 201.31ZM18.6383 204.057C18.2047 204.464 17.7159 204.636 17.2396 204.636V206.636C18.2292 206.636 19.2062 206.267 20.007 205.516L18.6383 204.057ZM64.2228 284.421C63.817 284.421 63.4027 284.295 63.03 284.028L61.8667 285.655C62.5741 286.161 63.3942 286.421 64.2228 286.421V284.421ZM63.0412 284.036C62.1921 283.411 62.029 282.195 62.6672 281.351L61.0723 280.145C59.7818 281.85 60.0816 284.341 61.8555 285.647L63.0412 284.036ZM62.6697 281.348L70.2302 271.269L68.6303 270.069L61.0698 280.148L62.6697 281.348ZM70.2362 271.261C70.8605 270.411 72.0737 270.248 72.9148 270.886L74.1234 269.293C72.4186 268 69.9287 268.301 68.6243 270.077L70.2362 271.261ZM72.9263 270.895C73.7754 271.52 73.9384 272.736 73.3003 273.58L74.8951 274.786C76.1857 273.081 75.8859 270.59 74.1119 269.284L72.9263 270.895ZM73.2978 273.583L65.7373 283.662L67.3372 284.862L74.8977 274.783L73.2978 273.583ZM65.7177 283.689C65.3905 284.157 64.8311 284.421 64.2228 284.421V286.421C65.3888 286.421 66.6039 285.912 67.3568 284.835L65.7177 283.689ZM115.218 284.421C114.667 284.421 114.1 284.167 113.71 283.7L112.173 284.979C112.941 285.902 114.071 286.421 115.218 286.421V284.421ZM113.717 283.708L105.501 273.628L103.95 274.892L112.167 284.971L113.717 283.708ZM105.5 273.627C104.812 272.786 104.932 271.599 105.783 270.902L104.516 269.354C102.822 270.742 102.556 273.186 103.951 274.893L105.5 273.627ZM105.783 270.902C106.623 270.214 107.806 270.333 108.503 271.186L110.052 269.92C108.665 268.223 106.222 267.957 104.516 269.354L105.783 270.902ZM108.502 271.185L116.718 281.264L118.269 280L110.052 269.921L108.502 271.185ZM116.719 281.265C117.407 282.107 117.287 283.293 116.435 283.991L117.703 285.538C119.397 284.15 119.663 281.706 118.268 279.999L116.719 281.265ZM116.418 284.005C116.088 284.288 115.676 284.421 115.218 284.421V286.421C116.071 286.421 116.97 286.167 117.72 285.523L116.418 284.005ZM217.207 284.421C216.791 284.421 216.359 284.289 216.012 284.017L214.776 285.589C215.509 286.166 216.389 286.421 217.207 286.421V284.421ZM216.014 284.018C215.168 283.351 215.021 282.124 215.679 281.289L214.107 280.052C212.758 281.766 213.074 284.247 214.775 285.588L216.014 284.018ZM215.68 281.288L223.587 271.209L222.014 269.974L214.106 280.053L215.68 281.288ZM223.586 271.21C224.252 270.364 225.476 270.217 226.309 270.875L227.547 269.304C225.834 267.953 223.355 268.27 222.015 269.973L223.586 271.21ZM226.309 270.875C227.154 271.541 227.301 272.768 226.644 273.603L228.215 274.84C229.564 273.126 229.248 270.646 227.547 269.304L226.309 270.875ZM226.643 273.604L218.735 283.684L220.308 284.918L228.216 274.839L226.643 273.604ZM218.721 283.701C218.357 284.187 217.825 284.421 217.207 284.421V286.421C218.364 286.421 219.529 285.959 220.322 284.9L218.721 283.701ZM158.999 249.587C158.525 249.587 158.084 249.431 157.751 249.121L156.39 250.586C157.137 251.281 158.084 251.587 158.999 251.587V249.587ZM157.741 249.112C156.95 248.397 156.866 247.157 157.565 246.327L156.036 245.038C154.651 246.681 154.799 249.148 156.4 250.595L157.741 249.112ZM157.549 246.346L164.762 238.197L163.265 236.872L156.052 245.02L157.549 246.346ZM164.756 238.204C165.477 237.406 166.706 237.34 167.484 238.018L168.798 236.511C167.185 235.103 164.711 235.269 163.271 236.865L164.756 238.204ZM167.47 238.006C168.268 238.728 168.335 239.96 167.657 240.74L169.166 242.053C170.57 240.438 170.405 237.964 168.812 236.523L167.47 238.006ZM167.662 240.734L160.449 248.882L161.947 250.208L169.16 242.059L167.662 240.734ZM160.429 248.905C160.046 249.366 159.52 249.587 158.999 249.587V251.587C160.098 251.587 161.193 251.114 161.966 250.184L160.429 248.905ZM276.11 249.587C275.603 249.587 275.086 249.383 274.696 248.992L273.281 250.406C274.047 251.174 275.074 251.587 276.11 251.587V249.587ZM274.707 249.004L266.838 240.856L265.4 242.245L273.269 250.394L274.707 249.004ZM266.838 240.856C266.112 240.104 266.118 238.874 266.904 238.087L265.489 236.673C263.96 238.203 263.888 240.68 265.4 242.245L266.838 240.856ZM266.892 238.099C267.648 237.366 268.866 237.388 269.604 238.152L271.043 236.763C269.544 235.21 267.058 235.154 265.501 236.662L266.892 238.099ZM269.604 238.152L277.473 246.3L278.912 244.911L271.043 236.763L269.604 238.152ZM277.473 246.3C278.199 247.052 278.194 248.283 277.408 249.07L278.823 250.483C280.351 248.953 280.423 246.476 278.912 244.911L277.473 246.3ZM277.408 249.07C277.073 249.406 276.602 249.587 276.11 249.587V251.587C277.083 251.587 278.079 251.229 278.823 250.483L277.408 249.07ZM215.009 214.947C214.409 214.947 213.785 214.643 213.392 214.092L211.764 215.254C212.529 216.325 213.756 216.947 215.009 216.947V214.947ZM213.403 214.108C212.792 213.216 213.016 212.021 213.916 211.404L212.784 209.755C210.983 210.991 210.513 213.427 211.753 215.238L213.403 214.108ZM213.915 211.404L224.06 204.453L222.93 202.803L212.785 209.754L213.915 211.404ZM224.061 204.452C224.95 203.842 226.142 204.065 226.759 204.965L228.409 203.835C227.174 202.033 224.74 201.561 222.929 202.804L224.061 204.452ZM226.759 204.965C227.37 205.857 227.146 207.052 226.246 207.669L227.378 209.318C229.179 208.082 229.649 205.647 228.409 203.835L226.759 204.965ZM226.247 207.669L216.102 214.62L217.232 216.27L227.377 209.319L226.247 207.669ZM216.098 214.623C215.783 214.841 215.409 214.947 215.009 214.947V216.947C215.765 216.947 216.548 216.744 217.237 216.267L216.098 214.623ZM268.202 161.5C267.58 161.5 266.976 161.217 266.598 160.663L264.945 161.789C265.725 162.933 266.973 163.5 268.202 163.5V161.5ZM266.595 160.658L260.655 152.046L259.008 153.182L264.949 161.793L266.595 160.658ZM260.657 152.049C260.043 151.153 260.271 149.952 261.142 149.337L259.987 147.704C258.234 148.942 257.768 151.371 259.006 153.179L260.657 152.049ZM261.13 149.345C262.024 148.732 263.222 148.959 263.836 149.83L265.471 148.678C264.233 146.923 261.805 146.455 259.998 147.696L261.13 149.345ZM263.83 149.822L269.77 158.434L271.417 157.298L265.476 148.686L263.83 149.822ZM269.769 158.431C270.382 159.327 270.154 160.528 269.284 161.143L270.438 162.776C272.191 161.537 272.657 159.108 271.419 157.301L269.769 158.431ZM269.291 161.137C268.941 161.38 268.558 161.5 268.202 161.5V163.5C269.003 163.5 269.778 163.234 270.43 162.781L269.291 161.137Z" fill="#210809" mask="url(#path-1-outside-1_3719_8822)"/>
</svg>
