<svg width="34" height="45" viewBox="0 0 34 45" fill="none" xmlns="http://www.w3.org/2000/svg">
<path d="M12.3991 5.8427H10.0759C9.80222 5.2799 9.23068 4.88867 8.56224 4.88867C7.63046 4.88867 6.87451 5.64467 6.87451 6.5764C6.87451 7.50876 7.63051 8.26446 8.56224 8.26446C9.23003 8.26446 9.80252 7.87321 10.0762 7.30977H12.3991V5.8427Z" fill="black"/>
<path d="M30.1691 18.7482H29.6993L29.6996 2.71207H31.4746L31.4743 0.410156H1.76332V2.71207H3.53764V18.7482H3.06886C1.37691 18.7482 0 20.1249 0 21.8168C0 23.5088 1.37691 24.8854 3.06886 24.8854H3.57802C3.87783 28.5035 6.02335 31.6684 9.17632 33.6259L9.176 44.4102H24.0608L24.0612 33.6259C27.2141 31.6671 29.3593 28.503 29.6595 24.8854H30.1693C31.8609 24.8854 33.2379 23.5088 33.2379 21.8168C33.2376 20.1249 31.8603 18.7485 30.1687 18.7485L30.1691 18.7482ZM5.60911 2.71207H27.6275V18.7482H5.60911V2.71207ZM21.9893 42.3388H11.2473V34.6758C12.8872 35.3391 14.7042 35.7116 16.6181 35.7116C18.5324 35.7116 20.3493 35.3387 21.9892 34.6758L21.9893 42.3388ZM16.6182 33.6397C10.8839 33.6397 6.16234 29.7857 5.65617 24.8843H27.5794C27.0738 29.7853 22.3514 33.6397 16.6174 33.6397H16.6182ZM30.169 22.8133H3.06908C2.51823 22.8133 2.07171 22.3665 2.07171 21.8159C2.07171 21.2651 2.5182 20.8192 3.06908 20.8192H30.169C30.7192 20.8192 31.1657 21.2654 31.1657 21.8159C31.166 22.3661 30.7189 22.8133 30.169 22.8133Z" fill="black"/>
</svg>
